#define paint_width 50
#define paint_height 50
static unsigned char paint_bits[] = {
   0x00, 0x00, 0x00, 0x00, 0x00, 0x00, 0x00, 0x00, 0x00, 0x00, 0x00, 0x00,
   0x00, 0x00, 0x00, 0x00, 0x00, 0x00, 0x00, 0x00, 0x00, 0x00, 0x00, 0x00,
   0x00, 0x00, 0x00, 0x00, 0x00, 0x29, 0x00, 0x00, 0x00, 0x00, 0x00, 0x10,
   0x84, 0x04, 0x00, 0x00, 0x00, 0x00, 0x40, 0x14, 0x2a, 0x00, 0x00, 0x00,
   0x00, 0x00, 0x21, 0x40, 0x05, 0x00, 0x00, 0x00, 0x10, 0x94, 0xaa, 0x02,
   0x00, 0x00, 0x00, 0x80, 0x00, 0x04, 0x14, 0x00, 0x00, 0x00, 0x00, 0xa4,
   0xaa, 0xaa, 0x00, 0x00, 0x00, 0x48, 0x01, 0x40, 0x55, 0x01, 0x00, 0x00,
   0x20, 0xaa, 0xaa, 0xaa, 0x02, 0x00, 0x00, 0x80, 0x40, 0x51, 0x55, 0x05,
   0x00, 0x00, 0x28, 0x2a, 0xaa, 0xaa, 0x1a, 0x00, 0x00, 0x50, 0x45, 0x55,
   0x55, 0x2d, 0x00, 0x00, 0x00, 0xa9, 0xaa, 0xaa, 0x26, 0x00, 0x00, 0x00,
   0x41, 0x55, 0x55, 0x63, 0x00, 0x00, 0x00, 0x01, 0xa8, 0xaa, 0x51, 0x00,
   0x00, 0x00, 0x00, 0x50, 0xd5, 0xa8, 0x00, 0x00, 0x00, 0x01, 0xb0, 0x6a,
   0x94, 0x00, 0x00, 0x00, 0x01, 0x50, 0x35, 0x0a, 0x01, 0x00, 0x00, 0x01,
   0x80, 0x1a, 0x05, 0x01, 0x00, 0x80, 0x02, 0x10, 0x8d, 0x02, 0x02, 0x00,
   0x80, 0x02, 0x10, 0x46, 0x01, 0x02, 0x00, 0x80, 0x02, 0x10, 0xa2, 0x00,
   0x04, 0x00, 0x00, 0x01, 0x00, 0x56, 0x00, 0x04, 0x00, 0x00, 0x00, 0x10,
   0x2c, 0x00, 0x0a, 0x00, 0x00, 0x00, 0x10, 0x18, 0x00, 0x09, 0x00, 0x00,
   0x00, 0x28, 0x08, 0x80, 0x08, 0x00, 0x00, 0x00, 0x28, 0x10, 0x40, 0x04,
   0x00, 0x00, 0x00, 0x28, 0x10, 0x20, 0x02, 0x00, 0x00, 0x00, 0x28, 0x20,
   0x10, 0x03, 0x00, 0x00, 0x00, 0x10, 0x20, 0x88, 0x03, 0x00, 0x00, 0x00,
   0x00, 0x40, 0xc4, 0x04, 0x00, 0x00, 0x00, 0x00, 0x40, 0x62, 0x04, 0x00,
   0x00, 0x00, 0x00, 0x80, 0x71, 0x08, 0x00, 0x00, 0x00, 0x00, 0x80, 0x48,
   0x08, 0x00, 0x00, 0x00, 0x00, 0x00, 0x87, 0x10, 0x00, 0x00, 0x00, 0x00,
   0x00, 0x80, 0x10, 0x00, 0x00, 0x00, 0x00, 0x00, 0x00, 0x21, 0x00, 0x00,
   0x00, 0x00, 0x00, 0x00, 0x21, 0x00, 0x00, 0x00, 0x00, 0x00, 0x00, 0x42,
   0x00, 0x00, 0x00, 0x00, 0x00, 0x00, 0x42, 0x00, 0x00, 0x00, 0x00, 0x00,
   0x00, 0x44, 0x00, 0x00, 0x00, 0x00, 0x00, 0x00, 0x44, 0x00, 0x00, 0x00,
   0x00, 0x00, 0x00, 0x78, 0x00, 0x00, 0x00, 0x00, 0x00, 0x00, 0x00, 0x00,
   0x00, 0x00, 0x00, 0x00, 0x00, 0x00, 0x00, 0x00, 0x00, 0x00, 0x00, 0x00,
   0x00, 0x00};
