#define pickpat_width 50
#define pickpat_height 50
static unsigned char pickpat_bits[] = {
 0x00,0x00,0x00,0x00,0x00,0x00,0x00,0x00,0x00,0x00,0x00,0x00,0x00,0x00,0x00,
 0x00,0x00,0x30,0x00,0x00,0x00,0x00,0x00,0x00,0xc8,0x01,0x00,0x00,0x00,0x00,
 0x00,0x04,0x0e,0x00,0x00,0x00,0x00,0x00,0x12,0x12,0x00,0x00,0x00,0x00,0x00,
 0x11,0x32,0x00,0x00,0xc0,0xff,0xff,0x3f,0x50,0x00,0x00,0x40,0x00,0xc0,0x28,
 0x40,0x00,0x00,0x40,0x15,0xa0,0x3b,0x80,0x00,0x00,0x40,0x0a,0x20,0x3b,0x80,
 0x00,0x00,0x40,0x00,0x20,0x1a,0x00,0x01,0x00,0x40,0x00,0x40,0x0c,0x00,0x01,
 0x00,0x40,0x00,0x40,0x00,0x00,0x02,0x00,0x40,0x00,0x80,0x00,0x00,0x02,0x00,
 0x40,0x40,0x95,0x00,0x00,0x04,0x00,0x40,0x80,0x0a,0x01,0x00,0x08,0x00,0x40,
 0x00,0x00,0x06,0x00,0x70,0x00,0x40,0x40,0x05,0x08,0x00,0xe0,0x00,0x40,0x80,
 0x0a,0x38,0x00,0x60,0x00,0x40,0x00,0x00,0xc8,0x00,0x60,0x00,0xfe,0xff,0xff,
 0x0f,0x03,0x20,0x00,0x02,0x00,0x40,0x00,0x1c,0x10,0x00,0xfa,0xff,0xff,0x01,
 0x78,0x08,0x00,0x0a,0x00,0x00,0x01,0xf0,0x07,0x00,0xea,0xff,0xff,0x07,0xf0,
 0x03,0x00,0x2a,0x00,0x00,0x04,0x60,0x00,0x00,0xaa,0x0a,0xc0,0x05,0xc0,0x38,
 0x00,0x2a,0x05,0xc0,0x05,0x00,0x29,0x00,0x2a,0x00,0xc0,0x05,0x00,0x3a,0x00,
 0x2a,0x80,0xff,0xff,0x03,0x04,0x00,0x2a,0x80,0x00,0x00,0x04,0x08,0x00,0x2a,
 0x40,0xfe,0xff,0x0f,0x10,0x00,0x2a,0x40,0x02,0x00,0x10,0x20,0x00,0x2a,0x20,
 0xf9,0xff,0x3f,0x40,0x00,0x2e,0x20,0x09,0x00,0x40,0x80,0x00,0x28,0x90,0xe4,
 0xff,0xff,0x00,0x00,0x38,0x90,0x24,0x00,0x80,0x00,0x00,0x20,0x48,0x52,0x05,
 0x5e,0x00,0x00,0xe0,0x4f,0x92,0x02,0x4f,0x00,0x00,0x00,0x24,0x09,0x00,0x20,
 0x00,0x00,0x00,0x2c,0x09,0x54,0x21,0x00,0x00,0x00,0x90,0x04,0xa8,0x10,0x00,
 0x00,0x00,0xb0,0x04,0x00,0x10,0x00,0x00,0x00,0x40,0x02,0x55,0x08,0x00,0x00,
 0x00,0xc0,0x02,0x2a,0x08,0x00,0x00,0x00,0x00,0x01,0x00,0x04,0x00,0x00,0x00,
 0x00,0xff,0xff,0x07,0x00,0x00,0x00,0x00,0x00,0x00,0x00,0x00,0x00,0x00,0x00,
 0x00,0x00,0x00,0x00,0x00};
