#define pickdate_width 50
#define pickdate_height 50
static unsigned char pickdate_bits[] = {
 0x00,0x00,0x00,0x00,0x00,0x00,0x00,0x00,0x00,0x00,0x00,0x00,0x00,0x00,0x00,
 0x00,0x00,0x00,0x00,0x00,0x00,0xf8,0xff,0xff,0x01,0x00,0x00,0x00,0x10,0x00,
 0x00,0x01,0x1c,0x00,0x00,0x10,0x00,0x00,0x02,0x3e,0x00,0x00,0x20,0x00,0x00,
 0x02,0x77,0x00,0x00,0x40,0x00,0x00,0x04,0x63,0x00,0x00,0x80,0x00,0x00,0xf8,
 0xff,0x07,0x00,0x00,0x01,0x00,0x30,0x0e,0x0f,0x00,0x00,0x0e,0x00,0xc0,0xc0,
 0x1f,0x00,0x00,0xf0,0xff,0xff,0x3f,0x3a,0x00,0x00,0x00,0x01,0x00,0x00,0x59,
 0x00,0x00,0x80,0x01,0x00,0x80,0xd8,0x00,0xfe,0xff,0xff,0x07,0x40,0x54,0x01,
 0x18,0x00,0x00,0x08,0x20,0xd4,0x00,0x60,0x00,0x00,0x30,0x18,0x52,0x01,0x80,
 0x07,0x00,0xc0,0x07,0xd2,0x00,0x00,0xf8,0xff,0xff,0x01,0x51,0x01,0x00,0x20,
 0x18,0x3f,0x00,0xd1,0x00,0x00,0x10,0x0c,0x30,0x80,0x52,0x01,0x00,0x08,0x47,
 0x18,0x40,0xd3,0x00,0x00,0xc6,0x8f,0x07,0x30,0x52,0x01,0xc0,0x01,0x00,0x00,
 0x3e,0xd0,0x00,0xf8,0xff,0xff,0xff,0x3b,0x50,0x01,0x00,0x00,0xc9,0x0c,0x1d,
 0xd0,0x00,0x00,0x00,0xc9,0x0c,0x9d,0x57,0x01,0x00,0x00,0xf9,0x0d,0x19,0xd3,
 0x00,0x00,0x00,0x85,0x99,0x10,0x51,0x01,0x00,0x00,0xcf,0x73,0xe0,0xd0,0x00,
 0x00,0x00,0x01,0x00,0x00,0x50,0x01,0x00,0x00,0x81,0x87,0x07,0xd0,0x00,0x00,
 0x00,0x01,0xc6,0x04,0x50,0x01,0x00,0x00,0x01,0x66,0x00,0xd0,0x00,0x00,0x00,
 0x01,0xe6,0x07,0x50,0x01,0x00,0x00,0x01,0x66,0x0c,0xd0,0x00,0x00,0x00,0x01,
 0x66,0x0c,0x50,0x01,0x00,0x00,0x01,0x46,0x04,0xd0,0x00,0x00,0x00,0x81,0x9f,
 0x03,0x50,0x01,0x00,0x00,0x01,0x00,0x00,0xd0,0x00,0x00,0x00,0x01,0x00,0x00,
 0x50,0x01,0x00,0x00,0xff,0xff,0xff,0xdf,0x00,0x00,0x00,0x04,0x00,0x00,0x40,
 0x01,0x00,0x00,0xf8,0xff,0xff,0xff,0x00,0x00,0x00,0x50,0x55,0x55,0x55,0x01,
 0x00,0x00,0xa0,0xaa,0xaa,0xaa,0x00,0x00,0x00,0x00,0x00,0x00,0x00,0x00,0x00,
 0x00,0x00,0x00,0x00,0x00,0x00,0x00,0x00,0x00,0x00,0x00,0x00,0x00,0x00,0x00,
 0x00,0x00,0x00,0x00,0x00};
