#define repl_width 50
#define repl_height 50
static unsigned char repl_bits[] = {
 0x00,0x00,0x00,0x00,0x00,0x00,0x00,0x00,0x00,0x00,0x00,0x00,0x00,0x00,0x00,
 0x00,0x00,0x00,0x00,0x00,0x00,0x00,0xf0,0x0f,0x00,0x00,0x00,0x00,0x00,0xfc,
 0x3f,0x00,0x00,0x00,0x00,0x00,0x1f,0xf8,0x00,0x00,0x00,0x00,0x80,0x03,0xc0,
 0x01,0x00,0x00,0x00,0xc0,0x01,0x80,0x03,0x00,0x00,0x00,0xe0,0x00,0x00,0x07,
 0x00,0x00,0x00,0x70,0x00,0x00,0x0e,0x00,0x00,0x00,0x30,0x00,0x00,0x0c,0x00,
 0x00,0x00,0x18,0x20,0x04,0x18,0x00,0x00,0x00,0x18,0x10,0x02,0x18,0x00,0x00,
 0x00,0x1c,0x08,0x01,0x38,0x00,0x00,0x00,0x0c,0x84,0x00,0x30,0x00,0x10,0x00,
 0x0c,0x42,0x08,0x30,0x00,0x38,0x00,0x0c,0x21,0x04,0x30,0x00,0x7c,0x00,0x0c,
 0x10,0x02,0x30,0x00,0x3e,0x00,0x0c,0x00,0x01,0x30,0x00,0x19,0x00,0x0c,0x80,
 0x00,0x30,0x80,0x09,0x00,0x1c,0x40,0x00,0x38,0x40,0x07,0x00,0x18,0x20,0x00,
 0x18,0x60,0x02,0x00,0x18,0x10,0x00,0x18,0xd0,0x01,0x00,0x30,0x00,0x00,0x0c,
 0x88,0x00,0x00,0x70,0x00,0x00,0x0e,0x44,0x00,0x00,0xe0,0x00,0x00,0x0f,0x32,
 0x00,0x00,0xc0,0x01,0x80,0x1b,0x19,0x00,0x00,0x80,0x03,0xc0,0xa5,0x0c,0x00,
 0x00,0x00,0x1f,0xf8,0xc3,0x04,0x00,0x00,0x00,0xfc,0x3f,0xe2,0x03,0x00,0x00,
 0x00,0xf0,0x0f,0xb4,0x03,0x00,0x00,0x00,0x00,0x00,0x48,0x07,0x00,0x00,0x00,
 0x00,0x00,0x9c,0x0e,0x00,0x00,0x00,0x00,0x00,0x32,0x1d,0x00,0x00,0x00,0x00,
 0x00,0x71,0x3a,0x00,0x00,0x00,0x00,0x80,0xc8,0x74,0x00,0x00,0x00,0x00,0x40,
 0x84,0xe9,0x00,0x00,0x00,0x00,0x20,0x02,0xf3,0x01,0x00,0x00,0x00,0x10,0x01,
 0xe6,0x03,0x00,0x00,0x00,0x88,0x00,0xcc,0x07,0x00,0x00,0x00,0x4c,0x00,0x98,
 0x0f,0x00,0x00,0x00,0x3a,0x00,0x30,0x1d,0x00,0x00,0x00,0x12,0x00,0x60,0x3a,
 0x00,0x00,0x00,0x0f,0x00,0xc0,0x34,0x00,0x00,0x00,0x03,0x00,0x80,0x19,0x00,
 0x00,0x80,0x00,0x00,0x00,0x0b,0x00,0x00,0x00,0x00,0x00,0x00,0x06,0x00,0x00,
 0x00,0x00,0x00,0x00,0x00,0x00,0x00,0x00,0x00,0x00,0x00,0x00,0x00,0x00,0x00,
 0x00,0x00,0x00,0x00,0x00};
