#define srch_width 50
#define srch_height 50
static unsigned char srch_bits[] = {
 0x00,0x00,0x00,0x00,0x00,0x00,0x00,0x00,0x00,0x00,0x00,0x00,0x00,0x00,0x00,
 0x00,0x00,0x00,0x00,0x00,0x00,0x00,0xe0,0x1f,0x00,0x00,0x00,0x00,0x00,0xf8,
 0x7f,0x00,0x00,0x00,0x00,0x00,0x3e,0xf0,0x01,0x00,0x00,0x00,0x00,0x07,0x80,
 0x03,0x00,0x00,0x00,0x80,0x03,0x00,0x07,0x00,0x00,0x00,0xc0,0x01,0x00,0x0e,
 0x00,0x00,0x00,0xe0,0x00,0x00,0x1c,0x00,0x00,0x00,0x60,0x00,0x00,0x18,0x00,
 0x00,0x00,0x30,0x40,0x08,0x30,0x00,0x00,0x00,0x30,0x20,0x04,0x30,0x00,0x00,
 0x00,0x38,0x10,0x02,0x70,0x00,0x00,0x00,0x18,0x08,0x01,0x60,0x00,0x00,0x00,
 0x18,0x84,0x10,0x60,0x00,0x00,0x00,0x18,0x42,0x08,0x60,0x00,0x00,0x00,0x18,
 0x20,0x04,0x60,0x00,0x00,0x00,0x18,0x00,0x02,0x60,0x00,0x00,0x00,0x18,0x00,
 0x01,0x60,0x00,0x00,0x00,0x38,0x80,0x00,0x70,0x00,0x00,0x00,0x30,0x40,0x00,
 0x30,0x00,0x00,0x00,0x30,0x20,0x00,0x30,0x00,0x00,0x00,0x60,0x00,0x00,0x18,
 0x00,0x00,0x00,0xe0,0x00,0x00,0x1c,0x00,0x00,0x00,0xc0,0x01,0x00,0x1e,0x00,
 0x00,0x00,0x80,0x03,0x00,0x37,0x00,0x00,0x00,0x00,0x07,0x80,0x4b,0x00,0x00,
 0x00,0x00,0x3e,0xf0,0x87,0x01,0x00,0x00,0x00,0xf8,0x7f,0xc4,0x03,0x00,0x00,
 0x00,0xe0,0x1f,0x68,0x07,0x00,0x00,0x00,0x00,0x00,0x90,0x0e,0x00,0x00,0x00,
 0x00,0x00,0x30,0x1d,0x00,0x00,0x00,0x00,0x00,0x60,0x3a,0x00,0x00,0x00,0x00,
 0x00,0xc0,0x74,0x00,0x00,0x00,0x00,0x00,0x80,0xe9,0x00,0x00,0x00,0x00,0x00,
 0x00,0xd3,0x01,0x00,0x00,0x00,0x00,0x00,0xe6,0x03,0x00,0x00,0x00,0x00,0x00,
 0xcc,0x07,0x00,0x00,0x00,0x00,0x00,0x98,0x0f,0x00,0x00,0x00,0x00,0x00,0x30,
 0x1f,0x00,0x00,0x00,0x00,0x00,0x60,0x3a,0x00,0x00,0x00,0x00,0x00,0xc0,0x74,
 0x00,0x00,0x00,0x00,0x00,0x80,0x69,0x00,0x00,0x00,0x00,0x00,0x00,0x33,0x00,
 0x00,0x00,0x00,0x00,0x00,0x16,0x00,0x00,0x00,0x00,0x00,0x00,0x0c,0x00,0x00,
 0x00,0x00,0x00,0x00,0x00,0x00,0x00,0x00,0x00,0x00,0x00,0x00,0x00,0x00,0x00,
 0x00,0x00,0x00,0x00,0x00};
