#define templ_width 50
#define templ_height 50
static unsigned char templ_bits[] = {
 0x00,0x00,0x00,0x00,0x00,0x00,0x00,0xfe,0x9b,0xff,0xff,0xff,0x7f,0x00,0x02,
 0x9e,0x00,0x00,0x00,0xc0,0x00,0x02,0x8f,0x00,0x00,0x00,0x40,0x01,0x82,0x87,
 0x00,0x00,0x00,0xc0,0x00,0xce,0x8a,0x00,0x00,0x00,0x40,0x01,0x6e,0x86,0x00,
 0x00,0x00,0xc0,0x00,0x3a,0x8a,0x00,0x00,0x00,0x40,0x01,0x12,0x86,0x00,0x00,
 0x00,0xc0,0x00,0xfe,0x8b,0xff,0xff,0xff,0x7f,0x01,0x54,0x05,0xaa,0xaa,0xaa,
 0xaa,0x00,0xa8,0x0a,0x54,0x55,0x55,0x55,0x01,0x00,0x00,0x00,0x00,0x00,0x00,
 0x00,0xfe,0x83,0xff,0xff,0xff,0x7f,0x00,0x02,0x86,0x00,0x00,0x00,0xc0,0x00,
 0x02,0x8a,0x00,0x00,0x00,0x40,0x01,0x02,0x86,0x00,0x00,0x00,0xc0,0x00,0x02,
 0x8a,0x00,0x00,0x00,0x40,0x01,0x02,0x86,0x00,0x00,0x00,0xc0,0x00,0x02,0x8a,
 0x00,0x00,0x00,0x40,0x01,0x02,0x86,0x00,0x00,0x00,0xc0,0x00,0xfe,0x8b,0xff,
 0xff,0xff,0x7f,0x01,0x54,0x05,0xaa,0xaa,0xaa,0xaa,0x00,0xa8,0x0a,0x54,0x55,
 0x55,0x55,0x01,0x00,0x00,0x00,0x00,0x00,0x00,0x00,0xfe,0x83,0xff,0xff,0xff,
 0x7f,0x00,0x02,0x86,0x00,0x00,0x00,0x49,0x00,0x02,0x8a,0x00,0x00,0x00,0xdd,
 0x00,0x02,0x86,0x00,0x00,0x00,0x7f,0x01,0x02,0x8a,0x00,0x00,0x00,0xc1,0x00,
 0x02,0x86,0x00,0x00,0x00,0x41,0x01,0x02,0x8a,0x00,0x00,0x00,0xc1,0x00,0x02,
 0x86,0x00,0x00,0x00,0x41,0x01,0xfe,0x8b,0x00,0x00,0x00,0xc1,0x00,0x54,0x85,
 0x00,0x00,0x00,0x41,0x01,0xa8,0x8a,0x00,0x00,0x00,0xc1,0x00,0x00,0x80,0x00,
 0x00,0x00,0x41,0x01,0x00,0x80,0x00,0x00,0x00,0xc1,0x00,0xfe,0x9b,0x00,0x00,
 0x00,0x41,0x01,0x02,0x9e,0x00,0x00,0x00,0xc1,0x00,0x02,0x8f,0x00,0x00,0x00,
 0x41,0x01,0x82,0x87,0x00,0x00,0x00,0xc1,0x00,0xce,0x8a,0x00,0x00,0x00,0x41,
 0x01,0x6e,0x86,0x00,0x00,0x00,0xff,0x00,0x3a,0x8a,0x00,0x00,0x00,0x5d,0x01,
 0x12,0x86,0x00,0x00,0x00,0xc9,0x00,0xfe,0x8b,0xff,0xff,0xff,0x7f,0x01,0x54,
 0x05,0xaa,0xaa,0xaa,0xaa,0x00,0xa8,0x0a,0x54,0x55,0x55,0x55,0x01,0x00,0x00,
 0x00,0x00,0x00,0x00,0x00};
