#define noname_width 24
#define noname_height 24
static char noname_bits[] = {
 0x00,0x0c,0x00,0x00,0x0b,0x00,0xc0,0x08,0x00,0x30,0x0b,0x00,0xcc,0x08,0x00,
 0x33,0x0b,0x00,0x1d,0x09,0x00,0x25,0x08,0x00,0x35,0x08,0x00,0x05,0x0a,0x00,
 0x8d,0x09,0x00,0x0d,0x08,0x00,0x1d,0x0c,0x00,0x3d,0x0b,0x00,0x7d,0x08,0x00,
 0xfd,0x0c,0x00,0x3d,0x03,0x00,0xcd,0x00,0x00,0x31,0xec,0x4c,0x0d,0x17,0x42,
 0xc3,0x61,0x5a,0x70,0x80,0x52,0x1c,0x70,0x4c,0x07,0x00,0x00};
