#define noname_width 24
#define noname_height 24
static char noname_bits[] = {
 0x00,0x66,0x06,0x80,0x99,0x05,0x60,0x66,0x04,0x98,0x19,0x04,0x66,0x06,0x2c,
 0x9a,0x01,0x3f,0x6a,0x80,0x1f,0x2a,0xc0,0x12,0x2a,0xc0,0x36,0x6a,0x81,0x3d,
 0xea,0xf3,0x2d,0x7a,0x7f,0x05,0x5a,0x5d,0x03,0x42,0xc9,0x05,0x62,0x6b,0x05,
 0x7a,0xff,0x04,0x3a,0x2a,0x04,0x2a,0x00,0x06,0x2a,0x80,0x01,0x2a,0x60,0x00,
 0x2e,0x18,0x00,0x28,0x06,0x00,0xb8,0x01,0x00,0x60,0x00,0x00};
