#define noname_width 24
#define noname_height 24
static char noname_bits[] = {
 0xf8,0xff,0x01,0x08,0x00,0x03,0x08,0x00,0x05,0xe8,0x03,0x09,0x08,0x00,0x1f,
 0xe8,0x03,0x10,0x08,0x00,0x10,0x08,0x00,0x10,0x08,0x00,0x10,0xe8,0xff,0x13,
 0x08,0x00,0x10,0xe8,0xff,0x13,0x08,0x00,0x10,0xe8,0xff,0x13,0x08,0x00,0x10,
 0xe8,0x1f,0x10,0x08,0x00,0x10,0x08,0x00,0x10,0x08,0xf8,0x11,0x08,0x00,0x10,
 0x08,0xf8,0x11,0x08,0x00,0x10,0x08,0x00,0x10,0xf8,0xff,0x1f};
