#define noname_width 24
#define noname_height 24
static char noname_bits[] = {
 0xf8,0xff,0x1f,0x08,0x00,0x18,0xe8,0xff,0x1b,0x28,0x00,0x1a,0xa8,0xff,0x1a,
 0xa8,0x89,0x1a,0xa8,0x89,0x1a,0xa8,0xff,0x1a,0xa8,0x89,0x1a,0xa8,0x89,0x1a,
 0xa8,0xff,0x1a,0x28,0x00,0x1a,0xe8,0xff,0x1b,0x68,0x1c,0x1a,0x68,0x1c,0x1a,
 0x68,0x5d,0x1a,0x68,0x3e,0x1a,0x68,0x1c,0x1a,0x68,0x08,0x1a,0xfc,0xff,0x3f,
 0x04,0x00,0x30,0xfc,0xff,0x3f,0x08,0x00,0x18,0xf8,0xff,0x1f};
