#define noname_width 24
#define noname_height 24
static char noname_bits[] = {
 0x00,0x70,0x00,0x00,0xf8,0x00,0x00,0xd8,0x00,0x00,0xd8,0x00,0x70,0xd8,0x00,
 0xd8,0xd8,0x00,0x98,0xd9,0x00,0x38,0x7b,0x00,0x70,0x3a,0x00,0xe0,0x2f,0x00,
 0xc0,0x2b,0x00,0x00,0x34,0x00,0x00,0x28,0x00,0x00,0x58,0x00,0x00,0xa8,0x00,
 0x00,0x68,0x01,0x00,0xa8,0x02,0x00,0x28,0x05,0x00,0x28,0x0a,0x00,0x28,0x0c,
 0x00,0x28,0x08,0x00,0x30,0x00,0x00,0x20,0x00,0x00,0x00,0x00};
