#define noname_width 24
#define noname_height 24
static char noname_bits[] = {
 0x00,0x00,0x00,0x40,0x00,0x00,0xe0,0x00,0x00,0xf0,0x3d,0x00,0xe0,0xc3,0x00,
 0xc0,0x17,0x03,0xb0,0x1f,0x0c,0x0c,0x1f,0x30,0x02,0x1e,0x40,0x0e,0x1f,0x70,
 0x32,0x00,0x4c,0xc2,0x00,0x43,0x02,0xc3,0x40,0x02,0x7e,0x40,0x02,0x81,0x40,
 0x82,0x00,0x41,0x42,0x00,0x42,0x22,0x00,0x44,0x12,0x00,0x48,0x0a,0x00,0x50,
 0x06,0x00,0x60,0xfe,0xff,0x7f,0x00,0x00,0x00,0x00,0x00,0x00};
