#define noname_width 24
#define noname_height 24
static char noname_bits[] = {
 0xfc,0x07,0x00,0x04,0x08,0x00,0x04,0x10,0x00,0xa4,0x22,0x00,0x44,0x45,0x00,
 0xa4,0x8a,0x00,0x44,0x15,0x01,0xa4,0x2a,0x02,0x44,0x55,0x04,0xa4,0xaa,0x08,
 0x44,0x55,0x11,0xa4,0xaa,0x3e,0x44,0x55,0x1f,0xa4,0xaa,0x0f,0x44,0xd5,0x07,
 0xa4,0xea,0x03,0x44,0xf5,0x01,0xa4,0xfa,0x00,0x44,0x7d,0x00,0xa4,0x3e,0x00,
 0xf4,0x1f,0x00,0xfc,0x0f,0x00,0xfc,0x07,0x00,0x00,0x00,0x00};
