#define noname_width 32
#define noname_height 32
static char noname_bits[] = {
 0x00,0xe0,0x01,0x00,0x00,0x20,0xfe,0x7f,0x00,0x20,0x00,0x80,0x00,0x20,0x00,
 0x80,0x00,0x20,0x00,0x80,0x00,0x20,0x00,0x80,0x00,0x20,0x00,0x80,0x00,0x20,
 0x00,0x80,0xc0,0x23,0x00,0x80,0x40,0xfc,0xff,0x80,0x40,0x00,0x00,0x81,0x40,
 0x00,0x00,0x81,0x40,0xf8,0xff,0xbf,0x40,0x08,0x00,0xa0,0x40,0x04,0x00,0xf0,
 0x40,0x04,0x00,0x10,0x40,0x02,0x00,0x08,0x4f,0x02,0x00,0x08,0xf1,0xff,0x03,
 0x04,0x01,0x00,0x04,0x04,0x01,0x00,0x04,0x02,0x01,0x00,0x04,0x02,0x01,0x00,
 0xfc,0x01,0x01,0x00,0x04,0x00,0x01,0x00,0x04,0x00,0x01,0x00,0x04,0x00,0x01,
 0x00,0x04,0x00,0x01,0x00,0x04,0x00,0x01,0x00,0x04,0x00,0x01,0x00,0x04,0x00,
 0x01,0x00,0x04,0x00,0xff,0xff,0x07,0x00};
