#define reply_width 32
#define reply_height 32
static char reply_bits[] = {
 0x00,0x00,0x00,0x00,0x0e,0x80,0x07,0x00,0x3e,0x7e,0xf8,0x01,0xe6,0x01,0x00,
 0x0e,0x36,0x00,0x00,0x30,0x16,0x00,0xfc,0x41,0x16,0x00,0x22,0x3e,0x16,0x80,
 0x42,0x00,0x16,0x80,0x4f,0x00,0x36,0x00,0x46,0x00,0x36,0x00,0x28,0x00,0xee,
 0x03,0x30,0x00,0x3e,0xfc,0x31,0x00,0x1e,0x00,0x1e,0x00,0x06,0x00,0x00,0x00,
 0x00,0x00,0x00,0x00,0x00,0x00,0x00,0x00,0x00,0xe0,0x01,0x70,0x80,0x1f,0x7e,
 0x7c,0x70,0x00,0x80,0x67,0x0c,0x00,0x00,0x6c,0x82,0x3f,0x00,0x68,0x7c,0x44,
 0x00,0x68,0x00,0x42,0x01,0x68,0x00,0xf2,0x01,0x68,0x00,0x62,0x00,0x6c,0x00,
 0x14,0x00,0x6c,0x00,0x0c,0xc0,0x77,0x00,0x8c,0x3f,0x7c,0x00,0x78,0x00,0x78,
 0x00,0x00,0x00,0x60,0x00,0x00,0x00,0x00};
