#define send_width 32
#define send_height 32
static char send_bits[] = {
 0x00,0x00,0x00,0x00,0x00,0x00,0x00,0x00,0x00,0x00,0x00,0x00,0x00,0x00,0x00,
 0x00,0x00,0x00,0x00,0x00,0x00,0x00,0x00,0x00,0x00,0x00,0x00,0x00,0x00,0x00,
 0x00,0x00,0x00,0x00,0x00,0x00,0xff,0xfe,0xff,0xff,0x00,0x02,0x00,0x80,0x7f,
 0xf9,0x80,0x4f,0x00,0x01,0x00,0x46,0xbf,0xfc,0x80,0x21,0x80,0x00,0xc0,0x27,
 0x5f,0x00,0x00,0x10,0x40,0xe0,0x1f,0x10,0x2f,0x00,0x00,0x08,0x20,0xf0,0x0f,
 0x08,0x17,0x00,0x00,0x04,0x10,0xc0,0x03,0x04,0x0b,0x00,0x00,0x02,0xf8,0xff,
 0xff,0x03,0x00,0x00,0x00,0x00,0x00,0x00,0x00,0x00,0x00,0x00,0x00,0x00,0x00,
 0x00,0x00,0x00,0x00,0x00,0x00,0x00,0x00,0x00,0x00,0x00,0x00,0x00,0x00,0x00,
 0x00,0x00,0x00,0x00,0x00,0x00,0x00,0x00};
