#define undelete_width 32
#define undelete_height 32
static char undelete_bits[] = {
 0x00,0x1c,0x00,0x00,0x00,0x26,0x00,0x00,0x00,0x43,0x00,0x00,0x80,0x81,0x00,
 0x00,0xc0,0x18,0x01,0x00,0x60,0x28,0x02,0x00,0x30,0x50,0x04,0x00,0x18,0xa0,
 0x08,0x00,0x0c,0x43,0x11,0x00,0x06,0x05,0x22,0x00,0x03,0x0a,0x44,0x00,0x31,
 0x14,0x88,0x00,0x51,0x28,0x10,0x01,0xa2,0x40,0x20,0x02,0x44,0x81,0x40,0x0d,
 0x08,0x02,0x61,0x0a,0x10,0x04,0x02,0x05,0x20,0x08,0x84,0x02,0x40,0x10,0x04,
 0x01,0x80,0x20,0x86,0x00,0x00,0x41,0x40,0x00,0x00,0x82,0xe0,0xff,0x00,0xc4,
 0x10,0xc0,0x00,0x08,0x08,0xa0,0x00,0x10,0x14,0x90,0x00,0xa0,0x22,0x88,0x00,
 0x40,0x43,0x84,0x00,0xc0,0xa2,0x8b,0x00,0x00,0x12,0x90,0x00,0x00,0x0a,0xa0,
 0x00,0x00,0x06,0xc0,0x00,0x00,0xfe,0xff};
