#define noname_width 24
#define noname_height 24
static char noname_bits[] = {
 0x00,0x00,0x00,0x00,0x00,0x00,0x00,0xf0,0x1f,0x00,0x08,0x08,0x00,0x54,0x04,
 0xc0,0x03,0x7e,0x20,0x55,0xa1,0x90,0x80,0xd0,0xc8,0xa8,0xa9,0xe4,0xff,0x95,
 0x02,0x00,0x8a,0xff,0xff,0x45,0x01,0x00,0x62,0x01,0xd8,0x52,0x01,0x00,0x4a,
 0x01,0x00,0x26,0xff,0xff,0x13,0xfa,0x3f,0x09,0x26,0x29,0x05,0x92,0x14,0x03,
 0x49,0xfa,0x01,0xff,0x07,0x00,0x00,0x00,0x00,0x00,0x00,0x00};
