#define noname_width 24
#define noname_height 24
static char noname_bits[] = {
 0xe0,0x03,0x00,0xf8,0x0f,0x00,0x1c,0x1c,0x00,0x0e,0x38,0x00,0x06,0x30,0x00,
 0x43,0x62,0x00,0x23,0x61,0x00,0x93,0x60,0x00,0x43,0x62,0x00,0x03,0x61,0x00,
 0x86,0x30,0x00,0x0e,0x38,0x00,0x1c,0x5c,0x00,0xf8,0x8f,0x01,0xe0,0x93,0x03,
 0x00,0xe0,0x07,0x00,0x60,0x0f,0x00,0xc0,0x1e,0x00,0x80,0x3d,0x00,0x00,0x7b,
 0x00,0x00,0x76,0x00,0x00,0x7c,0x00,0x00,0x38,0x00,0x00,0x00};
