#define noname_width 24
#define noname_height 24
static char noname_bits[] = {
 0x7f,0xff,0xff,0x71,0x01,0x80,0x3b,0x01,0x80,0x2f,0xff,0xff,0x25,0x00,0x00,
 0x3f,0x00,0x00,0x00,0xff,0xff,0x00,0x01,0x80,0x00,0x01,0x80,0x3f,0xff,0xff,
 0x21,0x00,0x00,0x21,0x00,0x00,0x21,0xff,0xff,0x21,0x01,0x92,0x3f,0x01,0xba,
 0x00,0x01,0xfe,0x00,0x01,0x82,0x00,0x01,0x82,0x7f,0x01,0x82,0x71,0x01,0x82,
 0x3b,0x01,0xfe,0x2f,0x01,0xba,0x25,0x01,0x92,0x3f,0xff,0xff};
