#define comp_width 50
#define comp_height 50
static unsigned char comp_bits[] = {
 0x00,0x00,0x00,0x00,0x00,0x00,0x00,0xfe,0xff,0x1f,0x00,0x00,0x00,0x00,0x02,
 0x00,0x10,0x00,0x00,0x00,0x00,0x02,0x00,0x10,0x00,0x00,0x00,0x00,0x02,0x80,
 0x12,0x00,0x0e,0x00,0x00,0x02,0x00,0x15,0x00,0x0f,0x00,0x00,0x52,0x01,0x10,
 0x80,0x0e,0x00,0x00,0xa2,0xff,0xff,0xc7,0x04,0x00,0x00,0x82,0x00,0x00,0xa4,
 0x03,0x00,0x00,0x82,0x00,0x00,0x34,0x01,0x00,0x00,0xd2,0x00,0x50,0xed,0x00,
 0x00,0x00,0xa2,0x00,0xa0,0x44,0x00,0x00,0x00,0x82,0x54,0x00,0x22,0x00,0x00,
 0x00,0xd2,0xe8,0xff,0xf1,0x01,0x00,0x00,0xa2,0x20,0x80,0x08,0x01,0x00,0x00,
 0x82,0x20,0x40,0x04,0x01,0x00,0x00,0x82,0x34,0x20,0x56,0x01,0x00,0x00,0xd2,
 0x28,0x10,0x29,0x01,0x00,0x00,0xa2,0x20,0x8d,0x00,0x01,0x00,0x00,0x82,0x34,
 0x46,0x00,0x01,0x00,0x00,0x82,0x28,0x22,0x00,0x01,0x00,0x00,0x82,0x20,0x11,
 0x00,0x01,0x00,0x00,0x82,0xa0,0x58,0x15,0x01,0x00,0x00,0x82,0x74,0x2c,0x0a,
 0x01,0x00,0x00,0x82,0x28,0x02,0x00,0x0f,0x00,0x00,0x82,0x10,0x45,0x95,0x31,
 0x00,0x00,0x82,0x88,0xaa,0x6a,0xc0,0x00,0x00,0xfe,0x44,0x00,0x18,0x00,0x03,
 0x00,0xd4,0x22,0x00,0x06,0x00,0x0c,0x00,0xa8,0x31,0xd5,0x01,0x00,0x30,0x00,
 0x80,0x28,0xea,0xff,0xff,0x7f,0x00,0x40,0x24,0x40,0x00,0x00,0x40,0x00,0x20,
 0x22,0x40,0x15,0x00,0x55,0x00,0x30,0x3f,0x40,0x0a,0x00,0xce,0x00,0xe8,0x2a,
 0x40,0x00,0x00,0x5f,0x01,0x48,0x34,0x40,0x15,0x00,0xce,0x00,0x3c,0x20,0x40,
 0x0a,0x00,0x55,0x01,0x0c,0x20,0x40,0x00,0x00,0xc0,0x00,0x02,0x20,0x40,0x00,
 0x15,0x40,0x01,0x00,0xe0,0x7f,0x80,0x2a,0xc0,0x00,0x00,0x80,0x6a,0x00,0x00,
 0x40,0x01,0x00,0x00,0x55,0x00,0x15,0xc0,0x00,0x00,0x00,0x40,0x80,0x2a,0x40,
 0x01,0x00,0x00,0x40,0x00,0x00,0xc0,0x00,0x00,0x00,0x40,0x00,0x00,0x40,0x01,
 0x00,0x00,0xc0,0xff,0xff,0xff,0x00,0x00,0x00,0x00,0x55,0x55,0x55,0x01,0x00,
 0x00,0x00,0xaa,0xaa,0xaa,0x00,0x00,0x00,0x00,0x00,0x00,0x00,0x00,0x00,0x00,
 0x00,0x00,0x00,0x00,0x00};
