#define fonts_width 50
#define fonts_height 50
static unsigned char fonts_bits[] = {
 0x00,0x00,0x00,0x00,0x00,0x00,0x00,0x00,0x00,0x00,0x00,0x00,0x00,0x00,0x00,
 0x00,0x20,0x00,0x00,0x00,0x00,0x00,0x00,0x50,0x00,0x00,0x00,0x00,0x00,0x00,
 0x48,0x00,0x00,0x00,0x00,0x00,0x00,0x9c,0x00,0x00,0x00,0x00,0x00,0x00,0x9c,
 0x00,0x00,0x00,0x00,0x00,0x00,0x3e,0x01,0x00,0x00,0x00,0x00,0x00,0x3e,0x01,
 0x00,0x00,0x00,0x00,0x00,0x7f,0x02,0x00,0x00,0x00,0x00,0x00,0x7f,0x02,0x00,
 0x00,0x00,0x00,0x80,0xff,0x04,0x00,0x00,0x00,0x00,0x80,0xfb,0x04,0x00,0x00,
 0x00,0x00,0xc0,0xfb,0x09,0x00,0x00,0x00,0x00,0xc0,0xf9,0x09,0x00,0x00,0x00,
 0x00,0xe0,0xf5,0x13,0x00,0x00,0x00,0x00,0xe0,0xe4,0x13,0x00,0x00,0x00,0x00,
 0xf0,0xe2,0x27,0x00,0x00,0x00,0x00,0x70,0xc2,0x27,0x00,0x00,0x00,0x00,0x78,
 0xc1,0x4f,0x00,0x00,0x00,0x00,0x38,0xff,0x4f,0x00,0x00,0x00,0x00,0x3c,0x80,
 0x9f,0x00,0x00,0x00,0x00,0xfc,0xff,0x9f,0x00,0x00,0x00,0x00,0xfe,0xff,0x3f,
 0x01,0x00,0x00,0x00,0xfe,0xff,0x3f,0x01,0x00,0x00,0x00,0x2f,0x00,0x7e,0x02,
 0x00,0x00,0x00,0x27,0x00,0x7c,0x02,0x00,0x00,0x80,0x17,0x00,0xfc,0x04,0x00,
 0x00,0x80,0x13,0x00,0xf8,0x04,0x00,0x00,0xc0,0x13,0x00,0xf8,0x09,0x00,0x00,
 0xc0,0x13,0x00,0xf8,0x11,0x00,0x00,0xe0,0x67,0x00,0xfc,0x33,0x00,0x00,0xf0,
 0x3f,0x00,0xff,0x5f,0x00,0x00,0xa0,0x2a,0x00,0x80,0x2a,0x00,0x00,0x00,0x55,
 0x01,0x00,0x55,0x00,0x00,0x00,0xa8,0x0a,0x00,0xaa,0x00,0x00,0x00,0x40,0x55,
 0x55,0x55,0x00,0x00,0x00,0x00,0xaa,0xaa,0xaa,0x00,0x00,0x00,0x00,0x50,0x15,
 0x50,0x01,0x00,0x00,0x00,0x80,0xaa,0xa0,0x02,0x00,0x00,0x00,0x00,0x54,0x45,
 0x01,0x00,0x00,0x00,0x00,0xa0,0xaa,0x02,0x00,0x00,0x00,0x00,0x00,0x55,0x05,
 0x00,0x00,0x00,0x00,0x00,0xa8,0x0a,0x00,0x00,0x00,0x00,0x00,0x40,0x05,0x00,
 0x00,0x00,0x00,0x00,0x00,0x0a,0x00,0x00,0x00,0x00,0x00,0x00,0x10,0x00,0x00,
 0x00,0x00,0x00,0x00,0x00,0x00,0x00,0x00,0x00,0x00,0x00,0x00,0x00,0x00,0x00,
 0x00,0x00,0x00,0x00,0x00};
