#define functions_width 47
#define functions_height 47
static unsigned char functions_bits[] = {
 0xff,0xff,0xff,0x00,0x00,0x00,0x01,0x00,0x80,0x01,0x00,0x00,0x01,0x00,0x80,
 0x02,0x00,0x00,0x01,0x00,0x80,0x04,0x00,0x00,0x55,0x01,0x80,0x0f,0x80,0x01,
 0xa9,0x48,0x10,0x18,0x40,0x03,0x01,0x84,0x08,0x28,0x60,0x02,0x01,0x84,0x08,
 0x18,0xd0,0x01,0x01,0x02,0x09,0x28,0x98,0x00,0x01,0x02,0x09,0x18,0x74,0x00,
 0x01,0x02,0x05,0x28,0x22,0x00,0x01,0x02,0x09,0x18,0x11,0x00,0x01,0x02,0x09,
 0xa8,0x08,0x00,0x01,0x84,0x38,0x58,0x04,0x00,0x01,0x84,0xc8,0x29,0x02,0x00,
 0x01,0x48,0x08,0x1e,0x01,0x00,0x01,0x00,0x04,0x88,0x07,0x00,0x01,0x00,0x04,
 0x44,0x08,0x00,0x01,0x00,0x32,0x62,0x08,0x00,0x81,0xaa,0x22,0x91,0x30,0x00,
 0x01,0x45,0xc1,0x08,0x50,0x00,0x01,0x80,0x60,0x04,0xa0,0x00,0x01,0x40,0x30,
 0x02,0xa0,0x01,0x81,0x6a,0x1c,0x01,0x40,0x01,0x01,0xb1,0x8f,0x02,0x00,0x03,
 0x01,0x10,0x47,0x03,0x00,0x02,0x01,0x10,0xa2,0x03,0x00,0x02,0x01,0x25,0xd4,
 0x01,0x00,0x04,0x81,0x2a,0xf8,0x01,0x00,0x04,0x09,0x20,0xc0,0x00,0x00,0x08,
 0x11,0x20,0x00,0x00,0x00,0x08,0x11,0xc0,0x00,0x00,0x00,0x30,0x11,0x80,0x01,
 0x00,0x00,0x70,0x11,0x00,0x02,0x00,0x00,0x60,0x21,0x00,0x04,0x00,0x00,0x40,
 0x11,0x00,0x18,0x00,0x00,0x40,0x11,0x00,0x60,0x00,0x00,0x40,0x11,0x00,0xc0,
 0x00,0x00,0x40,0x11,0x00,0x80,0x00,0x00,0x40,0x09,0x00,0x00,0x03,0x00,0x40,
 0x01,0x00,0x00,0x0c,0x00,0x40,0x01,0x00,0x00,0x18,0x00,0x40,0x01,0x00,0x00,
 0xe8,0x00,0x40,0xff,0xff,0xff,0x1f,0x0f,0x20,0xaa,0xaa,0xaa,0x2a,0x3c,0x10,
 0x54,0x55,0x55,0x15,0xfc,0x09,0x00,0x00,0x00,0x00,0xfc,0x07};
