#define lpr_width 50
#define lpr_height 50
static unsigned char lpr_bits[] = {
 0x00,0x00,0x00,0x00,0x00,0x00,0x00,0x00,0xff,0xff,0x03,0x00,0x00,0x00,0x80,
 0x05,0x00,0x0c,0x00,0x00,0x00,0xc0,0x4a,0x05,0x10,0x00,0x00,0x00,0x40,0x95,
 0x02,0x20,0x00,0x00,0x00,0xc0,0x3f,0x00,0x20,0x00,0x00,0x00,0x00,0x20,0x00,
 0x40,0x00,0x00,0x00,0x00,0xa0,0x4a,0x55,0x00,0x00,0x00,0xc0,0x3f,0x85,0xca,
 0x01,0x00,0x00,0x60,0x20,0x00,0xc0,0x02,0x00,0x00,0x60,0x40,0xaa,0x8a,0x04,
 0x00,0x00,0x90,0x70,0x54,0x85,0x08,0x00,0x00,0x10,0x61,0x00,0x80,0x10,0x00,
 0x00,0x10,0xc2,0xff,0xff,0x21,0x00,0x00,0x48,0x84,0xff,0xff,0x41,0x00,0x00,
 0xc8,0x08,0x00,0x00,0x80,0x00,0x00,0x88,0x11,0x00,0x00,0x00,0x01,0x00,0x24,
 0x20,0x00,0x00,0x00,0x02,0x00,0x64,0xc0,0xff,0xff,0xff,0x07,0x00,0xc4,0xc0,
 0xaa,0xaa,0xaa,0x06,0x00,0x0c,0x40,0x00,0x00,0x00,0x04,0x00,0x14,0xa0,0xaa,
 0xaa,0xaa,0x0a,0x00,0x28,0xff,0x7f,0x00,0x00,0x08,0x00,0x48,0x01,0xc0,0xab,
 0xaa,0x0a,0x00,0x88,0x01,0x40,0x01,0x00,0x10,0x00,0x10,0x01,0x40,0xae,0xaa,
 0x1a,0x00,0x10,0x55,0xc0,0xff,0xff,0x10,0x00,0x10,0x29,0x00,0xfc,0xff,0x2a,
 0x00,0x20,0x01,0x00,0x04,0xe1,0x3f,0x00,0x40,0x01,0x00,0x0c,0xc2,0x2a,0x00,
 0x80,0x01,0x00,0x14,0x84,0x10,0x00,0x00,0x51,0x55,0x24,0x08,0x1b,0x00,0x00,
 0x29,0x8a,0x44,0x10,0x12,0x00,0x00,0x01,0x00,0xfc,0xff,0x1f,0x00,0x00,0x51,
 0x55,0x04,0x00,0x1c,0x00,0x00,0x29,0xaa,0xfc,0xff,0x1f,0x00,0x00,0x01,0x00,
 0xac,0xaa,0x2a,0x00,0x00,0x29,0xa5,0x54,0x55,0x55,0x00,0x00,0x91,0x4a,0xac,
 0xaa,0x02,0x00,0x00,0x01,0x00,0x54,0x55,0x05,0x00,0x00,0x01,0x00,0xac,0xaa,
 0x0a,0x00,0x00,0x01,0x54,0x14,0x00,0x00,0x00,0x00,0x01,0x28,0x0c,0x00,0x00,
 0x00,0x00,0x01,0x00,0x14,0x00,0x00,0x00,0x00,0x01,0x00,0x0c,0x00,0x00,0x00,
 0x00,0x01,0x00,0x14,0x00,0x00,0x00,0x00,0xff,0xff,0x0f,0x00,0x00,0x00,0x00,
 0x54,0x55,0x15,0x00,0x00,0x00,0x00,0xa8,0xaa,0x0a,0x00,0x00,0x00,0x00,0x00,
 0x00,0x00,0x00,0x00,0x00};
