#define open_width 50
#define open_height 50
static unsigned char open_bits[] = {
 0x00,0x00,0x00,0x00,0x00,0x00,0x00,0x00,0x00,0xf8,0x01,0x00,0x00,0x00,0x00,
 0x00,0x04,0x02,0x00,0x00,0x00,0x00,0x00,0x04,0xfe,0xff,0x3f,0x00,0x00,0x00,
 0x04,0x00,0x00,0x20,0x00,0x00,0x00,0x04,0xfc,0xff,0x6f,0x00,0x00,0x00,0xfc,
 0x03,0x00,0xb0,0x00,0x00,0x00,0x04,0x00,0x00,0x60,0x00,0x00,0x00,0x04,0x00,
 0x00,0xa0,0x00,0x00,0x00,0x04,0x00,0x00,0x60,0x00,0x00,0xf8,0x04,0x00,0x00,
 0xa0,0x00,0x00,0x04,0x05,0x00,0x00,0x60,0x00,0x00,0x04,0xff,0xff,0x1f,0xa0,
 0x00,0x00,0x04,0x00,0x00,0x10,0x60,0x00,0x00,0x04,0x00,0xfe,0xff,0xa3,0x00,
 0x00,0x04,0x00,0x01,0x00,0x64,0x00,0x00,0x04,0xff,0x01,0x00,0xa4,0x00,0x00,
 0x04,0x01,0x00,0x00,0x6a,0x00,0x00,0x04,0x01,0x00,0x00,0xa6,0x00,0x00,0x84,
 0x00,0x00,0x00,0x62,0x00,0x00,0x84,0x00,0x00,0x00,0xa5,0x00,0x00,0x84,0x00,
 0x00,0x00,0x63,0x00,0x00,0x44,0x00,0x00,0x00,0xa5,0x00,0xfc,0x44,0x00,0x00,
 0x80,0x62,0x00,0x02,0x45,0x00,0x00,0x80,0xbf,0x00,0x02,0xff,0xff,0x1f,0x80,
 0x55,0x00,0x02,0x00,0x00,0x10,0xc0,0x2a,0x00,0x02,0xfe,0xff,0x37,0x40,0x01,
 0x00,0xfe,0x01,0x00,0x58,0xc0,0x00,0x00,0x02,0x00,0x00,0x30,0x60,0x01,0x00,
 0x02,0x00,0x00,0x50,0xa0,0x00,0x00,0x02,0x00,0x00,0x30,0x60,0x01,0x00,0x02,
 0x00,0x00,0x50,0xb0,0x00,0x00,0x02,0x00,0x00,0xf0,0x5f,0x00,0x00,0x02,0x00,
 0x00,0xb0,0x2a,0x00,0x00,0x02,0x00,0x00,0x50,0x15,0x00,0x00,0x02,0x00,0x00,
 0x30,0x00,0x00,0x00,0x02,0x00,0x00,0x50,0x00,0x00,0x00,0x02,0x00,0x00,0x30,
 0x00,0x00,0x00,0x02,0x00,0x00,0x50,0x00,0x00,0x00,0x02,0x00,0x00,0x30,0x00,
 0x00,0x00,0x02,0x00,0x00,0x50,0x00,0x00,0x00,0x02,0x00,0x00,0x30,0x00,0x00,
 0x00,0x02,0x00,0x00,0x50,0x00,0x00,0x00,0x02,0x00,0x00,0x30,0x00,0x00,0x00,
 0x02,0x00,0x00,0x50,0x00,0x00,0x00,0xfe,0xff,0xff,0x3f,0x00,0x00,0x00,0x54,
 0x55,0x55,0x55,0x00,0x00,0x00,0xa8,0xaa,0xaa,0x2a,0x00,0x00,0x00,0x00,0x00,
 0x00,0x00,0x00,0x00,0x00};
