#define quest_width 50
#define quest_height 50
static unsigned char quest_bits[] = {
 0x00,0x00,0x00,0x00,0x00,0x00,0x00,0x00,0x00,0x00,0x00,0x00,0x00,0x00,0x00,
 0x00,0x00,0x00,0x00,0x00,0x00,0x00,0x00,0x00,0x00,0xf0,0x07,0x00,0x00,0x00,
 0x00,0x00,0x1c,0x1e,0x00,0x00,0x00,0x00,0x00,0x0e,0x7c,0x00,0xc0,0x1f,0x00,
 0x00,0x1f,0x78,0x00,0x70,0x78,0x00,0x00,0x1f,0xf8,0x00,0x38,0xf0,0x01,0x00,
 0x1f,0xf8,0x00,0x7c,0xe0,0x01,0x00,0x0e,0xf8,0x00,0x7c,0xe0,0x03,0x00,0x00,
 0xf8,0x00,0x7c,0xe0,0x03,0x00,0x00,0x7c,0x00,0x38,0xe0,0x03,0x00,0x00,0x7c,
 0x00,0x00,0xe0,0x03,0x00,0x00,0x3e,0x00,0x00,0xf0,0x01,0x00,0x00,0x0f,0x00,
 0x00,0xf0,0x01,0x00,0x80,0x03,0x00,0x00,0xf8,0x00,0x00,0xc0,0x01,0x00,0x00,
 0x3c,0x00,0x00,0xc0,0x00,0x00,0x00,0x0e,0x00,0x00,0xe0,0x00,0x00,0x00,0x07,
 0x00,0x00,0xe0,0x00,0x00,0x00,0x03,0x00,0x00,0x00,0x00,0x00,0x80,0x03,0x00,
 0x00,0x00,0x00,0x00,0x80,0x03,0x00,0x00,0xe0,0x00,0x00,0x00,0x00,0xe0,0x0f,
 0xf0,0x01,0x00,0x00,0x00,0x38,0x3c,0xf0,0x01,0x00,0x80,0x03,0x1c,0xf8,0xf0,
 0x01,0x00,0xc0,0x07,0x3e,0xf0,0xe0,0x00,0x00,0xc0,0x07,0x3e,0xf0,0x01,0x00,
 0x00,0xc0,0x07,0x3e,0xf0,0x01,0x00,0x00,0x80,0x03,0x1c,0xf0,0x01,0x00,0x00,
 0x00,0x00,0x00,0xf0,0x01,0x00,0x00,0x00,0x00,0x00,0xf8,0x00,0x00,0x00,0x00,
 0x00,0x00,0xf8,0x00,0x00,0x00,0x00,0x00,0x00,0x7c,0x00,0x00,0x00,0x00,0x00,
 0x00,0x1e,0x00,0x00,0x00,0x00,0x00,0x00,0x07,0x00,0x00,0x00,0x00,0x00,0x80,
 0x03,0x00,0x00,0x00,0x00,0x00,0x80,0x01,0x00,0x00,0x00,0x00,0x00,0xc0,0x01,
 0x00,0x00,0x00,0x00,0x00,0xc0,0x01,0x00,0x00,0x00,0x00,0x00,0x00,0x00,0x00,
 0x00,0x00,0x00,0x00,0x00,0x00,0x00,0x00,0x00,0x00,0x00,0xc0,0x01,0x00,0x00,
 0x00,0x00,0x00,0xe0,0x03,0x00,0x00,0x00,0x00,0x00,0xe0,0x03,0x00,0x00,0x00,
 0x00,0x00,0xe0,0x03,0x00,0x00,0x00,0x00,0x00,0xc0,0x01,0x00,0x00,0x00,0x00,
 0x00,0x00,0x00,0x00,0x00,0x00,0x00,0x00,0x00,0x00,0x00,0x00,0x00,0x00,0x00,
 0x00,0x00,0x00,0x00,0x00};
