#define script_width 50
#define script_height 50
static unsigned char script_bits[] = {
 0x00,0x00,0x00,0x00,0x00,0x00,0x00,0x00,0x00,0x00,0x00,0x00,0x00,0x00,0x00,
 0x00,0x00,0x00,0x00,0x00,0x00,0x00,0x00,0x00,0x00,0x00,0x02,0x00,0x00,0x00,
 0x00,0x00,0x00,0x07,0x00,0x00,0x00,0x00,0x00,0x80,0x0f,0x00,0x00,0x00,0x00,
 0x00,0x40,0x07,0x00,0x00,0x00,0x00,0x00,0x60,0x02,0x00,0x00,0x00,0x00,0x00,
 0xd0,0x01,0x00,0x00,0x00,0x00,0x00,0x98,0x00,0x00,0x00,0x00,0x00,0x00,0x74,
 0x00,0x00,0x00,0x00,0x00,0x00,0x22,0x00,0x00,0x00,0x00,0x00,0x00,0x19,0x00,
 0x00,0x00,0x00,0x00,0x80,0x0c,0x00,0x00,0x00,0x00,0x00,0x40,0x06,0x00,0x00,
 0x00,0x00,0x00,0x20,0x02,0x00,0x00,0x00,0x00,0x00,0x10,0x01,0x00,0x00,0x00,
 0x00,0x00,0x88,0x00,0x00,0x00,0x00,0x00,0x00,0x44,0x00,0x00,0x00,0x00,0x00,
 0x00,0x22,0x00,0x00,0x00,0xc0,0xff,0xff,0xf1,0xff,0x01,0x00,0x40,0x00,0x80,
 0x28,0x00,0x01,0x00,0x40,0x00,0x40,0x14,0x80,0x01,0x00,0x40,0x00,0x20,0x0a,
 0x40,0x03,0x00,0x40,0x54,0x15,0x55,0xb5,0x05,0x00,0x40,0x00,0x98,0x02,0x60,
 0x03,0x00,0x40,0x54,0x75,0x55,0xb5,0x05,0x00,0x40,0x00,0xa4,0x00,0x60,0x03,
 0x00,0x40,0x54,0x5e,0x55,0xb5,0x05,0x00,0x40,0x00,0x06,0x00,0x60,0x03,0x00,
 0x40,0x54,0x51,0x55,0xb5,0x05,0x00,0x40,0x00,0x00,0x00,0x60,0x03,0x00,0x40,
 0x54,0x55,0x55,0xb5,0x05,0x00,0x40,0x00,0x00,0x00,0x60,0x03,0x00,0x40,0x54,
 0x55,0x55,0xb5,0x05,0x00,0x40,0x00,0x00,0x00,0x60,0x03,0x00,0x40,0x54,0x55,
 0x55,0xb5,0x05,0x00,0x40,0x00,0x00,0x00,0x60,0x03,0x00,0x40,0x54,0x55,0x55,
 0xb5,0x05,0x00,0x40,0x00,0x00,0x00,0x60,0x03,0x00,0x40,0xfe,0xff,0xff,0xbf,
 0x05,0x00,0x40,0x55,0x55,0x55,0x55,0x03,0x00,0xc0,0xaa,0xaa,0xaa,0xaa,0x05,
 0x00,0xc0,0xff,0xff,0xff,0xff,0x03,0x00,0x00,0x55,0x55,0x55,0x55,0x05,0x00,
 0x00,0xaa,0xaa,0xaa,0xaa,0x02,0x00,0x00,0x00,0x00,0x00,0x00,0x00,0x00,0x00,
 0x00,0x00,0x00,0x00,0x00,0x00,0x00,0x00,0x00,0x00,0x00,0x00,0x00,0x00,0x00,
 0x00,0x00,0x00,0x00,0x00};
