#define noname_width 24
#define noname_height 24
static char noname_bits[] = {
 0xfc,0xff,0x1f,0x04,0x00,0x10,0x04,0x00,0x10,0x24,0x23,0x13,0xb4,0xb4,0x14,
 0xa4,0xa4,0x14,0xa4,0xa4,0x14,0x24,0x23,0x13,0x04,0x00,0x10,0x04,0x00,0x10,
 0x24,0x19,0x13,0xb4,0xa5,0x14,0x24,0xa5,0x14,0x24,0xa5,0x14,0x24,0x19,0x13,
 0x04,0x00,0x10,0x04,0x00,0x10,0x24,0x63,0x14,0xb4,0x94,0x16,0xa4,0x94,0x14,
 0xa4,0x94,0x14,0x24,0x63,0x14,0x04,0x00,0x10,0xfc,0xff,0x1f};
