#define noname_width 24
#define noname_height 24
static char noname_bits[] = {
 0x00,0xf8,0x07,0x00,0xfe,0x1f,0x30,0x0f,0x3c,0xd0,0x0f,0x3c,0x2c,0x0f,0x3c,
 0x34,0x00,0x00,0x0b,0x00,0x00,0x0d,0xf8,0x0f,0x02,0x04,0x04,0xc4,0x53,0x7e,
 0x27,0x01,0xa1,0x91,0xaa,0xd0,0xca,0x80,0xa9,0xe6,0xff,0x95,0x02,0x00,0x8a,
 0xff,0xff,0x45,0x01,0x00,0x62,0x01,0xd8,0x52,0x01,0x00,0x4a,0x01,0x00,0x26,
 0xff,0xff,0x13,0x02,0x00,0x09,0x02,0x00,0x05,0xfe,0xff,0x03};
