#define noname_width 24
#define noname_height 24
static char noname_bits[] = {
 0x00,0x1c,0x00,0x00,0xe4,0x7f,0x00,0x04,0x80,0x00,0x04,0x80,0x00,0x04,0x80,
 0x00,0x04,0x80,0xe0,0x04,0x80,0x20,0xff,0x83,0x20,0x00,0x84,0x20,0x00,0x84,
 0x20,0x00,0xfc,0x20,0x00,0x04,0x20,0x00,0x04,0x27,0x00,0x04,0xf9,0x1f,0x04,
 0x01,0x20,0x04,0x01,0xe0,0x07,0x01,0x20,0x00,0x01,0x20,0x00,0x01,0x20,0x00,
 0x01,0x20,0x00,0x01,0x20,0x00,0x01,0x20,0x00,0xff,0x3f,0x00};
