#define noname_width 24
#define noname_height 24
static char noname_bits[] = {
 0xfe,0xff,0x1f,0xab,0xaa,0x2a,0xfd,0xff,0x7f,0x07,0x00,0x40,0x55,0x55,0x55,
 0xff,0xff,0x7f,0x05,0x00,0x40,0x47,0x8c,0x53,0xa5,0x4c,0x44,0x17,0x41,0x54,
 0x95,0x41,0x44,0xc7,0x83,0x53,0x85,0x19,0x40,0x87,0x68,0x50,0x35,0xa5,0x41,
 0x37,0xc2,0x52,0x05,0x50,0x4c,0x07,0xc0,0x54,0x75,0x97,0x63,0x07,0x00,0x45,
 0x55,0x55,0x8b,0x06,0x00,0x16,0xfc,0xff,0x2f,0x00,0x00,0x50};
