#define noname_width 24
#define noname_height 24
static char noname_bits[] = {
 0xfc,0xff,0x1f,0x04,0x00,0x20,0xf6,0xff,0x7f,0x15,0x00,0x40,0x15,0x00,0x40,
 0x76,0x55,0x55,0x7c,0x00,0x40,0x14,0x8c,0x41,0x16,0xa9,0x40,0x15,0x78,0x40,
 0x15,0x28,0x40,0x76,0x55,0x55,0x7c,0x10,0x40,0x14,0x60,0x40,0x16,0xa1,0x41,
 0x15,0xc0,0x42,0x15,0x40,0x4c,0x76,0xd5,0x54,0x7c,0x80,0x63,0x14,0x00,0x45,
 0x14,0x01,0x8b,0x18,0x00,0x16,0xf0,0xff,0x2f,0x00,0x00,0x50};
