#define noname_width 24
#define noname_height 24
static char noname_bits[] = {
 0x00,0x20,0x00,0x00,0x50,0x00,0x00,0xd0,0x03,0x00,0xae,0x1c,0x80,0x29,0x21,
 0x60,0x28,0x41,0x18,0xa6,0x47,0x04,0x8f,0x43,0xc2,0xdf,0x21,0xe2,0x7f,0x20,
 0x31,0x1f,0x18,0x31,0x07,0x0f,0xc1,0xc0,0x0f,0x02,0xf0,0x0e,0x1c,0xfc,0x1e,
 0xf0,0xff,0x1e,0x10,0xfe,0x1c,0x50,0xfe,0x1c,0x50,0xfe,0x3c,0xd0,0xfe,0x3d,
 0xd0,0xfe,0x1d,0xf0,0xfe,0x0f,0xe0,0xfe,0x03,0x80,0xff,0x00};
