#define noname_width 24
#define noname_height 24
static char noname_bits[] = {
 0x00,0x00,0x00,0xe0,0x00,0x00,0x18,0x03,0x00,0xe4,0x04,0x00,0x12,0x0b,0x00,
 0x0a,0x14,0x00,0x85,0x29,0x00,0x45,0x5e,0x00,0xa5,0xb9,0x00,0xaa,0x76,0x01,
 0x4a,0xed,0x02,0x56,0xd9,0x05,0xec,0xb2,0x0b,0xd8,0x65,0x17,0xb0,0xcb,0x2e,
 0x60,0x97,0x5d,0xc0,0x2e,0x57,0x80,0x5d,0xa0,0x00,0xbb,0xa0,0x00,0x6e,0x53,
 0x00,0xc0,0x4c,0x00,0x80,0x33,0x00,0x00,0x0e,0x00,0x00,0x00};
