#define noname_width 24
#define noname_height 24
static char noname_bits[] = {
 0xfc,0xff,0xff,0x04,0x00,0x80,0xf4,0xff,0xbf,0xf4,0xa1,0xb2,0xf4,0x50,0xb9,
 0x74,0xa8,0xbc,0xa4,0x02,0x82,0x5c,0x01,0xff,0x08,0x80,0x00,0xfc,0x7f,0x00,
 0x00,0x1e,0x00,0x00,0x33,0x00,0xa0,0x61,0x01,0x60,0x80,0x01,0xf0,0xc0,0x03,
 0x30,0x00,0x03,0x08,0x07,0xe4,0xfe,0xc4,0x9f,0x01,0x24,0x80,0x01,0x24,0x80,
 0x01,0x24,0x80,0x01,0x24,0x80,0x01,0x24,0x80,0xff,0xe7,0xff};
