#define noname_width 24
#define noname_height 24
static char noname_bits[] = {
 0xff,0x7f,0xfe,0x7f,0x80,0x01,0xff,0xdf,0xfd,0x01,0xa2,0x00,0x7d,0x5e,0x00,
 0x01,0xe9,0x00,0xfd,0x34,0x03,0x41,0x4a,0x06,0x3d,0x45,0x0a,0xc1,0x0e,0x08,
 0x61,0x0f,0x08,0x91,0x0f,0x10,0x31,0x07,0x10,0x29,0x02,0x10,0x59,0x00,0x20,
 0x45,0x00,0xc0,0x81,0x00,0xc0,0x7d,0x01,0xc0,0x01,0x02,0xc0,0x01,0x0c,0xc0,
 0xff,0x33,0xa0,0x00,0xc0,0xd8,0x00,0x00,0xe7,0x00,0x00,0xff};
