#define noname_width 24
#define noname_height 24
static char noname_bits[] = {
 0xfe,0xff,0x07,0x02,0x00,0x04,0x7a,0x80,0x0d,0x02,0x81,0x13,0xba,0xc2,0x10,
 0x42,0x34,0x22,0x22,0x08,0x27,0x9f,0xff,0xff,0x89,0x00,0x80,0xe5,0xff,0xbf,
 0x23,0x00,0xa0,0xfd,0xff,0xaf,0x09,0x00,0xa8,0xe9,0x00,0xab,0x09,0x00,0xab,
 0x69,0x00,0xa8,0x09,0x7e,0xe8,0x09,0x00,0x28,0x09,0x7e,0x38,0x0d,0x00,0x08,
 0xfd,0xff,0x0f,0x15,0x14,0x01,0x01,0xa4,0x00,0xff,0x47,0x00};
