#define envelope_width 50
#define envelope_height 50
static unsigned char envelope_bits[] = {
 0x00,0x00,0x00,0x00,0x00,0x00,0x00,0x00,0x00,0x00,0x00,0x00,0x00,0x00,0x00,
 0x00,0x00,0x00,0x00,0x00,0x00,0x00,0x00,0x00,0x00,0x00,0x00,0x00,0x00,0x00,
 0x00,0x00,0x00,0x00,0x00,0x00,0x00,0x00,0x00,0x00,0x07,0x00,0x00,0x00,0x00,
 0x00,0x80,0x07,0x00,0x00,0x00,0x00,0x00,0x40,0x07,0x00,0x00,0x00,0xe0,0x03,
 0x60,0x02,0x00,0x00,0x00,0x18,0x0c,0xd0,0x01,0x00,0x00,0x00,0x06,0x30,0x98,
 0x00,0x00,0x00,0x80,0x01,0xc0,0x74,0x00,0x00,0x00,0x60,0x00,0x00,0x23,0x00,
 0x00,0x00,0x18,0x00,0x00,0x11,0x00,0x00,0x00,0x06,0x00,0x80,0x38,0x00,0x00,
 0x80,0x01,0x00,0x40,0xc4,0x00,0x00,0x60,0x00,0x00,0x20,0x02,0x03,0x00,0x18,
 0x00,0x00,0x10,0x01,0x0c,0x00,0xfc,0xff,0xff,0x8f,0xff,0x1f,0x00,0x04,0x00,
 0x00,0x44,0x00,0x10,0x00,0x04,0x00,0x00,0x22,0xa0,0x32,0x00,0x04,0x00,0x00,
 0x11,0xf0,0x57,0x00,0x44,0x55,0x80,0x08,0xe0,0x33,0x00,0x84,0x2a,0x40,0x04,
 0xf0,0x57,0x00,0x04,0x00,0x20,0x02,0xe0,0x33,0x00,0x44,0x55,0x10,0x01,0xf0,
 0x57,0x00,0x84,0x2a,0x88,0x00,0xa0,0x32,0x00,0x04,0x00,0x44,0x00,0x00,0x50,
 0x00,0x04,0x00,0xa2,0x2a,0x00,0x30,0x00,0x04,0x00,0x51,0x15,0x00,0x50,0x00,
 0x04,0x80,0x08,0x00,0x00,0x30,0x00,0x04,0x40,0x54,0x15,0x00,0x50,0x00,0x04,
 0x20,0xaa,0x2a,0x00,0x30,0x00,0x04,0x30,0x01,0x00,0x00,0x50,0x00,0x04,0xe8,
 0x54,0x15,0x00,0x30,0x00,0x04,0x48,0xa8,0x2a,0x00,0x50,0x00,0x04,0x3c,0x00,
 0x00,0x00,0x30,0x00,0x04,0x0c,0x00,0x55,0x00,0x50,0x00,0x04,0x02,0x00,0x2a,
 0x00,0x30,0x00,0x04,0x00,0x00,0x00,0x00,0x50,0x00,0x04,0x00,0x00,0x00,0x00,
 0x30,0x00,0x04,0x00,0x00,0x00,0x00,0x50,0x00,0xfc,0xff,0xff,0xff,0xff,0x3f,
 0x00,0x50,0x55,0x55,0x55,0x55,0x55,0x00,0xa0,0xaa,0xaa,0xaa,0xaa,0x2a,0x00,
 0x00,0x00,0x00,0x00,0x00,0x00,0x00,0x00,0x00,0x00,0x00,0x00,0x00,0x00,0x00,
 0x00,0x00,0x00,0x00,0x00,0x00,0x00,0x00,0x00,0x00,0x00,0x00,0x00,0x00,0x00,
 0x00,0x00,0x00,0x00,0x00};
