#define headers_width 50
#define headers_height 50
static unsigned char headers_bits[] = {
 0x00,0x00,0x00,0x00,0x00,0x00,0x00,0x00,0xe0,0x0f,0x00,0x00,0x00,0x00,0x00,
 0xfc,0x7f,0x00,0x00,0x00,0x00,0x00,0x1f,0xf0,0x01,0x00,0x00,0x00,0x80,0x03,
 0x80,0x03,0x00,0x00,0x00,0xc0,0x01,0x00,0x07,0x00,0x00,0x00,0x60,0x00,0x00,
 0x0c,0x00,0x00,0x00,0x30,0x00,0x00,0x18,0x00,0x00,0x00,0x38,0x00,0x00,0x38,
 0x00,0x00,0x00,0xd8,0xff,0xff,0x3f,0x00,0x00,0x00,0x4c,0x00,0x00,0x60,0x00,
 0x00,0x00,0x4c,0x00,0x00,0x60,0x00,0x00,0x00,0x4c,0x00,0x00,0x60,0x00,0x00,
 0x00,0x46,0xd6,0xd6,0xc6,0x00,0x00,0x00,0x46,0x6c,0x6d,0xcd,0x00,0x00,0x00,
 0x46,0x00,0x00,0xc0,0x00,0x00,0x00,0x46,0x00,0x00,0xc0,0x00,0x00,0x00,0x46,
 0xd6,0xd6,0xc6,0xff,0x7f,0x00,0x46,0x6c,0x6d,0xcd,0x00,0x40,0x00,0x46,0x00,
 0x00,0xc0,0x00,0xc0,0x00,0x4c,0x00,0x00,0x60,0x40,0x55,0x01,0x4c,0xd6,0xd6,
 0x66,0x95,0xcf,0x00,0x4c,0x6c,0x6d,0x6d,0xca,0x5f,0x01,0x58,0x00,0x00,0x30,
 0x80,0xcf,0x00,0x78,0x00,0x00,0x38,0xd5,0x5f,0x01,0x70,0x00,0x00,0x38,0x8a,
 0xcf,0x00,0x60,0x00,0x00,0x2c,0x40,0x55,0x01,0xc0,0x01,0x00,0x57,0x00,0xc0,
 0x00,0x80,0x03,0x80,0x8b,0x02,0x40,0x01,0x00,0x1f,0xf0,0x07,0x07,0xc0,0x00,
 0x00,0xfc,0x7f,0x88,0x0f,0x40,0x01,0x00,0xe0,0x0f,0xd0,0x1f,0xc0,0x00,0x00,
 0x20,0x00,0x34,0xbf,0x40,0x01,0x00,0x20,0x00,0x7a,0x7e,0xc1,0x00,0x00,0x20,
 0x00,0xe0,0xfc,0x40,0x01,0x00,0x20,0x00,0xd4,0xf9,0xc1,0x00,0x00,0x20,0x00,
 0xaa,0xf3,0x43,0x01,0x00,0x20,0x00,0x00,0xe7,0xc7,0x00,0x00,0x20,0x00,0x00,
 0xce,0x4f,0x01,0x00,0x20,0x00,0x00,0x9c,0xdf,0x00,0x00,0x20,0x00,0x00,0x38,
 0x7f,0x01,0x00,0x20,0x00,0x00,0x70,0xfe,0x00,0x00,0xe0,0xff,0xff,0xff,0xfc,
 0x01,0x00,0x40,0x55,0x55,0xd5,0xf9,0x01,0x00,0x80,0xaa,0xaa,0xaa,0xf3,0x01,
 0x00,0x00,0x00,0x00,0x00,0xe7,0x01,0x00,0x00,0x00,0x00,0x00,0xce,0x01,0x00,
 0x00,0x00,0x00,0x00,0x9c,0x01,0x00,0x00,0x00,0x00,0x00,0x38,0x01,0x00,0x00,
 0x00,0x00,0x00,0x00,0x00};
