#define noname_width 24
#define noname_height 24
static char noname_bits[] = {
 0x00,0x00,0x18,0x00,0x00,0x1e,0x00,0x80,0x17,0x00,0xe0,0x19,0x00,0x78,0x1e,
 0x00,0x9e,0x17,0x80,0xe7,0x11,0x80,0x79,0x10,0x80,0x1e,0x10,0x80,0x07,0x10,
 0x80,0x01,0x10,0x80,0x00,0x10,0x80,0x00,0x10,0x80,0x00,0x10,0x80,0x00,0x10,
 0x80,0x00,0x10,0x80,0x00,0x10,0x80,0x00,0x1f,0x80,0x80,0x1f,0x80,0x80,0x1f,
 0xf8,0x00,0x0f,0xfc,0x00,0x00,0xfc,0x00,0x00,0x78,0x00,0x00};
