#define noname_width 24
#define noname_height 24
static char noname_bits[] = {
 0x00,0x00,0x00,0x00,0x00,0x0f,0x00,0xc0,0x14,0x00,0x30,0x18,0x00,0x0c,0x70,
 0x00,0xc3,0xa1,0xf0,0x30,0xa2,0x28,0x0c,0x76,0x68,0x88,0x4d,0x84,0x70,0x42,
 0x84,0xa0,0x31,0x86,0x70,0x0c,0x05,0x0d,0x03,0x05,0xc3,0x0c,0x09,0x31,0x30,
 0x12,0x0d,0xc0,0xe4,0x03,0x30,0x08,0x00,0x0c,0x30,0x00,0x03,0xc0,0xc0,0x00,
 0x00,0x33,0x00,0x00,0x0c,0x00,0x00,0x00,0x00,0x00,0x00,0x00};
