#define noname_width 24
#define noname_height 24
static char noname_bits[] = {
 0x00,0x7f,0x00,0x80,0xc1,0x00,0xc0,0x9c,0x01,0x60,0x36,0x03,0x30,0x63,0x06,
 0x98,0xc9,0x0c,0xcc,0x9c,0x19,0x66,0x36,0x33,0x32,0x63,0x36,0x98,0xc1,0x1c,
 0xcc,0x80,0x0d,0x66,0x00,0x27,0x72,0x00,0x33,0xd8,0x80,0x19,0x9c,0xc1,0x0c,
 0x36,0x63,0x26,0x66,0x36,0x33,0xcc,0x9c,0x19,0x98,0xc9,0x0c,0x30,0x63,0x06,
 0x60,0x36,0x03,0xc0,0x9c,0x01,0x80,0xc1,0x00,0x00,0x7f,0x00};
