#define noname_width 24
#define noname_height 24
static char noname_bits[] = {
 0x00,0x00,0x2f,0x00,0xc6,0x01,0x80,0xb9,0x5e,0x60,0x16,0x03,0x98,0x39,0x1e,
 0x66,0x56,0x22,0x9a,0x11,0x03,0x6a,0xec,0x02,0x2a,0x02,0x04,0x2a,0x39,0x04,
 0xaa,0x44,0x08,0xaa,0x38,0x08,0xaa,0x24,0x08,0xaa,0x64,0x08,0x2a,0x93,0x08,
 0x2a,0x90,0x05,0x2a,0x68,0x02,0x2a,0x18,0x02,0x2a,0x84,0x01,0x2a,0x70,0x00,
 0x2a,0x18,0x00,0x2e,0x06,0x00,0xb8,0x01,0x00,0x60,0x00,0x00};
