#define noname_width 24
#define noname_height 24
static char noname_bits[] = {
 0xde,0xdd,0x1d,0x22,0x22,0x22,0xfd,0xff,0x7f,0x05,0x00,0x40,0xa5,0x06,0x40,
 0x06,0x8d,0x54,0x55,0x1b,0x40,0xa5,0x3d,0x52,0xc5,0x6f,0x40,0xa6,0xbf,0x48,
 0x05,0x3d,0x41,0x45,0x9f,0x52,0x85,0x55,0x45,0x86,0x8f,0x4e,0x15,0x4f,0x53,
 0x45,0xa6,0x51,0x05,0xcc,0x50,0xa6,0x78,0x50,0x05,0x32,0x50,0x25,0xe0,0x6f,
 0x85,0xc4,0x5f,0x06,0x00,0xb0,0xfc,0xff,0x7f,0x00,0x00,0xc0};
