#define noname_width 24
#define noname_height 24
static char noname_bits[] = {
 0x80,0x0f,0x00,0x40,0x37,0x00,0xf8,0x2c,0x00,0x74,0x27,0x30,0xcc,0x22,0x48,
 0x73,0x20,0x4c,0x2d,0x20,0x3a,0x05,0x20,0x11,0x05,0xa0,0x08,0x45,0x60,0x04,
 0x45,0x20,0x02,0x45,0x10,0x01,0x45,0x88,0x00,0x45,0x4c,0x00,0x45,0x3a,0x00,
 0x45,0x32,0x00,0x45,0x2d,0x00,0x45,0x23,0x00,0xc5,0x30,0x00,0x45,0x0c,0x00,
 0x05,0x03,0x00,0xc5,0x00,0x00,0x37,0x00,0x00,0x0c,0x00,0x00};
