#define noname_width 24
#define noname_height 24
static char noname_bits[] = {
 0xff,0xff,0x7f,0xff,0xff,0x7f,0x06,0x00,0x30,0x06,0x00,0x30,0x0c,0x00,0x18,
 0x0c,0x00,0x18,0x18,0x00,0x0c,0x18,0x00,0x0c,0xff,0xff,0x7f,0x5d,0x6d,0x44,
 0x5d,0xa9,0x5f,0x55,0xa5,0x6c,0x49,0x6d,0x76,0xdd,0xff,0x43,0xff,0xff,0x7f,
 0x80,0xc1,0x00,0x00,0x63,0x00,0x00,0x63,0x00,0x00,0x36,0x00,0x00,0x36,0x00,
 0x00,0x1c,0x00,0x00,0x1c,0x00,0x00,0x08,0x00,0x00,0x08,0x00};
