#define noname_width 24
#define noname_height 24
static char noname_bits[] = {
 0x00,0x00,0x00,0x00,0x00,0x00,0x00,0x00,0x00,0xff,0x3f,0x00,0x01,0x20,0x00,
 0x2d,0x2c,0x00,0x01,0x2c,0x00,0x01,0x20,0x00,0xe1,0xe5,0x0f,0x01,0x20,0x08,
 0x61,0xff,0xff,0x01,0x01,0x80,0xff,0x00,0x40,0x88,0x00,0x40,0x48,0x00,0x20,
 0x48,0x00,0x20,0x28,0x00,0x10,0x28,0x00,0x10,0x18,0x00,0x08,0x18,0x00,0x08,
 0xf8,0xff,0x07,0x00,0x00,0x00,0x00,0x00,0x00,0x00,0x00,0x00};
