#define noname_width 24
#define noname_height 24
static char noname_bits[] = {
 0x00,0x03,0x00,0x80,0x04,0x00,0x40,0x08,0x00,0x20,0x16,0x00,0x10,0x2a,0x00,
 0xc8,0x50,0x00,0x44,0xa1,0x00,0x82,0x42,0x01,0x19,0x85,0x02,0x29,0x08,0x05,
 0x52,0x10,0x1a,0xa4,0x20,0x13,0x08,0x41,0x08,0x10,0x62,0x04,0x20,0x04,0x02,
 0x40,0x08,0x01,0x80,0x8c,0xff,0x00,0x41,0xc0,0x00,0xa2,0xa0,0x00,0x34,0x91,
 0x00,0x2c,0x9b,0x00,0xa0,0xa4,0x00,0x60,0xc0,0x00,0xe0,0xff};
