#define noname_width 24
#define noname_height 24
static char noname_bits[] = {
 0x00,0x00,0x00,0x00,0x38,0x00,0x00,0x24,0x00,0x00,0x14,0x00,0x00,0x12,0x00,
 0x00,0x12,0x00,0x00,0x12,0x00,0x80,0x23,0x00,0x7e,0x42,0x00,0x01,0x80,0x7c,
 0x09,0x00,0x7b,0x31,0x02,0x7a,0xe2,0x03,0x74,0x06,0x03,0x74,0xfa,0x02,0x74,
 0x02,0x03,0x74,0xcc,0x02,0x74,0x34,0x01,0x76,0x84,0x81,0x7b,0x78,0x72,0x7e,
 0x10,0x0f,0x7c,0xe0,0x00,0x00,0x00,0x00,0x00,0x00,0x00,0x00};
