#define noname_width 24
#define noname_height 24
static char noname_bits[] = {
 0x00,0x00,0x00,0x00,0x00,0x0e,0x00,0xc0,0x09,0x00,0x38,0x09,0x00,0x27,0x3f,
 0x80,0xe4,0x37,0x80,0xfc,0x2d,0xf0,0x7f,0x3b,0x10,0xc0,0xf6,0xe8,0xa7,0xed,
 0x08,0x60,0xfb,0xf4,0xd3,0xfe,0x04,0xb0,0xff,0xe2,0xeb,0xff,0x02,0xf8,0xff,
 0xff,0xff,0xff,0x01,0xf0,0xff,0xfd,0xf7,0x3f,0x45,0xf4,0x0f,0xfd,0xf7,0x03,
 0x01,0xf0,0x00,0xff,0x3f,0x00,0x00,0x00,0x00,0x00,0x00,0x00};
