#define noname_width 24
#define noname_height 24
static char noname_bits[] = {
 0xc0,0xff,0x03,0xe0,0xff,0x07,0xe0,0xff,0x07,0xf0,0xff,0x07,0xf0,0xff,0x3f,
 0xf0,0xff,0x1f,0xf8,0xff,0x0f,0xfc,0xff,0x07,0xfb,0xff,0x07,0xf0,0xff,0x3f,
 0xf0,0xff,0x17,0xf8,0xff,0x1b,0xf8,0xff,0x1d,0xfc,0xff,0x1e,0xf0,0x7f,0x17,
 0xe0,0xbf,0x1a,0xe0,0x5f,0x15,0xe0,0xaf,0x2b,0xf0,0xd7,0x75,0xa8,0xae,0xba,
 0x74,0x5d,0x5d,0xba,0xbe,0xaa,0x54,0x5f,0x55,0x00,0x00,0x00};
