#define noname_width 24
#define noname_height 24
static char noname_bits[] = {
 0xff,0x1f,0x00,0x01,0x10,0x00,0x09,0x10,0x08,0xfd,0xff,0x1c,0x39,0x80,0x0e,
 0x79,0xb8,0x07,0xe9,0x80,0x03,0xc9,0xd9,0x01,0x89,0xe3,0x00,0x69,0xf7,0x00,
 0x09,0xbe,0x00,0xe9,0x9d,0x00,0x09,0xbe,0x00,0xe9,0xf7,0x00,0x89,0xff,0xff,
 0xc9,0xcd,0xc1,0xef,0x94,0xa3,0x78,0x24,0x97,0x38,0x44,0x8e,0xfc,0xc7,0x9c,
 0x08,0x24,0x9b,0x00,0x14,0xa0,0x00,0x0c,0xc0,0x00,0xfc,0xff};
