#define noname_width 24
#define noname_height 24
static char noname_bits[] = {
 0xff,0xdf,0x03,0x03,0xd8,0x07,0x05,0x14,0x04,0x09,0x12,0x1f,0x11,0x11,0x0e,
 0xb1,0x11,0x04,0x49,0xfe,0xff,0x05,0x54,0x55,0x03,0x04,0x40,0xff,0x8f,0x48,
 0x00,0x44,0x44,0x00,0x5e,0x55,0x00,0x61,0x44,0x80,0x50,0x55,0x80,0x50,0x44,
 0x40,0xa2,0x55,0x40,0xa3,0x44,0x40,0xa1,0x55,0x40,0xa3,0x44,0x40,0xa2,0x55,
 0x80,0xd0,0x48,0x80,0x50,0x40,0x00,0xe1,0x3f,0x00,0x1e,0x00};
