#define noname_width 24
#define noname_height 24
static char noname_bits[] = {
 0x00,0x1c,0x00,0x00,0xe4,0x7f,0x00,0x04,0x80,0x00,0x04,0x80,0x00,0x04,0x80,
 0x00,0x04,0x80,0xe0,0x04,0x80,0x20,0xff,0x83,0x20,0x00,0x84,0x20,0xff,0xbf,
 0x20,0x01,0xe0,0x20,0x01,0x20,0xa0,0x00,0x10,0xa7,0x00,0x10,0xf9,0x1f,0x08,
 0x01,0x20,0x08,0x01,0xe0,0x07,0x01,0x20,0x00,0x01,0x20,0x00,0x01,0x20,0x00,
 0x01,0x20,0x00,0x01,0x20,0x00,0x01,0x20,0x00,0xff,0x3f,0x00};
