#define noname_width 24
#define noname_height 24
static char noname_bits[] = {
 0x00,0xe0,0x3f,0x00,0x10,0x20,0x00,0x08,0x30,0x00,0x84,0x3a,0x00,0x42,0x3d,
 0x00,0xa1,0x3a,0x80,0x50,0x3d,0x40,0xa8,0x3a,0x20,0x54,0x3d,0x10,0xaa,0x3a,
 0x08,0x55,0x3d,0x84,0xaa,0x3a,0x78,0x55,0x3d,0xf0,0xaa,0x3a,0xe0,0x55,0x3d,
 0xc0,0xab,0x3a,0x80,0x57,0x3d,0x00,0xaf,0x3a,0x00,0x5e,0x3d,0x00,0xbc,0x3a,
 0x00,0xf8,0x3f,0x00,0xf0,0x3f,0x00,0xe0,0x3f,0x00,0x00,0x00};
