#define noname_width 24
#define noname_height 24
static char noname_bits[] = {
 0xff,0x03,0x00,0x01,0x06,0x00,0x1d,0x0a,0x00,0x01,0x1e,0x00,0x01,0x10,0x00,
 0x01,0x10,0x00,0xf9,0x13,0x00,0x01,0x10,0x00,0xf9,0x13,0x00,0x01,0x10,0x00,
 0xf9,0x13,0x00,0x01,0xd0,0x01,0x39,0x30,0x06,0x01,0x10,0x18,0x81,0x13,0x60,
 0x01,0x10,0x80,0xff,0x1f,0xe0,0x80,0x10,0x98,0x80,0x30,0x86,0x80,0xc8,0x89,
 0x80,0x04,0x90,0x80,0x02,0xa0,0x80,0x01,0xc0,0x80,0xff,0xff};
