#define noname_width 24
#define noname_height 24
static char noname_bits[] = {
 0x00,0x00,0x00,0x00,0x00,0x00,0x00,0x00,0x00,0x00,0x00,0x00,0x00,0x00,0x00,
 0x00,0x00,0x00,0xbf,0xff,0xff,0x80,0x00,0x80,0x5f,0x8e,0x4f,0x40,0x00,0x46,
 0x2f,0x87,0x21,0x20,0xc0,0x27,0x17,0x00,0x10,0x10,0x1e,0x10,0x0b,0x00,0x08,
 0x08,0x0f,0x08,0x05,0x00,0x04,0xfc,0xff,0x07,0x00,0x00,0x00,0x00,0x00,0x00,
 0x00,0x00,0x00,0x00,0x00,0x00,0x00,0x00,0x00,0x00,0x00,0x00};
