#define audio_width 50
#define audio_height 50
static char audio_bits[] = {
 0x00,0x00,0x00,0x00,0x00,0x00,0x00,0x00,0x00,0x00,0x00,0x00,0x00,0x00,0x00,
 0x00,0x00,0x00,0x00,0x00,0x00,0x00,0x00,0x00,0x00,0x00,0x00,0x00,0x00,0x00,
 0x00,0x00,0x00,0x00,0x00,0x00,0x00,0x00,0x00,0x00,0x00,0x00,0x00,0x00,0x00,
 0x00,0x00,0x00,0x00,0x00,0x00,0x00,0x00,0x00,0x00,0x00,0x00,0x00,0x00,0x00,
 0x00,0x00,0x00,0x00,0x00,0x00,0x00,0x00,0x00,0x00,0x00,0x00,0x00,0x00,0x00,
 0x00,0x00,0x00,0x00,0x00,0x00,0x00,0x00,0x00,0x00,0x00,0xf8,0xff,0x3f,0x00,
 0x00,0x00,0x00,0xf8,0xff,0x3f,0x00,0x00,0x00,0x00,0xf8,0xff,0x3f,0x00,0x00,
 0x00,0x00,0x18,0x00,0x30,0x00,0x00,0x00,0x00,0xf8,0xff,0x3f,0x00,0x00,0x00,
 0x00,0xf8,0xff,0x3f,0x00,0x00,0x00,0x00,0xf8,0xff,0x3f,0x00,0x00,0x00,0x00,
 0x18,0x00,0x30,0x00,0x00,0x00,0x00,0x18,0x00,0x30,0x00,0x00,0x00,0x00,0x18,
 0x00,0x30,0x00,0x00,0x00,0x00,0x18,0x00,0x30,0x00,0x00,0x00,0x00,0x18,0x00,
 0x30,0x00,0x00,0x00,0x00,0x18,0x00,0x30,0x00,0x00,0x00,0x00,0x18,0x00,0x30,
 0x00,0x00,0x00,0x00,0x18,0x00,0x30,0x00,0x00,0x00,0x00,0x18,0xc0,0x37,0x00,
 0x00,0x00,0x00,0x18,0xe0,0x3f,0x00,0x00,0x00,0x00,0x18,0xf0,0x3f,0x00,0x00,
 0x00,0xe0,0x1b,0xf0,0x3f,0x00,0x00,0x00,0xf0,0x1f,0xf0,0x1f,0x00,0x00,0x00,
 0xf8,0x1f,0xe0,0x0f,0x00,0x00,0x00,0xf8,0x1f,0xc0,0x07,0x00,0x00,0x00,0xf8,
 0x0f,0x00,0x00,0x00,0x00,0x00,0xf0,0x07,0x00,0x00,0x00,0x00,0x00,0xe0,0x03,
 0x00,0x00,0x00,0x00,0x00,0x00,0x00,0x00,0x00,0x00,0x00,0x00,0x00,0x00,0x00,
 0x00,0x00,0x00,0x00,0x00,0x00,0x00,0x00,0x00,0x00,0x00,0x00,0x00,0x00,0x00,
 0x00,0x00,0x00,0x00,0x00,0x00,0x00,0x00,0x00,0x00,0x00,0x00,0x00,0x00,0x00,
 0x00,0x00,0x00,0x00,0x00,0x00,0x00,0x00,0x00,0x00,0x00,0x00,0x00,0x00,0x00,
 0x00,0x00,0x00,0x00,0x00,0x00,0x00,0x00,0x00,0x00,0x00,0x00,0x00,0x00,0x00,
 0x00,0x00,0x00,0x00,0x00,0x00,0x00,0x00,0x00,0x00,0x00,0x00,0x00,0x00,0x00,
 0x00,0x00,0x00,0x00,0x00};
