#define /tmp/tf1_width 50
#define /tmp/tf1_height 50
static char /tmp/tf1_bits[] = {
 0x00,0x00,0x00,0x00,0x00,0x00,0x00,0x00,0x00,0x00,0x08,0x00,0x00,0x00,0x00,
 0x00,0x00,0x0e,0x00,0x00,0x00,0x00,0x00,0x80,0x89,0x00,0x00,0x00,0x00,0x00,
 0x60,0xe8,0x00,0x00,0x00,0x00,0x00,0x18,0x98,0x00,0x00,0x00,0x00,0x00,0x06,
 0x86,0x0c,0x00,0x00,0x00,0x80,0x81,0x81,0x0b,0x00,0x00,0x00,0x60,0x60,0xc0,
 0x08,0x00,0x00,0x00,0x18,0x18,0x30,0x08,0x00,0x00,0x00,0x06,0x06,0x0c,0x88,
 0x0f,0x00,0x00,0x81,0x01,0x03,0x68,0x09,0x00,0x00,0x61,0xc0,0x00,0xbc,0x0f,
 0x00,0x00,0x11,0x30,0x00,0xe7,0x0f,0x00,0x00,0x11,0x0c,0x00,0xf9,0x09,0x00,
 0x00,0x11,0x03,0x80,0x9c,0x09,0x00,0x00,0x11,0x01,0x80,0x93,0x0f,0x00,0x00,
 0x11,0x01,0x80,0xcf,0x0f,0x00,0x00,0x11,0x01,0x80,0x9f,0x0f,0x00,0x00,0x11,
 0x01,0x80,0x47,0x09,0x00,0x00,0x11,0xc1,0x83,0xdb,0x0f,0x00,0x00,0x11,0x61,
 0x82,0x78,0x00,0x00,0x00,0x11,0xd9,0x63,0x7f,0x00,0x00,0x00,0x11,0xdf,0x3f,
 0x5f,0x00,0x00,0x00,0x91,0x19,0xe2,0x5f,0x00,0x00,0x00,0x91,0xdf,0xff,0x5c,
 0x00,0x00,0x00,0xd1,0xc7,0xff,0x7c,0x00,0x00,0x00,0xd1,0x07,0xc7,0x3f,0x00,
 0x00,0x00,0x11,0x17,0xc7,0x5f,0x00,0x00,0x00,0x11,0x1f,0xff,0x33,0x00,0x00,
 0x00,0x91,0xdf,0xff,0x0f,0x00,0x00,0x00,0xd1,0xdb,0x3f,0x0f,0x00,0x00,0x00,
 0xd1,0x1d,0xe6,0x09,0x00,0x00,0x00,0x11,0xc7,0x3f,0x08,0x00,0x00,0x00,0xd1,
 0x01,0x00,0x08,0x00,0x00,0x00,0x51,0x01,0x00,0x08,0x00,0x00,0x00,0x11,0x01,
 0x00,0x06,0x00,0x00,0x00,0x11,0x01,0x80,0x01,0x00,0x00,0x00,0x11,0x01,0x60,
 0x00,0x00,0x00,0x00,0x19,0x01,0x18,0x00,0x00,0x00,0x00,0x17,0x01,0x06,0x00,
 0x00,0x00,0x00,0x91,0x81,0x01,0x00,0x00,0x00,0x00,0x70,0x61,0x00,0x00,0x00,
 0x00,0x00,0x10,0x19,0x00,0x00,0x00,0x00,0x00,0x00,0x07,0x00,0x00,0x00,0x00,
 0x00,0x00,0x01,0x00,0x00,0x00,0x00,0x00,0x00,0x00,0x00,0x00,0x00,0x00,0x00,
 0x00,0x00,0x00,0x00,0x00,0x00,0x00,0x00,0x00,0x00,0x00,0x00,0x00,0x00,0x00,
 0x00,0x00,0x00,0x00,0x00};
