#define sound2_width 50
#define sound2_height 50

static char sound2_bits[] = {
 0x00, 0x00, 0x00, 0x00, 0x00, 0x00, 0x00, 0x00, 0x00, 0x00, 0x00, 0x00,
 0x00, 0x00, 0x00, 0x00, 0x00, 0x00, 0x00, 0x00, 0x00, 0x00, 0x00, 0x00,
 0x00, 0x00, 0x00, 0x00, 0x00, 0x00, 0x00, 0x00, 0x00, 0x00, 0x00, 0x00,
 0x00, 0x00, 0x00, 0x00, 0x00, 0x00, 0x00, 0x00, 0x00, 0x00, 0x00, 0x00,
 0x00, 0x00, 0x78, 0x00, 0x00, 0x00, 0x00, 0x00, 0x00, 0x80, 0x01, 0x04,
 0x00, 0x00, 0x00, 0x00, 0x00, 0x02, 0x0c, 0x00, 0x00, 0x00, 0x00, 0x00,
 0x02, 0x14, 0x00, 0x00, 0x00, 0x00, 0x00, 0x04, 0x04, 0x00, 0x00, 0x00,
 0x00, 0x00, 0x04, 0x07, 0x00, 0x00, 0x00, 0x00, 0x00, 0x84, 0x27, 0x00,
 0x00, 0x00, 0x00, 0x00, 0x04, 0x63, 0x00, 0x00, 0x00, 0x00, 0x00, 0x04,
 0xa0, 0x00, 0x00, 0x00, 0x00, 0x00, 0x09, 0x20, 0x00, 0x00, 0x00, 0x00,
 0x80, 0x10, 0x38, 0x00, 0x00, 0x00, 0x00, 0x80, 0x21, 0x3c, 0x00, 0x00,
 0x00, 0x00, 0x80, 0x41, 0x18, 0x00, 0x00, 0x00, 0x00, 0x00, 0x80, 0x00,
 0x06, 0x00, 0x00, 0x00, 0x00, 0x60, 0x00, 0x1a, 0x00, 0x00, 0x00, 0x00,
 0x18, 0x00, 0x26, 0x00, 0x00, 0x00, 0x00, 0x10, 0x00, 0x3a, 0x00, 0x00,
 0x00, 0x00, 0x20, 0x80, 0x23, 0x00, 0x00, 0x00, 0x00, 0x20, 0xc0, 0x23,
 0x00, 0x00, 0x00, 0x00, 0x18, 0x80, 0x20, 0x00, 0x00, 0x00, 0x00, 0x06,
 0x00, 0x38, 0x00, 0x00, 0x00, 0x00, 0x02, 0x00, 0x3c, 0x00, 0x00, 0x00,
 0x00, 0x02, 0x3c, 0x18, 0x00, 0x00, 0x00, 0x00, 0x1c, 0x56, 0x00, 0x00,
 0x00, 0x00, 0x00, 0x10, 0xab, 0x00, 0x00, 0x00, 0x00, 0x00, 0x10, 0xd5,
 0x00, 0x00, 0x00, 0x00, 0x00, 0x08, 0xeb, 0x01, 0x00, 0x00, 0x00, 0x00,
 0x08, 0x35, 0x01, 0x00, 0x00, 0x00, 0x00, 0x08, 0x9a, 0x01, 0x00, 0x00,
 0x00, 0x00, 0x07, 0xdc, 0xe2, 0x00, 0x00, 0x00, 0xc0, 0x00, 0xe0, 0x94,
 0x00, 0x00, 0x00, 0x20, 0x00, 0x80, 0x89, 0x00, 0x00, 0x00, 0x10, 0x00,
 0x00, 0xc7, 0x01, 0x00, 0x00, 0x00, 0x00, 0x00, 0x26, 0x01, 0x00, 0x00,
 0x00, 0x00, 0x00, 0x19, 0x01, 0x00, 0x00, 0x00, 0x00, 0x00, 0x89, 0x03,
 0x00, 0x00, 0x00, 0x00, 0x00, 0x45, 0x02, 0x00, 0x00, 0x00, 0x00, 0x00,
 0x00, 0x00, 0x00, 0x00, 0x00, 0x00, 0x00, 0x00, 0x00, 0x00, 0x00, 0x00,
 0x00, 0x00, 0x00, 0x00, 0x00, 0x00, 0x00, 0x00, 0x00, 0x00, 0x00, 0x00,
 0x00, 0x00, 0x00, 0x00, 0x00, 0x00, 0x00, 0x00, 0x00, 0x00, 0x00, 0x00,
 0x00, 0x00 };
