#define wingz_width 50
#define wingz_height 50

static char wingz_bits[] = {
 0x00, 0x00, 0x00, 0x00, 0x00, 0x00, 0x00, 0x00, 0x00, 0x00, 0x00, 0x00,
 0x00, 0x00, 0x00, 0x00, 0x00, 0x00, 0x00, 0x00, 0x00, 0x00, 0x00, 0x00,
 0x00, 0x00, 0x00, 0x00, 0x00, 0x00, 0x00, 0x00, 0x00, 0x00, 0x00, 0xc0,
 0xff, 0xff, 0xff, 0xff, 0x1f, 0x00, 0xc0, 0xff, 0xff, 0xff, 0xff, 0x1f,
 0x00, 0x80, 0x01, 0x00, 0x00, 0x00, 0x1c, 0x00, 0x80, 0x01, 0x00, 0x00,
 0x00, 0x0c, 0x00, 0x00, 0x03, 0x00, 0x00, 0x00, 0x16, 0x00, 0x00, 0x03,
 0x00, 0x00, 0x00, 0x0e, 0x00, 0x00, 0x06, 0x00, 0x00, 0x00, 0x07, 0x00,
 0x00, 0x06, 0x00, 0x00, 0x00, 0x0b, 0x00, 0x00, 0x0c, 0x00, 0x00, 0x80,
 0x05, 0x00, 0x00, 0x0c, 0x00, 0x00, 0x80, 0x03, 0x00, 0x00, 0x18, 0x00,
 0x00, 0xc0, 0x01, 0x00, 0x00, 0x18, 0x00, 0x00, 0xc0, 0x02, 0x00, 0xe0,
 0xff, 0xff, 0xff, 0xff, 0x1f, 0x00, 0xe0, 0xff, 0xff, 0xff, 0xff, 0x1f,
 0x00, 0x20, 0xfc, 0x88, 0x8c, 0x18, 0x10, 0x00, 0x60, 0xde, 0xd9, 0x59,
 0xe7, 0x13, 0x00, 0xe0, 0xdc, 0xdd, 0x55, 0xff, 0x19, 0x00, 0xe0, 0x9c,
 0xdd, 0x4d, 0xe3, 0x1c, 0x00, 0xe0, 0x8d, 0xdc, 0x5d, 0x77, 0x1e, 0x00,
 0xe0, 0xa9, 0x8e, 0xd8, 0x38, 0x1f, 0x00, 0xe0, 0x29, 0xfe, 0xff, 0x9f,
 0x1f, 0x00, 0xe0, 0x23, 0xfe, 0xff, 0xcf, 0x1f, 0x00, 0xe0, 0x73, 0xfe,
 0xff, 0xe7, 0x17, 0x00, 0xe0, 0x77, 0xff, 0xff, 0x03, 0x10, 0x00, 0xe0,
 0x77, 0xff, 0xff, 0xff, 0x1f, 0x00, 0xe0, 0xff, 0xff, 0xff, 0xff, 0x1f,
 0x00, 0x00, 0x00, 0x18, 0xc0, 0x01, 0x00, 0x00, 0x00, 0x00, 0x18, 0xc0,
 0x02, 0x00, 0x00, 0x00, 0x00, 0x30, 0x60, 0x01, 0x00, 0x00, 0x00, 0x00,
 0x30, 0xe0, 0x00, 0x00, 0x00, 0x00, 0x00, 0x60, 0x70, 0x00, 0x00, 0x00,
 0x00, 0x00, 0x60, 0xb0, 0x00, 0x00, 0x00, 0x00, 0x00, 0xc0, 0x58, 0x00,
 0x00, 0x00, 0x00, 0x00, 0xc0, 0x38, 0x00, 0x00, 0x00, 0x00, 0x00, 0x80,
 0x1d, 0x00, 0x00, 0x00, 0x00, 0x00, 0x80, 0x2d, 0x00, 0x00, 0x00, 0x00,
 0x00, 0x00, 0x17, 0x00, 0x00, 0x00, 0x00, 0x00, 0x00, 0x07, 0x00, 0x00,
 0x00, 0x00, 0x00, 0x00, 0x02, 0x00, 0x00, 0x00, 0x00, 0x00, 0x00, 0x02,
 0x00, 0x00, 0x00, 0x00, 0x00, 0x00, 0x00, 0x00, 0x00, 0x00, 0x00, 0x00,
 0x00, 0x00, 0x00, 0x00, 0x00, 0x00, 0x00, 0x00, 0x00, 0x00, 0x00, 0x00,
 0x00, 0x00, 0x00, 0x00, 0x00, 0x00, 0x00, 0x00, 0x00, 0x00, 0x00, 0x00,
 0x00, 0x00 };
