#define noname_width 24
#define noname_height 24
static char noname_bits[] = {
 0xff,0xff,0xff,0x01,0x00,0x80,0x01,0x00,0x80,0x01,0x3c,0x80,0x01,0x3c,0x80,
 0x01,0x3c,0x80,0x21,0x3c,0x84,0x71,0x3c,0x8e,0xf9,0x3c,0x9f,0xf9,0xbd,0x9f,
 0xf9,0xff,0x9f,0xe1,0xff,0x87,0x81,0xff,0x81,0x01,0xff,0x80,0x81,0xff,0x81,
 0xc1,0xe7,0x83,0xe1,0xe7,0x87,0xf1,0xc3,0x8f,0xe1,0xc3,0x87,0xc1,0x81,0x83,
 0x81,0x81,0x81,0x01,0x00,0x80,0x01,0x00,0x80,0xff,0xff,0xff};
