#define noname_width 24
#define noname_height 24
static char noname_bits[] = {
 0x10,0x02,0x84,0xf8,0x03,0xfe,0xac,0x02,0xab,0x56,0x8a,0x95,0x3f,0xfe,0x8f,
 0x21,0x56,0x88,0x21,0x6b,0x88,0xad,0x5f,0x8a,0xa9,0x50,0x89,0xa5,0x50,0x89,
 0xad,0x52,0x8a,0xa1,0x54,0x88,0xa1,0x52,0x88,0xa1,0x54,0x88,0xa1,0x52,0x88,
 0xa1,0x50,0x88,0xa1,0x50,0x88,0xa1,0x50,0x88,0xa1,0x50,0x88,0xad,0x56,0x8b,
 0xa1,0x50,0x48,0xad,0x56,0x2b,0xe1,0x70,0x18,0xbf,0xdf,0x0f};
