#define noname_width 24
#define noname_height 24
static char noname_bits[] = {
 0x00,0x0c,0x00,0x00,0x12,0x00,0x00,0x32,0x00,0xff,0xff,0xff,0x05,0x32,0x00,
 0x05,0x32,0x00,0x05,0x14,0x00,0xfd,0xff,0xff,0x05,0x0c,0x00,0x05,0x0a,0x00,
 0x05,0x11,0x00,0xfd,0xff,0xff,0x85,0xa8,0x01,0xc5,0x24,0x03,0xc5,0x44,0x03,
 0xfd,0xff,0xff,0xc5,0x58,0x03,0x85,0xc1,0x01,0x05,0xc3,0x00,0xff,0xff,0xff,
 0x00,0x20,0x00,0x00,0x26,0x00,0x00,0x16,0x00,0x00,0x0c,0x00};
