#define noname_width 24
#define noname_height 24
static char noname_bits[] = {
 0x07,0x10,0x00,0x18,0x30,0x00,0x20,0x50,0x00,0x40,0x10,0x00,0x40,0x9c,0x00,
 0x40,0x9e,0x11,0x40,0x8c,0x32,0x40,0xe0,0x50,0x98,0xf0,0xb0,0x1c,0x61,0xd0,
 0x04,0x02,0x90,0x00,0x04,0x9c,0x00,0x02,0x9e,0x00,0xa1,0x8c,0x00,0x52,0xe1,
 0x00,0xa9,0xf0,0x80,0x50,0x61,0x00,0xab,0x01,0x00,0xd2,0x1e,0x00,0x01,0x15,
 0x00,0x01,0x1b,0x00,0x01,0x2d,0xf0,0x80,0x26,0x0c,0x80,0x52};
