#define noname_width 24
#define noname_height 24
static char noname_bits[] = {
 0x00,0x00,0x02,0x00,0x40,0x12,0x20,0x60,0x0b,0x20,0x60,0x05,0xa4,0xdb,0x04,
 0x24,0x85,0x00,0x6c,0x0a,0x00,0xec,0x14,0x00,0x2c,0x2e,0x38,0xaa,0x51,0xec,
 0xf1,0xbf,0x85,0x38,0x40,0xff,0xc6,0xff,0x07,0x01,0x00,0x0d,0x01,0x00,0x19,
 0x01,0x00,0x33,0x02,0x00,0xde,0x04,0x00,0x30,0x08,0x00,0x0c,0x30,0x00,0x03,
 0xc0,0xc0,0x00,0x00,0x33,0x00,0x00,0x0c,0x00,0x00,0x00,0x00};
