#define /tmp/tf1_width 50
#define /tmp/tf1_height 50
static char /tmp/tf1_bits[] = {
 0x00,0x00,0x00,0x00,0x00,0x00,0x00,0x00,0x00,0x00,0x00,0x00,0x00,0x00,0x00,
 0x00,0x00,0x00,0x00,0x00,0x00,0x00,0x00,0x00,0x00,0x00,0x00,0x00,0x00,0x00,
 0x00,0x00,0x00,0x00,0x00,0x00,0x00,0x00,0x00,0x00,0x00,0x00,0x00,0x00,0x00,
 0x00,0x1c,0x00,0x00,0x00,0x00,0x00,0x00,0x23,0x00,0x00,0x00,0x00,0x00,0xe0,
 0x2c,0x00,0x00,0x00,0x00,0x00,0x1c,0x70,0x00,0x00,0x00,0x00,0x00,0x03,0x40,
 0x00,0x00,0x00,0x00,0xc0,0x00,0x80,0x00,0x00,0x00,0x00,0x30,0x08,0x80,0x07,
 0x00,0x00,0x00,0x0c,0x36,0x80,0x19,0x00,0x00,0x00,0x87,0xc1,0x80,0x15,0x00,
 0x00,0xc0,0x61,0x04,0x01,0x15,0x00,0x00,0x60,0x19,0x1a,0x82,0x1f,0x00,0x00,
 0x30,0x0a,0x21,0x62,0x01,0x00,0x00,0x0c,0x08,0xe1,0x12,0x02,0x00,0x80,0x02,
 0xb0,0x21,0x0b,0x06,0x00,0x40,0x03,0xc0,0x10,0x86,0x01,0x00,0x20,0x0c,0xc0,
 0x30,0x61,0x00,0x00,0x20,0x34,0x80,0xcc,0x18,0x00,0x00,0x20,0x48,0x80,0x03,
 0x06,0x00,0x00,0x20,0x48,0xc0,0x80,0x01,0x00,0x00,0x30,0x48,0xb8,0xe0,0x00,
 0x00,0x00,0x28,0xb0,0xe7,0x18,0x03,0x00,0x00,0x28,0xd0,0x1e,0x06,0x0c,0x00,
 0x00,0x28,0xd0,0x81,0x01,0x30,0x00,0x00,0x48,0x70,0x60,0x00,0xc0,0x00,0x00,
 0x50,0x20,0x18,0x00,0x00,0x03,0x00,0xa0,0x21,0x07,0x00,0x00,0x0c,0x00,0x20,
 0xfe,0x00,0x00,0x00,0x03,0x00,0xc0,0x00,0x00,0x00,0xc0,0x00,0x00,0x00,0x03,
 0x00,0x00,0x30,0x00,0x00,0x00,0x0c,0x00,0x00,0x0c,0x00,0x00,0x00,0x30,0x00,
 0x00,0x03,0x00,0x00,0x00,0xc0,0x00,0xc0,0x00,0x00,0x00,0x00,0x00,0x03,0x30,
 0x00,0x00,0x00,0x00,0x00,0x0c,0x0c,0x00,0x00,0x00,0x00,0x00,0x30,0x03,0x00,
 0x00,0x00,0x00,0x00,0xc0,0x00,0x00,0x00,0x00,0x00,0x00,0x00,0x00,0x00,0x00,
 0x00,0x00,0x00,0x00,0x00,0x00,0x00,0x00,0x00,0x00,0x00,0x00,0x00,0x00,0x00,
 0x00,0x00,0x00,0x00,0x00,0x00,0x00,0x00,0x00,0x00,0x00,0x00,0x00,0x00,0x00,
 0x00,0x00,0x00,0x00,0x00,0x00,0x00,0x00,0x00,0x00,0x00,0x00,0x00,0x00,0x00,
 0x00,0x00,0x00,0x00,0x00};
