#define cleff_width 50
#define cleff_height 50
static char cleff_bits[] = {
   0x00, 0x00, 0x00, 0x00, 0x00, 0x00, 0x00, 0x00, 0x00, 0x00, 0x00, 0x00,
   0x00, 0x00, 0x00, 0x00, 0x00, 0x00, 0x00, 0x00, 0x00, 0x00, 0x00, 0x00,
   0x1f, 0x00, 0x00, 0x00, 0x00, 0x00, 0x00, 0xff, 0x00, 0x00, 0x00, 0x00,
   0x00, 0x00, 0xff, 0x01, 0x00, 0x00, 0xf0, 0xff, 0xff, 0xc7, 0xff, 0x3f,
   0x00, 0x50, 0x00, 0x00, 0x87, 0x07, 0x00, 0x00, 0x50, 0x00, 0x00, 0x07,
   0x07, 0x00, 0x00, 0x50, 0x00, 0x00, 0x07, 0x0f, 0x00, 0x00, 0x50, 0x00,
   0x00, 0x07, 0x0e, 0x00, 0x00, 0x50, 0x00, 0x00, 0x07, 0x0e, 0x00, 0x00,
   0x50, 0x00, 0x00, 0x07, 0x0e, 0x00, 0x00, 0x50, 0x00, 0x00, 0x07, 0x0e,
   0x00, 0x00, 0xd0, 0xff, 0xff, 0xff, 0xff, 0x3f, 0x00, 0x50, 0x00, 0x00,
   0x87, 0x07, 0x00, 0x00, 0x50, 0x00, 0x00, 0xc7, 0x03, 0x00, 0x00, 0x50,
   0x00, 0x00, 0xf7, 0x01, 0x00, 0x00, 0x50, 0x00, 0x00, 0xff, 0x00, 0x00,
   0x00, 0x50, 0x00, 0x00, 0x3f, 0x00, 0x00, 0x00, 0x50, 0x00, 0xc0, 0x0f,
   0x00, 0x00, 0x00, 0x50, 0x00, 0xf0, 0x07, 0x00, 0x00, 0x00, 0x50, 0x00,
   0xfc, 0x07, 0x00, 0x00, 0x00, 0xd0, 0xff, 0xff, 0xff, 0xff, 0x3f, 0x00,
   0x50, 0x00, 0x1f, 0x07, 0x00, 0x00, 0x00, 0x50, 0x80, 0x07, 0x07, 0x00,
   0x00, 0x00, 0x50, 0x80, 0x83, 0x7f, 0x00, 0x00, 0x00, 0x50, 0xc0, 0xe3,
   0xff, 0x01, 0x00, 0x00, 0x50, 0xc0, 0x71, 0xe7, 0x03, 0x00, 0x00, 0x50,
   0xe0, 0x31, 0xc7, 0x03, 0x00, 0x00, 0x50, 0xe0, 0x18, 0x87, 0x07, 0x00,
   0x00, 0x50, 0xe0, 0x18, 0x07, 0x07, 0x00, 0x00, 0x50, 0xe0, 0x18, 0x07,
   0x07, 0x00, 0x00, 0xd0, 0xff, 0xff, 0xff, 0xff, 0x3f, 0x00, 0x50, 0xe0,
   0x00, 0x07, 0x07, 0x00, 0x00, 0x50, 0xc0, 0x01, 0x87, 0x07, 0x00, 0x00,
   0x50, 0xc0, 0x03, 0x87, 0x03, 0x00, 0x00, 0x50, 0x80, 0x07, 0xc7, 0x03,
   0x00, 0x00, 0x50, 0x00, 0x3f, 0xe7, 0x01, 0x00, 0x00, 0x50, 0x00, 0xfe,
   0xff, 0x00, 0x00, 0x00, 0x50, 0x00, 0xf8, 0x7f, 0x00, 0x00, 0x00, 0x50,
   0x00, 0xe0, 0x0f, 0x00, 0x00, 0x00, 0xf0, 0xff, 0xff, 0xff, 0xff, 0x3f,
   0x00, 0x00, 0x00, 0x00, 0x07, 0x00, 0x00, 0x00, 0x00, 0x00, 0xe0, 0x07,
   0x00, 0x00, 0x00, 0x00, 0x00, 0xf0, 0x07, 0x00, 0x00, 0x00, 0x00, 0x00,
   0xf0, 0x07, 0x00, 0x00, 0x00, 0x00, 0x00, 0xf0, 0x07, 0x00, 0x00, 0x00,
   0x00, 0x00, 0xe0, 0x07, 0x00, 0x00, 0x00, 0x00, 0x00, 0x00, 0x00, 0x00,
   0x00, 0x00};
