#define image_width 50
#define image_height 52
static char image_bits[] = {
 0x00,0x00,0x00,0x80,0x11,0x00,0x00,0x00,0x00,0x00,0x60,0x10,0x00,0x00,0x00,
 0x00,0x00,0x18,0x10,0x00,0x00,0x00,0x00,0x00,0x06,0x10,0x00,0x00,0x00,0x00,
 0x80,0x01,0x11,0x00,0x00,0x00,0x00,0x60,0xc0,0x10,0x00,0x00,0x00,0x00,0x18,
 0x30,0x10,0x00,0x00,0x00,0x00,0x06,0x0c,0x10,0x00,0x00,0x00,0x80,0x01,0x02,
 0x10,0x00,0x00,0x00,0x60,0x80,0x01,0x11,0x00,0x00,0x00,0x18,0x60,0xc0,0x10,
 0x00,0x00,0x00,0x08,0x18,0x70,0x10,0x00,0x00,0x00,0x08,0x86,0x28,0x10,0x00,
 0x00,0x00,0x08,0xe9,0x10,0x10,0x00,0x00,0x00,0x08,0x76,0x00,0x10,0x00,0x00,
 0x00,0x08,0x19,0x00,0x10,0x00,0x00,0x00,0x88,0x01,0x01,0x10,0x00,0x00,0x00,
 0x88,0x03,0x00,0x10,0x00,0x00,0x00,0x88,0x33,0x10,0x10,0x00,0x00,0x00,0x88,
 0x03,0x0e,0x10,0x00,0x00,0x00,0x88,0x03,0x02,0x10,0x00,0x00,0x00,0x88,0x03,
 0x30,0x10,0x00,0x00,0x00,0x88,0x07,0x1c,0x10,0x00,0x00,0x00,0x88,0x07,0x36,
 0x10,0x00,0x00,0x00,0x88,0x07,0x0f,0x10,0x00,0x00,0x00,0x88,0x0f,0x00,0x10,
 0x00,0x00,0x00,0x88,0x1f,0x00,0x10,0x00,0x00,0x00,0x88,0x1f,0x00,0x10,0x00,
 0x00,0x00,0x88,0x3f,0x00,0x10,0x00,0x00,0x00,0x88,0xff,0xc1,0x10,0x00,0x00,
 0x00,0x88,0x7f,0x70,0x10,0x00,0x00,0x00,0x88,0x1f,0x4c,0x10,0x00,0x00,0x00,
 0x88,0x07,0x43,0x10,0x00,0x00,0x00,0x88,0x81,0xc8,0x18,0x00,0x00,0x00,0x88,
 0x98,0x7e,0x06,0x00,0x00,0x00,0x08,0x86,0x88,0x01,0x00,0x00,0x00,0x08,0x99,
 0x66,0x00,0x00,0x00,0x00,0x08,0x97,0x19,0x00,0x00,0x00,0x00,0x08,0x10,0x06,
 0x0e,0x00,0x00,0x00,0x08,0x88,0x81,0x3f,0x00,0x00,0x00,0x08,0x67,0xe0,0x7f,
 0x00,0x00,0x00,0x08,0x18,0xf8,0x1f,0x00,0x00,0x00,0x08,0x06,0xfe,0x07,0x00,
 0x00,0x00,0x88,0x81,0xff,0x01,0x00,0x00,0x00,0x68,0xe0,0x7f,0x00,0x00,0x00,
 0x00,0x18,0xf8,0x1f,0x00,0x00,0x00,0x00,0x00,0xfe,0x07,0x00,0x00,0x00,0x00,
 0x80,0xff,0x01,0x00,0x00,0x00,0x00,0xe0,0x7f,0x00,0x00,0x00,0x00,0x00,0xf8,
 0x1f,0x00,0x00,0x00,0x00,0x00,0xfc,0x07,0x00,0x00,0x00,0x00,0x00,0xf0,0x01,
 0x00,0x00,0x00,0x00};
