#define jot_width 50
#define jot_height 50
static char jot_bits[] = {
   0x00, 0x00, 0x00, 0x00, 0x00, 0x00, 0x00, 0x00, 0x00, 0x00, 0x00, 0x00,
   0x00, 0x00, 0x00, 0x00, 0x00, 0x88, 0x00, 0x00, 0x00, 0x00, 0x00, 0x00,
   0xf6, 0x02, 0x30, 0x00, 0x00, 0x00, 0xe0, 0xda, 0x0b, 0x48, 0x00, 0x00,
   0x00, 0x20, 0x67, 0x0f, 0x8e, 0x00, 0x00, 0x00, 0x90, 0x9d, 0x09, 0x8a,
   0x00, 0x00, 0x80, 0x77, 0x6e, 0x09, 0xfb, 0x00, 0x00, 0x80, 0x98, 0x19,
   0x89, 0x64, 0x00, 0x00, 0x40, 0x76, 0x8e, 0xc8, 0x18, 0x00, 0x00, 0xc0,
   0xb9, 0x09, 0xa8, 0x10, 0x00, 0x00, 0x60, 0x66, 0x08, 0x98, 0x08, 0x00,
   0x00, 0x90, 0x39, 0x00, 0x18, 0x07, 0x00, 0x00, 0x50, 0x26, 0x00, 0x08,
   0x02, 0x00, 0x00, 0x50, 0x21, 0x00, 0x14, 0x01, 0x00, 0x00, 0x50, 0x01,
   0x00, 0x8a, 0x00, 0x00, 0x00, 0x50, 0x01, 0x00, 0x45, 0x00, 0x00, 0x00,
   0x50, 0x01, 0x80, 0x22, 0x00, 0x00, 0x00, 0x50, 0x41, 0x40, 0x11, 0x00,
   0x00, 0x00, 0x50, 0x41, 0xa0, 0x10, 0x00, 0x00, 0x00, 0x50, 0x41, 0x60,
   0x08, 0x00, 0x00, 0x00, 0x50, 0x41, 0x30, 0x0c, 0x00, 0x00, 0x00, 0x50,
   0x41, 0x18, 0x0a, 0x00, 0x00, 0x00, 0x50, 0x41, 0x0c, 0x09, 0x00, 0x00,
   0x00, 0x50, 0x41, 0x86, 0x08, 0x00, 0x00, 0x00, 0x50, 0x41, 0x4a, 0x08,
   0x00, 0x00, 0x00, 0x50, 0x41, 0x39, 0x08, 0x00, 0x00, 0x00, 0x50, 0x41,
   0x19, 0x08, 0x00, 0x00, 0x00, 0x50, 0xc1, 0x06, 0x08, 0x00, 0x00, 0x00,
   0x50, 0xc1, 0x01, 0x08, 0x00, 0x00, 0x00, 0x50, 0x01, 0x00, 0x08, 0x00,
   0x00, 0x00, 0x50, 0x01, 0x00, 0x08, 0x00, 0x00, 0x00, 0x50, 0x01, 0x00,
   0x08, 0x00, 0x00, 0x00, 0x50, 0x01, 0x00, 0x0c, 0x00, 0x00, 0x00, 0x50,
   0x01, 0x00, 0x03, 0x00, 0x00, 0x00, 0x50, 0x01, 0xc0, 0x00, 0x00, 0x00,
   0x00, 0x50, 0x01, 0x30, 0x00, 0x00, 0x00, 0x00, 0x50, 0x01, 0x0c, 0x00,
   0x00, 0x00, 0x00, 0x50, 0x01, 0x03, 0x00, 0x00, 0x00, 0x00, 0x70, 0xc1,
   0x00, 0x00, 0x00, 0x00, 0x00, 0xd0, 0x31, 0x00, 0x00, 0x00, 0x00, 0x00,
   0x40, 0x0d, 0x00, 0x00, 0x00, 0x00, 0x00, 0x00, 0x03, 0x00, 0x00, 0x00,
   0x00, 0x00, 0x00, 0x00, 0x00, 0x00, 0x00, 0x00, 0x00, 0x00, 0x00, 0x00,
   0x00, 0x00, 0x00, 0x00, 0x00, 0x00, 0x00, 0x00, 0x00, 0x00, 0x00, 0x00,
   0x00, 0x00, 0x00, 0x00, 0x00, 0x00, 0x00, 0x00, 0x00, 0x00, 0x00, 0x00,
   0x00, 0x00, 0x00, 0x00, 0x00, 0x00, 0x00, 0x00, 0x00, 0x00, 0x00, 0x00,
   0x00, 0x00};
