#define showcase_width 50
#define showcase_height 50
static char showcase_bits[] = {
 0x00,0x00,0x00,0x00,0x00,0x00,0x00,0x00,0x00,0x00,0x00,0x00,0x00,0x00,0x00,
 0x00,0x00,0x10,0x00,0x00,0x00,0x00,0x00,0x00,0x18,0x00,0x00,0x00,0x00,0x00,
 0x00,0x28,0x00,0x00,0x00,0x00,0x00,0x00,0x28,0x00,0x00,0x00,0x00,0x00,0x00,
 0x28,0x00,0x00,0x00,0x00,0x00,0x00,0xe7,0x0f,0x00,0x00,0x00,0x00,0xe0,0x46,
 0xf0,0x00,0x00,0x00,0x00,0x1c,0x56,0x00,0x01,0x00,0x00,0x00,0x03,0x56,0x00,
 0x02,0x00,0x00,0x00,0x03,0x56,0x00,0x02,0x00,0x00,0x80,0x80,0xb7,0x03,0x04,
 0x00,0x00,0x40,0xe0,0xaf,0x05,0x04,0x00,0x00,0x20,0xfc,0xa9,0x05,0x04,0x00,
 0x00,0x18,0xfe,0x49,0x06,0x04,0x00,0x00,0x04,0xff,0x49,0x06,0x04,0x00,0x00,
 0x04,0xff,0xb7,0x03,0x02,0x00,0x00,0x04,0xff,0xb7,0x03,0x02,0x00,0x00,0x02,
 0x03,0x7f,0x00,0x02,0x00,0x00,0x02,0x0e,0x1e,0x00,0x01,0x00,0x00,0x02,0xf0,
 0x01,0xfc,0x00,0x00,0x00,0x02,0x00,0x80,0x0f,0x00,0x00,0x00,0x02,0x00,0xe0,
 0x0f,0x00,0x00,0x00,0x02,0x00,0xe0,0x0f,0x00,0x00,0x00,0x04,0x00,0xb8,0x0f,
 0x00,0x00,0x00,0x18,0x00,0xbf,0x0f,0x00,0x00,0x00,0x20,0xc0,0x7f,0x0e,0x00,
 0x00,0x00,0xc0,0xbf,0x7f,0x1e,0x00,0x00,0x00,0x00,0x8d,0x7f,0x1e,0x00,0x00,
 0x00,0x00,0x83,0x7f,0x1e,0x00,0x00,0x00,0x00,0x83,0x7f,0x1e,0x00,0x00,0x00,
 0x00,0x03,0x7f,0x3e,0x00,0x00,0x00,0x00,0x83,0xff,0x3d,0x00,0x00,0x00,0x00,
 0x8d,0xff,0x3d,0x00,0x00,0x00,0x80,0x0d,0xff,0x1b,0x00,0x00,0x00,0x80,0x8d,
 0xff,0x17,0x00,0x00,0x00,0x80,0x8e,0xff,0x0f,0x00,0x00,0x00,0x80,0x8e,0xff,
 0x0f,0x00,0x00,0x00,0x80,0xcf,0xff,0x07,0x00,0x00,0x00,0x00,0x8f,0xff,0x03,
 0x00,0x00,0x00,0x00,0xfc,0x7f,0x00,0x00,0x00,0x00,0x00,0x00,0x00,0x00,0x00,
 0x00,0x00,0x00,0x00,0x00,0x00,0x00,0x00,0x00,0x00,0x00,0x00,0x00,0x00,0x00,
 0x00,0x00,0x00,0x00,0x00,0x00,0x00,0x00,0x00,0x00,0x00,0x00,0x00,0x00,0x00,
 0x00,0x00,0x00,0x00,0x00,0x00,0x00,0x00,0x00,0x00,0x00,0x00,0x00,0x00,0x00,
 0x00,0x00,0x00,0x00,0x00};
