#define soundeditor_width 50
#define soundeditor_height 50
static unsigned char soundeditor_bits[] = {
   0x00, 0x00, 0x00, 0x00, 0x00, 0x00, 0x00, 0x00, 0x00, 0x00, 0x00, 0x00,
   0x00, 0x00, 0x00, 0x00, 0x00, 0x00, 0x00, 0x00, 0x00, 0x00, 0x00, 0x00,
   0x00, 0x40, 0x00, 0x00, 0x00, 0x00, 0x00, 0x00, 0x40, 0x02, 0x00, 0x00,
   0x00, 0x40, 0x00, 0x40, 0x07, 0x00, 0x00, 0x00, 0x60, 0x01, 0x60, 0x01,
   0x00, 0x00, 0x00, 0xc0, 0x00, 0xa0, 0x09, 0x00, 0x00, 0x00, 0x80, 0x01,
   0xa2, 0x01, 0x00, 0x00, 0x00, 0x80, 0x02, 0x92, 0x00, 0x00, 0x00, 0x00,
   0x80, 0xc2, 0x96, 0x00, 0x00, 0x00, 0x03, 0x00, 0xc3, 0x15, 0x00, 0x00,
   0x00, 0x00, 0x00, 0x25, 0x15, 0x00, 0x00, 0x00, 0x03, 0x00, 0x2a, 0x0c,
   0x00, 0x00, 0x00, 0x00, 0x00, 0x0e, 0x08, 0x00, 0x00, 0x00, 0x03, 0x00,
   0x12, 0x08, 0x00, 0x00, 0x80, 0x02, 0x00, 0x1c, 0xc0, 0x07, 0x00, 0x80,
   0x22, 0x11, 0x20, 0x60, 0x0d, 0x00, 0x00, 0x23, 0x19, 0x58, 0xa0, 0x3f,
   0x00, 0x80, 0x22, 0x17, 0x50, 0xfc, 0xe0, 0x00, 0x80, 0x62, 0x03, 0xe8,
   0xc2, 0xe0, 0x00, 0xc0, 0xe2, 0xff, 0xff, 0x7b, 0x81, 0x00, 0xc0, 0xd5,
   0xab, 0x80, 0x95, 0xfe, 0x00, 0xc8, 0xd4, 0x78, 0xbf, 0x05, 0xaf, 0x00,
   0xe8, 0xd4, 0x14, 0xd2, 0x06, 0x18, 0x00, 0xd8, 0x94, 0x05, 0x82, 0x07,
   0x00, 0x00, 0xdc, 0x94, 0x00, 0x84, 0x2c, 0x00, 0x00, 0x70, 0xb4, 0x00,
   0x84, 0x2e, 0x00, 0x00, 0x96, 0x18, 0x00, 0x08, 0x54, 0x00, 0x00, 0x64,
   0x16, 0x00, 0x60, 0xec, 0x01, 0x00, 0x84, 0x09, 0x00, 0x80, 0x95, 0x05,
   0x00, 0x40, 0x08, 0x00, 0x00, 0x1e, 0x05, 0x00, 0x20, 0x08, 0x00, 0x00,
   0x34, 0x07, 0x00, 0x40, 0x08, 0x00, 0x00, 0x68, 0x12, 0x00, 0x60, 0x08,
   0x00, 0x00, 0xc8, 0x0b, 0x00, 0xc0, 0x00, 0x00, 0x00, 0xb0, 0x1b, 0x00,
   0x80, 0x01, 0x00, 0x00, 0x40, 0x05, 0x00, 0x00, 0x03, 0x00, 0x00, 0x80,
   0x0f, 0x00, 0x00, 0x06, 0x00, 0x00, 0xc0, 0x01, 0x00, 0x00, 0x0c, 0x00,
   0x00, 0x70, 0x00, 0x00, 0x00, 0x18, 0x00, 0x00, 0x1c, 0x00, 0x00, 0x00,
   0x30, 0x00, 0x00, 0x07, 0x00, 0x00, 0x00, 0xc0, 0x00, 0xe0, 0x01, 0x00,
   0x00, 0x00, 0x80, 0x01, 0x38, 0x00, 0x00, 0x00, 0x00, 0x00, 0x06, 0x1e,
   0x00, 0x00, 0x00, 0x00, 0x00, 0x9c, 0x03, 0x00, 0x00, 0x00, 0x00, 0x00,
   0xf0, 0x00, 0x00, 0x00, 0x00, 0x00, 0x00, 0x00, 0x00, 0x00, 0x00, 0x00,
   0x00, 0x00, 0x00, 0x00, 0x00, 0x00, 0x00, 0x00, 0x00, 0x00, 0x00, 0x00,
   0x00, 0x00};
