#define noname_width 24
#define noname_height 24
static char noname_bits[] = {
 0x00,0x00,0x60,0x00,0x78,0x70,0x00,0x86,0x29,0x80,0x01,0x1e,0x60,0x00,0x1a,
 0x18,0x00,0x65,0x04,0x80,0x82,0xfc,0x7f,0xff,0x04,0xa0,0x80,0xf4,0x50,0xb8,
 0x04,0x28,0xb8,0x74,0x14,0xb8,0x04,0x0a,0x80,0x04,0xfd,0x81,0x84,0x02,0x80,
 0x44,0xfd,0x81,0xa4,0x00,0x80,0x54,0xf0,0x81,0x2c,0x00,0x80,0xf4,0xff,0xff,
 0x0a,0x00,0x00,0x06,0x00,0x00,0x01,0x00,0x00,0x00,0x00,0x00};
