#define noname_width 24
#define noname_height 24
static char noname_bits[] = {
 0x47,0x00,0x03,0x20,0x80,0x03,0x27,0x40,0x01,0x10,0xe0,0x00,0x20,0x5e,0x00,
 0x20,0xe9,0x00,0xc0,0x34,0x03,0x4f,0x4a,0x06,0x20,0x45,0x0a,0xcf,0x0e,0x08,
 0x60,0x0f,0x08,0x97,0x0f,0x10,0x30,0x07,0x10,0x28,0x02,0x10,0x58,0x00,0x20,
 0x44,0x00,0xc0,0x80,0x00,0xc0,0x01,0x01,0xc0,0x02,0x02,0xc0,0x02,0x0c,0xc0,
 0x04,0x30,0xa0,0x02,0xc0,0xd8,0x02,0x80,0xe7,0x01,0x00,0xff};
