#define noname_width 24
#define noname_height 24
static char noname_bits[] = {
 0xe0,0x03,0x00,0xf8,0x0f,0x00,0x1c,0x1c,0x00,0x0e,0x38,0x00,0xf6,0x3f,0x00,
 0x0b,0x60,0x00,0xeb,0xe7,0xff,0x0b,0x60,0x80,0xeb,0x67,0xbd,0x0b,0x60,0xba,
 0xee,0x30,0xb8,0x0e,0xf8,0x81,0x1c,0x5c,0x80,0xf8,0x8f,0x81,0xf0,0x93,0x83,
 0x20,0xf0,0x87,0x20,0x60,0x8f,0xe0,0xff,0xfe,0x00,0x80,0x3d,0x00,0x00,0x7b,
 0x00,0x00,0x76,0x00,0x00,0x7c,0x00,0x00,0x38,0x00,0x00,0x00};
