#define noname_width 24
#define noname_height 24
static char noname_bits[] = {
 0x00,0x00,0x00,0xc0,0x00,0x00,0xf0,0x03,0x00,0xf8,0x0f,0x00,0xfc,0x1f,0x00,
 0xfc,0x3f,0x00,0xfe,0x47,0x00,0xfe,0xa7,0x00,0xff,0xb1,0x01,0xff,0xc9,0x02,
 0xf9,0x74,0x02,0xe0,0x36,0x02,0xc9,0x19,0x02,0x81,0x0e,0x02,0x08,0x07,0x02,
 0x09,0xfe,0x05,0x03,0xfc,0x0b,0x0b,0x00,0x17,0x1b,0x00,0x2e,0x18,0x00,0x5c,
 0x18,0x00,0xb8,0x00,0x00,0xf0,0x00,0x00,0xe0,0x00,0x00,0x00};
