#define noname_width 24
#define noname_height 24
static char noname_bits[] = {
 0x00,0x00,0x00,0x00,0x8c,0x01,0x00,0x52,0x02,0xc0,0xff,0x1f,0x40,0x63,0x38,
 0x40,0x63,0x58,0x20,0x00,0x54,0x20,0x15,0x54,0x90,0x0a,0x52,0x10,0x00,0x52,
 0x48,0x15,0x51,0xa4,0x8a,0x52,0x02,0x60,0x50,0xff,0x7f,0x50,0x40,0xe6,0x51,
 0x40,0x66,0x52,0x40,0x66,0x52,0x40,0xcf,0x51,0x40,0x00,0x50,0x40,0x00,0x50,
 0xc0,0xff,0x5f,0x80,0x00,0x40,0x00,0xff,0x7f,0x00,0x00,0x00};
