#define noname_width 24
#define noname_height 24
static char noname_bits[] = {
 0xff,0x1f,0x00,0x01,0x10,0x30,0x01,0x10,0x38,0xf9,0xff,0x14,0x09,0x80,0x0e,
 0xe9,0x81,0x05,0x09,0x80,0x02,0xe9,0x41,0x01,0x09,0xa0,0x00,0xc9,0xdf,0x00,
 0x09,0xa8,0x00,0xc9,0x97,0x00,0x09,0x8a,0x00,0xc9,0x85,0x00,0x89,0xfe,0xff,
 0x49,0x0d,0xc0,0xaf,0x14,0xa0,0x58,0x24,0x90,0x28,0x44,0x88,0xf4,0xc7,0x8c,
 0x0a,0x24,0x93,0x06,0x14,0xa0,0x01,0x0c,0xc0,0x00,0xfc,0xff};
