#define noname_width 24
#define noname_height 24
static char noname_bits[] = {
 0xfe,0x1f,0x00,0x02,0x28,0x00,0x3a,0x48,0x00,0x12,0x78,0x00,0x3a,0x40,0x00,
 0x02,0xff,0x0f,0x02,0x01,0x14,0x02,0x1d,0x24,0xfa,0x09,0x3c,0x02,0x1d,0x20,
 0xfa,0x01,0x20,0x02,0x01,0x20,0xfa,0xfd,0x23,0x02,0x01,0x20,0x02,0xfd,0x21,
 0x02,0x01,0x20,0x02,0xfd,0x27,0x02,0x01,0x20,0xfe,0xfd,0x21,0x00,0x01,0x20,
 0x00,0x01,0x20,0x00,0x81,0x27,0x00,0x01,0x20,0x00,0xff,0x3f};
