#define noname_width 24
#define noname_height 24
static char noname_bits[] = {
 0x00,0x00,0x00,0x00,0x00,0x00,0xf0,0xff,0x0f,0x10,0x00,0x08,0xd0,0xa1,0x0b,
 0x10,0x40,0x0b,0xd0,0x01,0x08,0x18,0x00,0x18,0x16,0x7c,0x68,0x11,0x00,0x88,
 0x17,0x7c,0xe8,0x19,0x00,0x98,0xe1,0xff,0x87,0x81,0x81,0x81,0x81,0x7e,0x81,
 0x41,0x00,0x82,0x21,0x00,0x84,0x11,0x00,0x88,0x09,0x00,0x90,0x05,0x00,0xa0,
 0x03,0x00,0xc0,0xff,0xff,0xff,0x00,0x00,0x00,0x00,0x00,0x00};
