#define noname_width 24
#define noname_height 24
static char noname_bits[] = {
 0x00,0x00,0x00,0x00,0xe0,0x7f,0x00,0xe0,0x7f,0x00,0x00,0x09,0x00,0x00,0x09,
 0xfe,0x0f,0x09,0x02,0x08,0x09,0xfe,0x0f,0x09,0xfc,0x07,0x09,0x54,0x05,0x09,
 0xaa,0x0a,0x09,0x55,0x15,0x09,0xfb,0x1f,0x0f,0x0d,0x14,0x06,0x0b,0x1c,0x07,
 0x0d,0x14,0x0f,0x0b,0x1c,0x0d,0x0d,0x14,0x0e,0x0b,0x1c,0x07,0xfd,0x17,0x03,
 0xab,0x1a,0x02,0x55,0x15,0x00,0xfe,0x0f,0x00,0x00,0x00,0x00};
