#define noname_width 24
#define noname_height 24
static char noname_bits[] = {
 0x00,0xf8,0x03,0x9f,0x07,0x7c,0x67,0x00,0x80,0x13,0xc0,0x7f,0x0b,0x20,0x01,
 0x0b,0x28,0x02,0x0b,0x70,0x02,0x13,0x60,0x02,0xe7,0x80,0x03,0x1f,0x0f,0x01,
 0x0f,0xf0,0x00,0x00,0x00,0x00,0x00,0x00,0x00,0xc0,0x1f,0x00,0x3e,0xe0,0xf9,
 0x01,0x00,0xe6,0xfe,0x03,0xc8,0x80,0x04,0xd0,0x40,0x14,0xd0,0x40,0x0e,0xd0,
 0x40,0x06,0xc8,0xc0,0x01,0xe7,0x80,0xf0,0xf8,0x00,0x0f,0xf0};
