#define bruch_width 16
#define bruch_height 16
#define bruch_x_hot 6
#define bruch_y_hot 1
static unsigned char bruch_bits[] = {
   0x02, 0x00, 0x06, 0x00, 0x1e, 0x00, 0x3e, 0x00, 0x7e, 0x00, 0xf4, 0x00,
   0xf4, 0x00, 0xe8, 0x00, 0x70, 0x01, 0x80, 0x03, 0x00, 0x07, 0x00, 0x0e,
   0x00, 0x1c, 0x00, 0x38, 0x00, 0x70, 0x00, 0x20};
