#define check_mk_width 10
#define check_mk_height 10
static unsigned char check_mk_bits[] = {
   0x00, 0x00, 0x00, 0x02, 0x00, 0x03, 0x80, 0x01, 0xc0, 0x00, 0x60, 0x00,
   0x31, 0x00, 0x1b, 0x00, 0x0e, 0x00, 0x04, 0x00};
