#define droptarg_width 15
#define droptarg_height 15
static unsigned char droptarg_bits[] = {
   0xff, 0x7f, 0xff, 0x3f, 0xff, 0x1f, 0x57, 0x05, 0xaf, 0x0a, 0x57, 0x05,
   0xaf, 0x0a, 0x57, 0x05, 0xaf, 0x0a, 0x57, 0x05, 0xaf, 0x0a, 0x57, 0x05,
   0x07, 0x00, 0x03, 0x00, 0x01, 0x00};
