#define filters_width 50
#define filters_height 50
static unsigned char filters_bits[] = {
 0x00,0x00,0x00,0x00,0x00,0x00,0x00,0x80,0xff,0xff,0xff,0xff,0x7f,0x00,0x80,
 0x01,0x00,0x00,0x00,0xe0,0x00,0x80,0x02,0x00,0x00,0x00,0x50,0x01,0x80,0xfc,
 0xff,0xff,0xff,0xef,0x00,0x80,0x04,0x00,0x00,0x00,0x58,0x01,0x80,0xf4,0xff,
 0xff,0xff,0xeb,0x00,0x80,0xf4,0x00,0x92,0x80,0x5b,0x01,0x80,0x74,0x00,0x49,
 0xc0,0xeb,0x00,0x80,0x44,0x00,0x49,0x40,0x58,0x01,0x80,0x3c,0x80,0x24,0xe0,
 0xef,0x00,0x80,0x2a,0x80,0x24,0x60,0x55,0x01,0x80,0x15,0x40,0x12,0xb0,0xea,
 0x00,0x80,0x1f,0x40,0x12,0xf0,0x7f,0x01,0x00,0x0d,0x00,0x00,0xa8,0xaa,0x00,
 0x00,0x0a,0x00,0x00,0x58,0x55,0x01,0x00,0x24,0x01,0x00,0xac,0x00,0x00,0x00,
 0x24,0x01,0x00,0x54,0x00,0x00,0x00,0x92,0x00,0x00,0x2a,0x00,0x00,0x00,0x92,
 0x00,0x00,0x16,0x00,0x00,0x00,0x01,0x00,0x00,0x0b,0x00,0x00,0x00,0xff,0xff,
 0xff,0x05,0x00,0x00,0x00,0x50,0xf5,0xab,0x02,0x00,0x00,0x00,0xa8,0xfa,0x57,
 0x01,0x00,0x00,0x00,0x00,0x3c,0x0f,0x00,0x00,0x00,0x00,0x40,0x0e,0x9c,0x00,
 0x00,0x00,0x00,0x60,0x03,0xb0,0x01,0x00,0x00,0x00,0xe0,0x00,0xc0,0x01,0x00,
 0x00,0x00,0xf0,0x01,0xe0,0x03,0x00,0x00,0x00,0x70,0x00,0x80,0x03,0x00,0x00,
 0x00,0x18,0xe0,0x03,0x06,0xf8,0x00,0x00,0x00,0x20,0x04,0x00,0x08,0x01,0x80,
 0xff,0x3f,0xe4,0xff,0x0f,0x01,0x40,0x00,0x00,0x14,0x00,0x00,0x01,0x40,0x00,
 0x00,0x14,0x00,0x00,0x01,0x40,0x00,0x00,0x14,0x00,0x00,0x01,0xfe,0xff,0x9f,
 0xff,0xff,0x07,0x01,0x02,0x00,0x90,0x00,0x00,0x04,0x01,0x04,0x00,0x20,0x01,
 0x00,0x08,0x01,0x04,0x00,0x20,0x01,0x00,0x08,0x01,0x08,0x00,0x40,0x02,0x00,
 0x10,0x01,0x08,0x00,0x40,0x02,0x00,0x10,0x01,0x10,0x00,0x80,0x04,0x00,0x20,
 0x01,0x10,0x00,0x80,0x04,0x00,0x20,0x01,0x20,0x00,0x00,0x0d,0x00,0x40,0x01,
 0x20,0x00,0x00,0x0d,0x00,0x40,0x01,0x40,0x00,0x00,0x16,0x00,0x80,0x01,0xc0,
 0xff,0xff,0xf7,0xff,0xff,0x01,0x00,0x00,0x00,0x00,0x00,0x00,0x00,0x00,0x00,
 0x00,0x00,0x00,0x00,0x00};
