#define folder_width 50
#define folder_height 50
static unsigned char folder_bits[] = {
 0x00,0x00,0x00,0x00,0x00,0x00,0x00,0x00,0x00,0x00,0x00,0x00,0x00,0x00,0x00,
 0xfc,0xff,0xff,0x00,0x00,0x00,0x00,0x02,0x00,0xe0,0x00,0x00,0x00,0x00,0x01,
 0x00,0xb0,0x00,0x00,0x00,0x80,0x00,0x00,0xd8,0x00,0x00,0x00,0x40,0x00,0x00,
 0xac,0x00,0x00,0x00,0x20,0x00,0x00,0xd6,0x00,0x00,0x00,0xf0,0xff,0xff,0xab,
 0x00,0x00,0x00,0x10,0x00,0x00,0xd6,0x00,0x00,0x00,0x10,0x00,0x00,0xaa,0x00,
 0x00,0x00,0x90,0xff,0x7f,0xd6,0x00,0x00,0x00,0x90,0xff,0x7f,0xaa,0x00,0x00,
 0x00,0x90,0xff,0x7f,0xd6,0x00,0x00,0x00,0x90,0x01,0x40,0xaa,0x00,0x00,0x00,
 0xd0,0xff,0x5f,0xd6,0x00,0x00,0x00,0x50,0x00,0x50,0xaa,0x00,0x00,0x00,0xfe,
 0xff,0x77,0xd6,0x00,0x00,0x00,0x02,0x00,0x55,0xaa,0x00,0x00,0x00,0x02,0x00,
 0x4d,0xd6,0x00,0x00,0x00,0xe2,0x1f,0x45,0xaa,0x00,0x00,0x00,0x22,0x10,0x63,
 0xd6,0x00,0x00,0x00,0xe2,0x1f,0x51,0xaa,0x00,0x00,0x00,0x02,0x00,0x49,0xd6,
 0x00,0x00,0x00,0x02,0x00,0x45,0xaa,0x00,0x00,0x00,0x02,0x00,0x63,0xd6,0x00,
 0x00,0x00,0x02,0x00,0x11,0xaa,0x00,0x00,0x00,0x82,0x07,0x09,0xd6,0x00,0x00,
 0x00,0x02,0x00,0x7d,0xaa,0x00,0x00,0x00,0x02,0x00,0x43,0xd6,0x00,0x00,0x00,
 0x02,0x00,0x41,0xaa,0x00,0x00,0x00,0xfe,0xff,0x41,0xd6,0x00,0x00,0x00,0x90,
 0xf8,0x47,0xaa,0x00,0x00,0x00,0x90,0x08,0x44,0xd6,0x00,0x00,0x00,0x90,0xf8,
 0x47,0xaa,0x00,0x00,0x00,0x90,0x00,0x40,0xd6,0x00,0x00,0x00,0x90,0x00,0x40,
 0xaa,0x00,0x00,0x00,0x90,0x00,0x40,0xd6,0x00,0x00,0x00,0x90,0x00,0x40,0xaa,
 0x00,0x00,0x00,0x90,0xe0,0x41,0xd6,0xaa,0xaa,0x00,0x90,0x00,0x40,0x6a,0x55,
 0x55,0x00,0x90,0x00,0x40,0xb6,0xaa,0x2a,0x00,0x90,0xff,0x7f,0x5a,0x55,0x15,
 0x00,0x10,0x00,0x00,0xae,0xaa,0x0a,0x00,0x10,0x00,0x00,0x56,0x55,0x05,0x00,
 0xf0,0xff,0xff,0xab,0xaa,0x02,0x00,0x40,0x55,0x55,0x55,0x55,0x01,0x00,0x00,
 0x00,0x00,0x00,0x00,0x00,0x00,0x00,0x00,0x00,0x00,0x00,0x00,0x00,0x00,0x00,
 0x00,0x00,0x00,0x00,0x00};
