#define help_width 50
#define help_height 50
static unsigned char help_bits[] = {
 0x00,0x00,0x00,0x00,0x00,0x00,0x00,0x00,0x00,0x00,0x00,0x00,0x00,0x00,0x00,
 0x00,0x00,0x00,0x00,0x00,0x00,0x00,0x00,0xf8,0x0f,0x00,0x00,0x00,0x00,0x00,
 0xff,0x7f,0x00,0x00,0x00,0x00,0xc0,0xff,0xff,0x01,0x00,0x00,0x00,0xf0,0xaf,
 0xfa,0x07,0x00,0x00,0x00,0xf8,0x15,0xd4,0x0f,0x00,0x00,0x00,0xbc,0x00,0x80,
 0x1e,0x00,0x00,0x00,0x5e,0x00,0x00,0x3c,0x00,0x00,0x00,0x2f,0xe0,0x00,0x78,
 0x00,0x00,0x80,0x17,0xf0,0x01,0xf0,0x00,0x00,0xc0,0x0b,0xf8,0x03,0xe0,0x01,
 0x00,0xe0,0x05,0xf8,0x07,0xc0,0x03,0x00,0xe0,0x02,0xf8,0x0b,0x80,0x03,0x00,
 0xe0,0x01,0xf0,0x05,0x80,0x07,0x00,0xf0,0x00,0xe0,0x0a,0x00,0x0f,0x00,0x70,
 0x01,0x40,0x05,0x00,0x07,0x00,0xf0,0x00,0x80,0x02,0x00,0x0f,0x00,0x78,0x00,
 0xf8,0x03,0x00,0x1e,0x00,0xb8,0x00,0xf8,0x03,0x00,0x0e,0x00,0x78,0x00,0xf8,
 0x07,0x00,0x1e,0x00,0xb8,0x00,0xe0,0x0b,0x00,0x2e,0x00,0x78,0x00,0xe0,0x07,
 0x00,0x1e,0x00,0xb8,0x00,0xe0,0x0b,0x00,0x2e,0x00,0x78,0x00,0xe0,0x07,0x00,
 0x1e,0x00,0xb8,0x00,0xe0,0x0b,0x00,0x2e,0x00,0x78,0x00,0xe0,0x07,0x00,0x1e,
 0x00,0xf0,0x00,0xe0,0x0b,0x00,0x2f,0x00,0x70,0x00,0xe0,0x07,0x00,0x17,0x00,
 0xf0,0x00,0xe0,0x0b,0x00,0x0f,0x00,0xe0,0x01,0xe0,0x07,0x80,0x17,0x00,0xe0,
 0x00,0xe0,0x0b,0x80,0x0b,0x00,0xc0,0x01,0xf8,0x0f,0xc0,0x05,0x00,0xc0,0x03,
 0xf8,0x0f,0xe0,0x0b,0x00,0x80,0x07,0xf8,0x1f,0xf0,0x05,0x00,0x00,0x0f,0xa0,
 0x2a,0xf8,0x02,0x00,0x00,0x1e,0x40,0x15,0x7c,0x01,0x00,0x00,0x3c,0x00,0x00,
 0xbe,0x00,0x00,0x00,0xf8,0x00,0x80,0x5f,0x00,0x00,0x00,0xf0,0x07,0xf0,0x2f,
 0x00,0x00,0x00,0xc0,0xff,0xff,0x15,0x00,0x00,0x00,0x80,0xff,0xff,0x0a,0x00,
 0x00,0x00,0x00,0xfd,0x5f,0x05,0x00,0x00,0x00,0x00,0xa8,0xaa,0x00,0x00,0x00,
 0x00,0x00,0x40,0x15,0x00,0x00,0x00,0x00,0x00,0x00,0x00,0x00,0x00,0x00,0x00,
 0x00,0x00,0x00,0x00,0x00,0x00,0x00,0x00,0x00,0x00,0x00,0x00,0x00,0x00,0x00,
 0x00,0x00,0x00,0x00,0x00};
