#define options_width 50
#define options_height 50
static unsigned char options_bits[] = {
 0x00,0x00,0x00,0x00,0x00,0x00,0x00,0x00,0x00,0x00,0x00,0x00,0x00,0x00,0x00,
 0x00,0x00,0x00,0x00,0x00,0x00,0xf8,0xff,0x0f,0xf8,0xff,0x0f,0x00,0x08,0x00,
 0x18,0x08,0x00,0x18,0x00,0x08,0x00,0x28,0x08,0x00,0x78,0x00,0x08,0x00,0x18,
 0x08,0x00,0x3c,0x00,0x08,0x00,0x28,0x08,0x00,0x3e,0x00,0x08,0x00,0x18,0x08,
 0x00,0x1f,0x00,0x08,0x00,0x28,0x08,0x80,0x2b,0x00,0x08,0x00,0x18,0x08,0xc0,
 0x19,0x00,0x08,0x00,0x28,0x08,0xe0,0x28,0x00,0x08,0x00,0x18,0xc8,0x70,0x18,
 0x00,0x08,0x00,0x28,0xe8,0x39,0x28,0x00,0x08,0x00,0x18,0xe8,0x1d,0x18,0x00,
 0x08,0x00,0x28,0xc8,0x1f,0x28,0x00,0x08,0x00,0x18,0x88,0x0f,0x18,0x00,0x08,
 0x00,0x28,0x08,0x0f,0x28,0x00,0x08,0x00,0x18,0x08,0x06,0x18,0x00,0x08,0x00,
 0x28,0x08,0x00,0x28,0x00,0xf8,0xff,0x1f,0xf8,0xff,0x1f,0x00,0xa8,0xaa,0x2a,
 0xa8,0xaa,0x2a,0x00,0x50,0x55,0x15,0x50,0x55,0x15,0x00,0x00,0x00,0x00,0x00,
 0x00,0x00,0x00,0x00,0x00,0x00,0x00,0x00,0x00,0x00,0x00,0x00,0x00,0x00,0x00,
 0x00,0x00,0xf8,0xff,0x0f,0xf8,0xff,0x0f,0x00,0x08,0x00,0x18,0x08,0x00,0x18,
 0x00,0x08,0x00,0x78,0x08,0x00,0x28,0x00,0x08,0x00,0x3c,0x08,0x00,0x18,0x00,
 0x08,0x00,0x3e,0x08,0x00,0x28,0x00,0x08,0x00,0x1f,0x08,0x00,0x18,0x00,0x08,
 0x80,0x2b,0x08,0x00,0x28,0x00,0x08,0xc0,0x19,0x08,0x00,0x18,0x00,0x08,0xe0,
 0x28,0x08,0x00,0x28,0x00,0xc8,0x70,0x18,0x08,0x00,0x18,0x00,0xe8,0x39,0x28,
 0x08,0x00,0x28,0x00,0xe8,0x1d,0x18,0x08,0x00,0x18,0x00,0xc8,0x1f,0x28,0x08,
 0x00,0x28,0x00,0x88,0x0f,0x18,0x08,0x00,0x18,0x00,0x08,0x0f,0x28,0x08,0x00,
 0x28,0x00,0x08,0x06,0x18,0x08,0x00,0x18,0x00,0x08,0x00,0x28,0x08,0x00,0x28,
 0x00,0xf8,0xff,0x1f,0xf8,0xff,0x1f,0x00,0xa8,0xaa,0x2a,0xa8,0xaa,0x2a,0x00,
 0x50,0x55,0x15,0x50,0x55,0x15,0x00,0x00,0x00,0x00,0x00,0x00,0x00,0x00,0x00,
 0x00,0x00,0x00,0x00,0x00,0x00,0x00,0x00,0x00,0x00,0x00,0x00,0x00,0x00,0x00,
 0x00,0x00,0x00,0x00,0x00};
