#define pagerd_width 50
#define pagerd_height 50
static unsigned char pagerd_bits[] = {
   0x00, 0x00, 0x00, 0x00, 0x00, 0x00, 0x00, 0x00, 0x00, 0x00, 0x00, 0x00,
   0x00, 0x00, 0x00, 0x00, 0x00, 0x00, 0x00, 0x00, 0x00, 0x00, 0x00, 0x00,
   0x00, 0x00, 0x00, 0x00, 0x00, 0x00, 0x00, 0x00, 0x00, 0x00, 0x00, 0x00,
   0x00, 0x00, 0x00, 0x00, 0x00, 0x00, 0x00, 0x00, 0x00, 0x00, 0x00, 0x00,
   0x00, 0x00, 0x00, 0x00, 0x00, 0x00, 0x00, 0x00, 0x00, 0x00, 0x00, 0x00,
   0x00, 0x00, 0x00, 0x00, 0x00, 0x00, 0x00, 0x00, 0x00, 0x00, 0x00, 0xe0,
   0xff, 0x7f, 0x00, 0x00, 0x00, 0x00, 0x20, 0x00, 0x80, 0x03, 0x00, 0x00,
   0x00, 0x20, 0x00, 0x00, 0x0d, 0x00, 0x00, 0x00, 0x2a, 0x15, 0x00, 0x32,
   0x00, 0x00, 0x00, 0x34, 0x0a, 0x00, 0x7e, 0x00, 0x00, 0x00, 0x2a, 0x00,
   0x00, 0x40, 0x00, 0x00, 0x00, 0x34, 0x00, 0x00, 0x40, 0x00, 0x00, 0x00,
   0x2a, 0xaa, 0xaa, 0x42, 0x00, 0x00, 0x00, 0x34, 0x55, 0x55, 0x45, 0x00,
   0x00, 0x00, 0x2a, 0x00, 0x00, 0x40, 0x00, 0x00, 0x00, 0x34, 0x00, 0x00,
   0x40, 0x00, 0x00, 0x00, 0x2a, 0x55, 0x55, 0x45, 0x00, 0x00, 0x00, 0x34,
   0xaa, 0xaa, 0x4a, 0x00, 0x00, 0x00, 0x2a, 0x00, 0x00, 0x40, 0x00, 0x00,
   0x00, 0x34, 0x00, 0x00, 0x40, 0x00, 0x00, 0x00, 0x2a, 0x55, 0x55, 0x45,
   0x00, 0x00, 0x00, 0x34, 0xaa, 0xaa, 0x4a, 0x00, 0x00, 0x00, 0x2a, 0x00,
   0x00, 0x40, 0x00, 0x00, 0x00, 0x34, 0x00, 0x00, 0x40, 0x00, 0x00, 0x00,
   0x2a, 0xaa, 0xaa, 0x42, 0x00, 0x00, 0x00, 0x34, 0x55, 0x55, 0x41, 0x00,
   0x00, 0x00, 0x2a, 0x00, 0x00, 0x40, 0x00, 0x00, 0x00, 0x34, 0x00, 0x00,
   0x40, 0x00, 0x00, 0x00, 0x2a, 0x55, 0x55, 0x45, 0x00, 0x00, 0x00, 0x34,
   0xaa, 0xaa, 0x4a, 0x00, 0x00, 0x00, 0x2a, 0x00, 0x00, 0x40, 0x00, 0x00,
   0x00, 0x34, 0x00, 0x00, 0x40, 0x00, 0x00, 0x00, 0x2a, 0x00, 0x55, 0x40,
   0x00, 0x00, 0x00, 0x34, 0x00, 0xaa, 0x40, 0x00, 0x00, 0x00, 0x2a, 0x00,
   0x00, 0x40, 0x00, 0x00, 0x00, 0x34, 0x00, 0x00, 0x40, 0x00, 0x00, 0x00,
   0x2a, 0x00, 0x00, 0x40, 0x00, 0x00, 0x00, 0xf4, 0xff, 0xff, 0x7f, 0x00,
   0x00, 0x00, 0xaa, 0xaa, 0xaa, 0x0a, 0x00, 0x00, 0x00, 0x54, 0x55, 0x55,
   0x05, 0x00, 0x00, 0x00, 0xaa, 0xaa, 0xaa, 0x0a, 0x00, 0x00, 0x00, 0x00,
   0x00, 0x00, 0x00, 0x00, 0x00, 0x00, 0x00, 0x00, 0x00, 0x00, 0x00, 0x00,
   0x00, 0x00, 0x00, 0x00, 0x00, 0x00, 0x00, 0x00, 0x00, 0x00, 0x00, 0x00,
   0x00, 0x00};
