#define readmsg_width 50
#define readmsg_height 50
static unsigned char readmsg_bits[] = {
 0x00,0x00,0x00,0x00,0x00,0x00,0x00,0x00,0x00,0x00,0x00,0x00,0x00,0x00,0x00,
 0x00,0x00,0x00,0x00,0x00,0x00,0x00,0x00,0x00,0x00,0x00,0x00,0x00,0x00,0x00,
 0x00,0xe0,0x00,0x00,0x00,0x00,0x00,0x00,0x10,0x01,0x00,0x00,0x00,0x00,0x00,
 0x10,0x01,0x00,0x00,0x00,0x00,0x00,0x10,0x01,0x00,0x00,0x00,0x00,0x00,0xf8,
 0x00,0x00,0x00,0x00,0x00,0x00,0x1c,0x00,0x00,0x00,0x00,0xf8,0xff,0xff,0x01,
 0x00,0x00,0x00,0x08,0x00,0x03,0x03,0x00,0x00,0x00,0x08,0x80,0x01,0x05,0x00,
 0x00,0x00,0x48,0x05,0x02,0x09,0x00,0x00,0x00,0x88,0x02,0x14,0x1f,0x00,0x00,
 0x00,0x08,0x00,0x28,0x30,0x00,0x00,0x00,0x08,0x00,0x10,0x50,0x00,0x00,0x00,
 0x88,0xaa,0xaa,0x30,0x00,0x00,0x00,0x48,0x55,0x55,0x51,0x00,0x00,0x00,0x08,
 0x00,0x00,0x30,0x00,0x00,0x00,0x08,0x00,0x00,0x50,0x00,0x00,0x00,0x48,0x55,
 0x55,0x31,0x00,0x00,0x00,0x88,0xaa,0xaa,0x52,0x00,0x00,0x00,0x08,0x00,0x00,
 0x30,0x00,0x00,0x00,0x08,0x00,0x00,0x50,0x00,0x00,0x00,0x48,0x55,0x55,0x31,
 0x00,0x00,0x00,0x88,0xaa,0xaa,0x52,0x00,0x00,0x00,0x08,0x00,0x00,0x30,0x00,
 0x00,0x00,0x08,0x00,0x00,0x50,0x00,0x00,0x00,0x88,0xaa,0xaa,0x30,0x00,0x00,
 0x00,0x48,0x55,0x55,0x50,0x00,0x00,0x00,0x08,0x00,0x00,0x30,0x00,0x00,0x00,
 0x08,0x00,0x00,0x50,0x00,0x00,0x00,0x48,0x55,0x55,0x31,0x00,0x00,0x00,0x88,
 0xaa,0xaa,0x52,0x00,0x00,0x00,0x08,0x00,0x00,0x30,0x00,0x00,0x00,0x08,0x00,
 0x00,0x50,0x00,0x00,0x00,0x08,0x40,0x15,0x30,0x00,0x00,0x00,0x08,0x80,0x2a,
 0x50,0x00,0x00,0x00,0x08,0x00,0x00,0x30,0x00,0x00,0x00,0x08,0x00,0x00,0x50,
 0x00,0x00,0x00,0x08,0x00,0x00,0x30,0x00,0x00,0x00,0xf8,0xff,0xff,0x5f,0x00,
 0x00,0x00,0xa0,0xaa,0xaa,0x2a,0x00,0x00,0x00,0x40,0x55,0x55,0x55,0x00,0x00,
 0x00,0x00,0x00,0x00,0x00,0x00,0x00,0x00,0x00,0x00,0x00,0x00,0x00,0x00,0x00,
 0x00,0x00,0x00,0x00,0x00,0x00,0x00,0x00,0x00,0x00,0x00,0x00,0x00,0x00,0x00,
 0x00,0x00,0x00,0x00,0x00};
