#define save_width 50
#define save_height 50
static unsigned char save_bits[] = {
 0x00,0x00,0x00,0x00,0x00,0x00,0x00,0x00,0x00,0x00,0x00,0x00,0x00,0x00,0x00,
 0x00,0x00,0x00,0x00,0x00,0x00,0x00,0x00,0x00,0x00,0x00,0x00,0x00,0x00,0x00,
 0x00,0x00,0x00,0x00,0x00,0x00,0x00,0x00,0x00,0x00,0x00,0x00,0x00,0x00,0x00,
 0x00,0x00,0x00,0x00,0x00,0x00,0x00,0x00,0x00,0x00,0x00,0x00,0x00,0x00,0x00,
 0x00,0x00,0x00,0xf8,0xff,0xff,0x7f,0x00,0x00,0x00,0x08,0x00,0x00,0x40,0x00,
 0x00,0x00,0x88,0x0a,0x00,0x55,0x00,0x00,0x00,0x48,0x05,0x00,0x4e,0x00,0x00,
 0x00,0x08,0x00,0x00,0x5f,0x00,0x00,0x00,0x08,0x00,0x00,0x4e,0x00,0x00,0x00,
 0x08,0x00,0x00,0x55,0x00,0x00,0x00,0x08,0x00,0x00,0x40,0x00,0x00,0x00,0x08,
 0xa0,0x2a,0xc0,0xff,0x00,0x00,0x08,0x50,0x55,0x40,0x80,0x00,0x00,0x08,0x00,
 0x00,0xe0,0xff,0x1f,0x00,0x08,0xa0,0x2a,0x10,0x00,0x10,0x00,0x08,0x50,0xfd,
 0x1f,0x00,0x10,0x00,0x08,0x00,0x04,0x00,0x00,0x28,0x00,0x08,0x00,0x04,0x00,
 0x00,0x18,0x00,0x08,0x00,0x02,0x00,0x00,0x2c,0x00,0x08,0x00,0x02,0x00,0x00,
 0x14,0x00,0xf8,0xff,0x03,0x00,0x00,0x0c,0x00,0xa0,0xaa,0x01,0x00,0x00,0x16,
 0x00,0x40,0x5d,0x01,0x00,0x00,0x0a,0x00,0x00,0x08,0x01,0x00,0x00,0x06,0x00,
 0x00,0x88,0x00,0x00,0x00,0x0b,0x00,0x00,0x88,0x00,0x00,0x00,0x05,0x00,0x00,
 0x88,0x00,0x00,0x00,0x03,0x00,0x00,0x48,0x00,0x00,0x80,0x05,0x00,0x00,0x48,
 0x00,0x00,0x80,0x02,0x00,0x00,0x68,0x00,0x00,0x80,0x01,0x00,0x00,0x28,0x00,
 0x00,0xc0,0x02,0x00,0x00,0x28,0x00,0x00,0x40,0x01,0x00,0x00,0xf8,0xff,0xff,
 0xff,0x00,0x00,0x00,0x50,0x55,0x55,0x55,0x01,0x00,0x00,0xa0,0xaa,0xaa,0xaa,
 0x00,0x00,0x00,0x00,0x00,0x00,0x00,0x00,0x00,0x00,0x00,0x00,0x00,0x00,0x00,
 0x00,0x00,0x00,0x00,0x00,0x00,0x00,0x00,0x00,0x00,0x00,0x00,0x00,0x00,0x00,
 0x00,0x00,0x00,0x00,0x00,0x00,0x00,0x00,0x00,0x00,0x00,0x00,0x00,0x00,0x00,
 0x00,0x00,0x00,0x00,0x00,0x00,0x00,0x00,0x00,0x00,0x00,0x00,0x00,0x00,0x00,
 0x00,0x00,0x00,0x00,0x00};
