#define sort_width 50
#define sort_height 50
static unsigned char sort_bits[] = {
 0x00,0x00,0x00,0x00,0x00,0x00,0x00,0x00,0x0c,0x00,0x00,0x00,0x00,0x00,0x00,
 0x34,0x00,0x00,0x04,0x00,0x00,0x00,0xc2,0x00,0x00,0x0a,0x00,0x00,0x00,0x02,
 0x03,0x00,0x11,0x00,0x00,0x00,0x31,0x0c,0x80,0x24,0x00,0x00,0x00,0x79,0x30,
 0x40,0x4e,0x00,0x00,0x80,0x78,0xc0,0x20,0x9f,0x00,0x00,0x80,0x30,0x00,0x13,
 0x0e,0x01,0x00,0x40,0x00,0x00,0x0a,0x04,0x02,0x00,0x40,0x00,0x00,0x05,0x00,
 0x04,0x00,0x20,0x00,0x00,0x03,0x00,0x08,0x00,0x20,0x40,0x80,0xff,0xff,0x7f,
 0x00,0x10,0x20,0x80,0x00,0x00,0x40,0x00,0x10,0x00,0xfd,0xff,0xff,0x5f,0x00,
 0x08,0xa0,0x04,0x00,0x00,0x50,0x00,0x48,0x10,0xff,0xff,0xff,0x57,0x00,0x24,
 0x08,0x01,0x00,0x00,0x54,0x00,0x44,0xc0,0xff,0xff,0xff,0x55,0x00,0x22,0x40,
 0x00,0x00,0x00,0x55,0x00,0x12,0xf0,0xff,0xff,0x7f,0x55,0x00,0x02,0x10,0x00,
 0x00,0x40,0x55,0x00,0x0c,0x50,0x05,0x00,0x5c,0x55,0x00,0x30,0x90,0x02,0x00,
 0x5c,0x55,0x00,0xe0,0x10,0x00,0x00,0x5c,0x55,0x00,0x10,0x53,0x01,0x00,0x40,
 0x55,0x00,0x08,0x9e,0x02,0x00,0x40,0x55,0x00,0x84,0x11,0x40,0x55,0x40,0x75,
 0x00,0x62,0x10,0x80,0x2a,0x40,0x15,0x00,0x24,0x10,0x00,0x00,0x40,0x3d,0x00,
 0x48,0x10,0x80,0x42,0x40,0x15,0x00,0x50,0x10,0x40,0xa5,0x40,0x0f,0x00,0xa0,
 0x10,0x00,0x00,0x40,0x05,0x00,0xc0,0x10,0x00,0x00,0xc0,0x09,0x00,0x80,0x11,
 0x00,0x00,0x40,0x10,0x00,0x00,0xf1,0xff,0xff,0x7f,0x20,0x00,0x00,0x02,0x04,
 0x04,0x11,0x48,0x00,0x00,0x82,0x08,0x0a,0x22,0x9c,0x00,0x00,0x04,0x01,0x13,
 0x05,0x3e,0x01,0x00,0x04,0x8a,0x27,0x08,0x9c,0x00,0x00,0x08,0x10,0x67,0x04,
 0x48,0x00,0x00,0x08,0x02,0xa1,0x00,0x20,0x00,0x00,0x10,0x04,0x58,0x01,0x10,
 0x00,0x00,0x10,0x00,0x06,0x02,0x08,0x00,0x00,0x20,0x80,0x01,0x04,0x04,0x00,
 0x00,0x20,0xe0,0xff,0x0f,0x02,0x00,0x00,0x40,0x18,0x00,0x10,0x01,0x00,0x00,
 0x40,0x06,0x00,0xa0,0x00,0x00,0x00,0x80,0x01,0x00,0x40,0x00,0x00,0x00,0x00,
 0x00,0x00,0x00,0x00,0x00};
