#define noname_width 24
#define noname_height 24
static char noname_bits[] = {
 0xff,0x7f,0x03,0x01,0xc0,0x03,0x01,0x40,0x01,0xa9,0xaa,0x00,0x01,0xde,0x00,
 0xa9,0xe9,0x00,0x81,0x34,0x03,0x7d,0x4a,0x06,0x2b,0x45,0x0a,0xff,0x0e,0x08,
 0x60,0x0f,0x08,0x90,0x0f,0x10,0x3f,0x07,0x10,0x29,0x02,0x10,0x59,0x00,0x20,
 0x6d,0x00,0xc0,0x81,0x00,0xc0,0xa9,0x01,0xc0,0x01,0x02,0xc0,0xfd,0x0f,0xc0,
 0xab,0x3a,0xa0,0xff,0xff,0xd8,0x00,0x00,0xe7,0x00,0x00,0xff};
