#define noname_width 24
#define noname_height 24
static char noname_bits[] = {
 0x00,0x00,0x00,0x00,0x00,0x00,0x00,0x18,0x00,0x00,0x16,0x00,0x00,0x26,0x00,
 0x00,0x2e,0x00,0x00,0x4f,0x00,0x00,0x5f,0x00,0x80,0x9d,0x00,0x80,0xbd,0x00,
 0xc0,0x3a,0x01,0xc0,0x7a,0x01,0x60,0x71,0x02,0x60,0xf1,0x02,0xb0,0xe0,0x04,
 0xb0,0xe0,0x05,0xf8,0xff,0x09,0x58,0xc0,0x0b,0x2c,0xc0,0x13,0x2c,0x80,0x67,
 0x6e,0x80,0x2f,0x1f,0xc0,0x1f,0x00,0x00,0x00,0x00,0x00,0x00};
