#define noname_width 24
#define noname_height 24
static char noname_bits[] = {
 0x00,0x00,0x00,0xff,0xf3,0x3f,0x01,0x12,0x60,0x01,0x12,0x70,0x01,0x12,0x38,
 0x01,0x12,0x2c,0x01,0x32,0x26,0x01,0x72,0x23,0x01,0xd2,0x21,0x01,0x92,0x21,
 0xff,0xf3,0x3f,0x00,0x00,0x00,0x00,0x00,0x00,0xff,0xf3,0x3f,0x01,0x16,0x20,
 0x01,0x17,0x20,0x81,0x13,0x20,0xc1,0x12,0x20,0x63,0x12,0x20,0x37,0x12,0x20,
 0x1d,0x12,0x20,0x19,0x12,0x20,0xff,0xf3,0x3f,0x00,0x00,0x00};
