#define binary_width 50
#define binary_height 50
static char binary_bits[] = {
   0x00, 0x00, 0x00, 0x00, 0x00, 0x00, 0x00, 0x00, 0x00, 0x00, 0x00, 0x00,
   0x00, 0x00, 0x00, 0x00, 0x00, 0x00, 0x00, 0x00, 0x00, 0x00, 0x00, 0x00,
   0x00, 0x00, 0x00, 0x00, 0x00, 0x00, 0x00, 0x00, 0x00, 0x00, 0x00, 0x00,
   0x00, 0x00, 0x00, 0x00, 0x00, 0x00, 0x00, 0xfe, 0xff, 0xff, 0xff, 0x00,
   0x00, 0x00, 0x02, 0x00, 0x00, 0x80, 0x00, 0x00, 0x00, 0x02, 0x00, 0x00,
   0x80, 0x00, 0x00, 0x00, 0x02, 0x00, 0x00, 0x80, 0x00, 0x00, 0x00, 0x02,
   0x00, 0x00, 0x80, 0x00, 0x00, 0x00, 0x02, 0x00, 0x00, 0x80, 0x00, 0x00,
   0x00, 0x02, 0x71, 0x84, 0x83, 0x00, 0x00, 0x00, 0x82, 0x89, 0x46, 0x84,
   0x00, 0x00, 0x00, 0x02, 0x89, 0x44, 0x84, 0x00, 0x00, 0x00, 0x02, 0x89,
   0x44, 0x84, 0x00, 0x00, 0x00, 0x02, 0x89, 0x44, 0x84, 0x00, 0x00, 0x00,
   0x02, 0x71, 0x84, 0x83, 0x00, 0x00, 0x00, 0x02, 0x00, 0x00, 0x80, 0x00,
   0x00, 0x00, 0x02, 0x00, 0x00, 0x80, 0x00, 0x00, 0x00, 0x02, 0x00, 0x00,
   0x80, 0x00, 0x00, 0x00, 0x02, 0x00, 0x00, 0x80, 0x00, 0x00, 0x00, 0x02,
   0x00, 0x00, 0x80, 0x00, 0x00, 0x00, 0x02, 0x21, 0x8e, 0x83, 0x00, 0x00,
   0x00, 0x82, 0x31, 0x51, 0x84, 0x00, 0x00, 0x00, 0x02, 0x21, 0x51, 0x84,
   0x00, 0x00, 0x00, 0x02, 0x21, 0x51, 0x84, 0x00, 0x00, 0x00, 0x02, 0x21,
   0x51, 0x84, 0x00, 0x00, 0x00, 0x02, 0x21, 0x8e, 0x83, 0x00, 0x00, 0x00,
   0x02, 0x00, 0x00, 0x80, 0x00, 0x00, 0x00, 0x02, 0x00, 0x00, 0x80, 0x00,
   0x00, 0x00, 0x02, 0x00, 0x00, 0x80, 0x00, 0x00, 0x00, 0x02, 0x00, 0x00,
   0x80, 0x00, 0x00, 0x00, 0x02, 0x00, 0x00, 0x80, 0x00, 0x00, 0x00, 0x82,
   0x23, 0x84, 0x83, 0x00, 0x00, 0x00, 0x42, 0x34, 0x46, 0x84, 0x00, 0x00,
   0x00, 0x42, 0x24, 0x44, 0x84, 0x00, 0x00, 0x00, 0x42, 0x24, 0x44, 0x84,
   0x00, 0x00, 0x00, 0x42, 0x24, 0x44, 0x84, 0x00, 0x00, 0x00, 0x82, 0x23,
   0x84, 0x83, 0x00, 0x00, 0x00, 0x02, 0x00, 0x00, 0x80, 0x00, 0x00, 0x00,
   0x02, 0x00, 0x00, 0x80, 0x00, 0x00, 0x00, 0x02, 0x00, 0x00, 0x80, 0x00,
   0x00, 0x00, 0x02, 0x00, 0x00, 0x80, 0x00, 0x00, 0x00, 0xfe, 0xff, 0xff,
   0xff, 0x00, 0x00, 0x00, 0x00, 0x00, 0x00, 0x00, 0x00, 0x00, 0x00, 0x00,
   0x00, 0x00, 0x00, 0x00, 0x00, 0x00, 0x00, 0x00, 0x00, 0x00, 0x00, 0x00,
   0x00, 0x00, 0x00, 0x00, 0x00, 0x00, 0x00, 0x00, 0x00, 0x00, 0x00, 0x00,
   0x00, 0x00};
