#define bitmap_width 50
#define bitmap_height 50
static char bitmap_bits[] = {
   0x00, 0x00, 0x00, 0x00, 0x00, 0x00, 0x00, 0x00, 0x00, 0x00, 0x00, 0x00,
   0x00, 0x00, 0x00, 0x00, 0x00, 0x00, 0x00, 0x00, 0x00, 0x04, 0x00, 0x00,
   0x00, 0x00, 0x00, 0x00, 0x00, 0x00, 0x00, 0x00, 0x00, 0x00, 0x00, 0x18,
   0x00, 0x00, 0x00, 0x00, 0x00, 0x00, 0xd8, 0x00, 0x00, 0x00, 0x00, 0x00,
   0x00, 0xc0, 0x00, 0x00, 0x00, 0x00, 0x00, 0x00, 0x00, 0x04, 0x00, 0x00,
   0x00, 0x00, 0x00, 0x02, 0x00, 0x00, 0x00, 0x00, 0x00, 0x00, 0x00, 0x19,
   0x00, 0x00, 0x00, 0x00, 0x00, 0x30, 0x18, 0x00, 0x00, 0x00, 0x00, 0x00,
   0x30, 0x80, 0x01, 0x00, 0x00, 0x00, 0x00, 0x00, 0x80, 0x01, 0x00, 0x00,
   0x00, 0x00, 0x80, 0x01, 0x00, 0x00, 0x00, 0x00, 0x00, 0x84, 0x61, 0x02,
   0x00, 0xfc, 0x7f, 0x00, 0x00, 0x60, 0x20, 0x00, 0x02, 0x80, 0x00, 0x26,
   0x04, 0x0c, 0x00, 0x02, 0x80, 0x00, 0x06, 0x00, 0x6c, 0x00, 0x02, 0x80,
   0x00, 0x60, 0x40, 0x60, 0x00, 0x02, 0x80, 0x00, 0x60, 0x00, 0x83, 0x01,
   0x03, 0x80, 0x00, 0x00, 0x1a, 0x9b, 0xcf, 0x03, 0x80, 0x00, 0x04, 0x18,
   0x98, 0xfc, 0x03, 0x80, 0x00, 0x00, 0x00, 0x64, 0xcf, 0x03, 0x80, 0x00,
   0x20, 0x00, 0x60, 0x03, 0x03, 0x80, 0x00, 0x80, 0x11, 0x4c, 0x00, 0x02,
   0x80, 0x00, 0x86, 0x81, 0x0d, 0x00, 0x02, 0x80, 0x00, 0x06, 0x84, 0x11,
   0x00, 0x02, 0x80, 0x00, 0x00, 0x20, 0x04, 0x00, 0x02, 0x80, 0x00, 0x00,
   0x80, 0x01, 0x00, 0x02, 0x80, 0x00, 0x20, 0x82, 0x01, 0x00, 0xfc, 0x7f,
   0x00, 0x00, 0x18, 0x00, 0x00, 0x02, 0x80, 0x00, 0xc2, 0x18, 0x00, 0x00,
   0x02, 0x80, 0x00, 0xc0, 0x00, 0x00, 0x00, 0x02, 0x80, 0x00, 0x0c, 0x00,
   0x00, 0x00, 0x02, 0x80, 0x00, 0x0c, 0x00, 0x00, 0x00, 0x02, 0x80, 0x00,
   0x40, 0x00, 0x00, 0x00, 0x02, 0x80, 0x00, 0x00, 0x00, 0x00, 0x00, 0x02,
   0x80, 0x00, 0x04, 0x00, 0x00, 0x00, 0x02, 0x80, 0x00, 0x00, 0x00, 0x00,
   0x00, 0x02, 0x80, 0x00, 0x00, 0x00, 0x00, 0x00, 0x02, 0x80, 0x00, 0x00,
   0x00, 0x00, 0x00, 0x02, 0x80, 0x00, 0x00, 0x00, 0x00, 0x00, 0x02, 0x80,
   0x00, 0x00, 0x00, 0x00, 0x00, 0x02, 0x80, 0x00, 0x00, 0x00, 0x00, 0x00,
   0x02, 0x80, 0x00, 0x00, 0x00, 0x00, 0x00, 0x02, 0x80, 0x00, 0x00, 0x00,
   0x00, 0x00, 0x02, 0x80, 0x00, 0x00, 0x00, 0x00, 0x00, 0x00, 0x00, 0x00,
   0x00, 0x00, 0x00, 0x00, 0x00, 0x00, 0x00, 0x00, 0x00, 0x00, 0x00, 0x00,
   0x00, 0x00};
