#define fax_width 50
#define fax_height 50
static char fax_bits[] = {
   0x00, 0x00, 0x00, 0x00, 0x00, 0x00, 0x00, 0x00, 0x00, 0x00, 0x00, 0x00,
   0x00, 0x00, 0x00, 0x80, 0xff, 0xff, 0x7f, 0x00, 0x00, 0x00, 0x40, 0x00,
   0x00, 0xa8, 0x00, 0x00, 0x00, 0x20, 0x00, 0xa8, 0x54, 0x01, 0x00, 0x00,
   0x20, 0x00, 0x50, 0xfc, 0x01, 0x00, 0x00, 0x10, 0x00, 0x00, 0x02, 0x00,
   0x00, 0x00, 0x10, 0xd7, 0x74, 0x02, 0x00, 0x00, 0x00, 0x10, 0x00, 0x00,
   0x02, 0x00, 0x00, 0x00, 0x08, 0x5d, 0x2d, 0x01, 0x00, 0x00, 0x00, 0x08,
   0x00, 0x00, 0x01, 0x00, 0x00, 0x00, 0xce, 0x5a, 0x3b, 0xff, 0x01, 0x00,
   0x00, 0x09, 0x00, 0x00, 0x8d, 0x01, 0x00, 0x80, 0xfc, 0xff, 0xff, 0x47,
   0x01, 0x00, 0x40, 0xfe, 0xff, 0xff, 0x23, 0x01, 0x00, 0x20, 0x00, 0x00,
   0x00, 0x10, 0x01, 0x00, 0x10, 0x00, 0x00, 0x00, 0x08, 0x01, 0x00, 0xf8,
   0xff, 0xff, 0xff, 0x07, 0x01, 0x00, 0x08, 0x00, 0x00, 0x00, 0x04, 0x2b,
   0x00, 0x88, 0x6d, 0x00, 0x80, 0x04, 0x55, 0x00, 0x88, 0x6d, 0x00, 0x40,
   0x05, 0x2b, 0x00, 0x08, 0x00, 0x00, 0x80, 0xb4, 0x15, 0x00, 0x88, 0x6d,
   0x00, 0x10, 0xf4, 0x0a, 0x00, 0x88, 0x6d, 0x00, 0x28, 0xe4, 0x05, 0x00,
   0x08, 0x00, 0x00, 0x10, 0xb4, 0x03, 0x00, 0x08, 0x00, 0x00, 0x00, 0x5c,
   0x07, 0x00, 0xf8, 0xff, 0xff, 0xff, 0xaf, 0x0e, 0x00, 0xb8, 0xaa, 0xaa,
   0xaa, 0x56, 0x0c, 0x00, 0x18, 0x00, 0x00, 0x00, 0x06, 0x0c, 0x00, 0x00,
   0x00, 0x00, 0x00, 0x00, 0x18, 0x00, 0x00, 0x00, 0x00, 0x00, 0x00, 0x0c,
   0x00, 0x00, 0x00, 0x00, 0x00, 0x00, 0x18, 0x00, 0x00, 0x80, 0x03, 0x00,
   0x00, 0x0c, 0x00, 0x00, 0xc0, 0x07, 0x00, 0x00, 0x18, 0x00, 0x00, 0xe0,
   0x0e, 0x00, 0x00, 0x0c, 0x00, 0x00, 0x60, 0x0d, 0x00, 0x00, 0x18, 0x00,
   0x00, 0xe0, 0x0e, 0x00, 0x00, 0x0c, 0x00, 0x00, 0xc0, 0x07, 0x00, 0x00,
   0x18, 0x00, 0x00, 0xc0, 0x03, 0x00, 0x00, 0x0c, 0x00, 0x00, 0x80, 0x03,
   0x00, 0x00, 0x0e, 0x00, 0x00, 0x80, 0x07, 0x00, 0x00, 0x06, 0x00, 0x00,
   0x00, 0x0f, 0x07, 0x80, 0x07, 0x00, 0x00, 0x00, 0x9e, 0x0f, 0x80, 0x01,
   0x00, 0x00, 0x00, 0xfc, 0x1d, 0xe0, 0x01, 0x00, 0x00, 0x00, 0xf8, 0x5a,
   0x75, 0x00, 0x00, 0x00, 0x00, 0xf0, 0xfd, 0x5f, 0x00, 0x00, 0x00, 0x00,
   0xc0, 0x9f, 0x0a, 0x00, 0x00, 0x00, 0x00, 0x00, 0x07, 0x00, 0x00, 0x00,
   0x00, 0x00, 0x00, 0x00, 0x00, 0x00, 0x00, 0x00, 0x00, 0x00, 0x00, 0x00,
   0x00, 0x00};
