#define pager_width 50
#define pager_height 50
static unsigned char pager_bits[] = {
 0x00,0x00,0x00,0x00,0x00,0x00,0x00,0x00,0x00,0x00,0x00,0x00,0x00,0x00,0x00,
 0x00,0x00,0x00,0x00,0x00,0x00,0xf0,0xff,0x7f,0x00,0x00,0x00,0x00,0x10,0x00,
 0xa0,0x00,0x00,0x00,0x00,0x10,0x00,0x20,0x01,0x00,0x00,0x00,0x90,0x2a,0x20,
 0x02,0x00,0x00,0x00,0x10,0x15,0x20,0x0c,0x00,0x00,0x00,0x10,0x00,0xe0,0x17,
 0x00,0x00,0x00,0x10,0x00,0x00,0x2c,0x00,0x00,0x00,0x10,0x00,0x00,0x14,0x00,
 0x00,0x00,0x10,0x55,0x55,0x2c,0x00,0x00,0x00,0x90,0xaa,0xaa,0x14,0x00,0x00,
 0x00,0x10,0x00,0x00,0x2c,0x00,0x00,0x00,0x10,0x00,0x00,0x14,0x00,0x00,0x00,
 0x10,0x00,0x00,0x2c,0x00,0x00,0x00,0x90,0xaa,0xaa,0x14,0x00,0x00,0x00,0x10,
 0x55,0x55,0x2c,0x00,0x00,0x00,0x90,0xaa,0x02,0x14,0x00,0x00,0x00,0x10,0x00,
 0x00,0x2c,0x00,0x00,0x00,0x10,0x00,0x00,0x1c,0x00,0x00,0x00,0x90,0xaa,0xaa,
 0x6c,0x00,0x00,0x00,0x10,0x55,0x55,0x94,0x01,0x00,0x00,0x90,0xaa,0x0a,0x2c,
 0x06,0x00,0x00,0x10,0x00,0x00,0x14,0x18,0x00,0x00,0x10,0x00,0x00,0x2c,0x60,
 0x00,0x00,0x90,0xaa,0x2a,0x14,0x80,0x01,0x00,0x10,0x55,0x55,0x2c,0x00,0x02,
 0x00,0x90,0xaa,0xaa,0x14,0x80,0x03,0x00,0x10,0x00,0x00,0x2c,0x60,0x06,0x00,
 0x10,0x00,0x00,0x14,0x18,0x0a,0x00,0x10,0x40,0x15,0x2c,0x06,0x16,0x00,0x10,
 0x80,0x0a,0x94,0x01,0x0a,0x00,0x10,0x00,0x00,0x7c,0x00,0x16,0x00,0x10,0x00,
 0x55,0x94,0x00,0x0a,0x00,0x10,0x00,0x00,0x2c,0x01,0x16,0x00,0x10,0x00,0x00,
 0x14,0x02,0x0a,0x00,0xf0,0xff,0xff,0x2f,0x04,0x16,0x00,0x40,0x55,0x5d,0x15,
 0x08,0x0a,0x00,0x80,0xba,0xae,0x2a,0x10,0x16,0x00,0x00,0x10,0x01,0x00,0x20,
 0x0a,0x00,0x00,0x90,0x00,0x00,0x40,0x16,0x00,0x00,0x50,0x00,0x00,0x80,0x0a,
 0x00,0x00,0x30,0x00,0x00,0x00,0x17,0x00,0x00,0xf0,0xff,0xff,0xff,0x0b,0x00,
 0x00,0x40,0x55,0x55,0x55,0x15,0x00,0x00,0x80,0xaa,0xaa,0xaa,0x0a,0x00,0x00,
 0x00,0x00,0x00,0x00,0x00,0x00,0x00,0x00,0x00,0x00,0x00,0x00,0x00,0x00,0x00,
 0x00,0x00,0x00,0x00,0x00};
