#define compose_width 32
#define compose_height 32
static char compose_bits[] = {
 0xff,0x7f,0x00,0x00,0x01,0x40,0x00,0x00,0x01,0x40,0x00,0x08,0x01,0x40,0x00,
 0x1c,0xf1,0xff,0x07,0x3e,0x11,0x00,0x04,0x1d,0xd1,0x07,0x84,0x09,0x11,0x00,
 0x44,0x07,0xd1,0x07,0x64,0x02,0x11,0x00,0xd4,0x01,0x11,0x00,0x8c,0x00,0x11,
 0x00,0x64,0x00,0x11,0xff,0x32,0x00,0x11,0x00,0x19,0x00,0x11,0xff,0x08,0x00,
 0x11,0x40,0x04,0x00,0x11,0x3f,0x06,0x00,0x11,0x10,0x05,0x00,0x11,0x8f,0xff,
 0x7f,0x11,0x44,0x00,0x60,0x1f,0x62,0x00,0x50,0x10,0x91,0x00,0x48,0x90,0x18,
 0x01,0x44,0x50,0x14,0x02,0x42,0x30,0x12,0x04,0x41,0x10,0x1f,0x8a,0x42,0x98,
 0x10,0x71,0x44,0x74,0x90,0x00,0x48,0x24,0x50,0x00,0x50,0x1a,0x30,0x00,0x60,
 0x06,0xf0,0xff,0x7f,0x01,0x00,0x00,0x00};
