#define cut_width 32
#define cut_height 32
static char cut_bits[] = {
 0x00,0x00,0x0f,0x00,0x00,0x80,0x1f,0x00,0x00,0x80,0x19,0x00,0x00,0x80,0x19,
 0x00,0xe0,0x80,0x19,0x00,0xf0,0x81,0x19,0x00,0x18,0x83,0x19,0x00,0x18,0x86,
 0x19,0x00,0x18,0x8c,0x19,0x00,0x38,0x98,0x1d,0x00,0x70,0xb0,0x0f,0x00,0xe0,
 0xb0,0x07,0x00,0xc0,0xff,0x04,0x00,0x80,0xbf,0x04,0x00,0x00,0x10,0x05,0x00,
 0x00,0x20,0x06,0x00,0x00,0x40,0x05,0x00,0x00,0x80,0x08,0x00,0x00,0x80,0x11,
 0x00,0x00,0x80,0x22,0x00,0x00,0x80,0x44,0x00,0x00,0x80,0x8c,0x00,0x00,0x80,
 0x14,0x01,0x00,0x80,0x24,0x02,0x00,0x80,0x44,0x04,0x00,0x80,0x84,0x08,0x00,
 0x80,0x04,0x09,0x00,0x80,0x04,0x0a,0x00,0x80,0x04,0x0c,0x00,0x00,0x05,0x08,
 0x00,0x00,0x06,0x00,0x00,0x00,0x04,0x00};
