#define asterix_width 50
#define asterix_height 50

static char asterix_bits[] = {
 0x00, 0x00, 0x00, 0x00, 0x00, 0x00, 0x00, 0x00, 0x00, 0x00, 0x00, 0x00,
 0x00, 0x00, 0x00, 0x00, 0x00, 0x00, 0x00, 0x00, 0x00, 0x00, 0x00, 0x00,
 0x00, 0x00, 0x00, 0x00, 0x00, 0x00, 0x00, 0x00, 0x00, 0x00, 0x00, 0x00,
 0xfe, 0xff, 0xff, 0xff, 0x01, 0x00, 0x00, 0x02, 0x00, 0x00, 0x00, 0x01,
 0x00, 0x00, 0x02, 0x00, 0x00, 0x00, 0x01, 0x00, 0x00, 0x02, 0x00, 0x00,
 0x00, 0x01, 0x00, 0x00, 0x02, 0xc0, 0x0f, 0x00, 0x01, 0x00, 0x00, 0x02,
 0xc0, 0x0f, 0x00, 0x01, 0x00, 0x00, 0x02, 0xc0, 0x0f, 0x00, 0x01, 0x00,
 0x00, 0x02, 0xc1, 0x0f, 0x02, 0x01, 0x00, 0x00, 0x82, 0xc3, 0x0f, 0x07,
 0x01, 0x00, 0x00, 0xc2, 0xc7, 0x8f, 0x0f, 0x01, 0x00, 0x00, 0xe2, 0xcf,
 0xcf, 0x1f, 0x01, 0x00, 0x00, 0xe2, 0xdf, 0xef, 0x1f, 0x01, 0x00, 0x00,
 0xe2, 0xff, 0xff, 0x1f, 0x01, 0x00, 0x00, 0x82, 0xff, 0xff, 0x07, 0x01,
 0x00, 0x00, 0x02, 0xfe, 0xff, 0x01, 0x01, 0x00, 0x00, 0x02, 0xf8, 0x7f,
 0x00, 0x01, 0x00, 0x00, 0x02, 0xe0, 0x1f, 0x00, 0x01, 0x00, 0x00, 0x02,
 0xf0, 0x3f, 0x00, 0x01, 0x00, 0x00, 0x02, 0xf8, 0x7f, 0x00, 0x01, 0x00,
 0x00, 0x02, 0xfc, 0xfc, 0x00, 0x01, 0x00, 0x00, 0x02, 0x7e, 0xf8, 0x01,
 0x01, 0x00, 0x00, 0x02, 0x7f, 0xf8, 0x03, 0x01, 0x00, 0x00, 0x82, 0x3f,
 0xf0, 0x07, 0x01, 0x00, 0x00, 0x02, 0x3f, 0xf0, 0x03, 0x01, 0x00, 0x00,
 0x02, 0x1e, 0xe0, 0x01, 0x01, 0x00, 0x00, 0x02, 0x1c, 0xe0, 0x00, 0x01,
 0x00, 0x00, 0x02, 0x00, 0x00, 0x00, 0x01, 0x00, 0x00, 0x02, 0x00, 0x00,
 0x12, 0x01, 0x00, 0x00, 0x02, 0x00, 0x00, 0x14, 0x01, 0x00, 0x00, 0xfe,
 0xff, 0x7f, 0xcf, 0x01, 0x00, 0x00, 0x00, 0x00, 0x00, 0x0c, 0x00, 0x00,
 0x00, 0x03, 0x00, 0x00, 0x12, 0x00, 0x00, 0x00, 0x03, 0x18, 0x00, 0x00,
 0x00, 0x00, 0x80, 0xc6, 0x3f, 0xb7, 0xee, 0x0e, 0x00, 0x80, 0x66, 0x9a,
 0xe9, 0xcd, 0x04, 0x00, 0x80, 0xe7, 0x99, 0x6f, 0x8c, 0x03, 0x00, 0x40,
 0x8c, 0x9b, 0x61, 0x8c, 0x03, 0x00, 0x40, 0x2c, 0xdb, 0x69, 0x4c, 0x06,
 0x00, 0xe0, 0xfe, 0x31, 0xf7, 0xfe, 0x0e, 0x00, 0x00, 0x00, 0x00, 0x00,
 0x00, 0x00, 0x00, 0x00, 0x00, 0x00, 0x00, 0x00, 0x00, 0x00, 0x00, 0x00,
 0x00, 0x00, 0x00, 0x00, 0x00, 0x00, 0x00, 0x00, 0x00, 0x00, 0x00, 0x00,
 0x00, 0x00, 0x00, 0x00, 0x00, 0x00, 0x00, 0x00, 0x00, 0x00, 0x00, 0x00,
 0x00, 0x00 };
