#define folders_width 50
#define folders_height 50
static unsigned char folders_bits[] = {
 0x00,0x00,0x00,0x00,0x00,0x00,0x00,0x00,0x00,0x00,0x00,0x00,0x00,0x00,0x00,
 0x00,0x00,0x00,0x00,0x00,0x00,0x00,0x00,0xfc,0x01,0x00,0x00,0x00,0x00,0x00,
 0x02,0x02,0x00,0x00,0x00,0x00,0x00,0x02,0xfe,0xff,0x1f,0x00,0x00,0x00,0x02,
 0x00,0x00,0x10,0x00,0x00,0x00,0x02,0xfe,0xff,0x37,0x00,0x00,0x00,0xfe,0x01,
 0x00,0x58,0x00,0x00,0x00,0x02,0x00,0x00,0x30,0x00,0x00,0x00,0x02,0x00,0x00,
 0x50,0x00,0x00,0x00,0x02,0x00,0x00,0x30,0x00,0x00,0xf8,0x03,0x00,0x00,0x50,
 0x00,0x00,0x04,0x04,0x00,0x00,0x30,0x00,0x00,0x04,0xfc,0xff,0x3f,0x50,0x00,
 0x00,0x04,0x00,0x00,0x20,0x30,0x00,0x00,0x04,0xfc,0xff,0x6f,0x50,0x00,0x00,
 0xfc,0x03,0x00,0xb0,0x30,0x00,0x00,0x04,0x00,0x00,0x60,0x50,0x00,0x00,0x04,
 0x00,0x00,0xa0,0x30,0x00,0x00,0x04,0x00,0x00,0x60,0x50,0x00,0xf0,0x07,0x00,
 0x00,0xa0,0x30,0x00,0x08,0x08,0x00,0x00,0x60,0x50,0x00,0x08,0xf8,0xff,0x7f,
 0xa0,0x30,0x00,0x08,0x00,0x00,0x40,0x60,0x50,0x00,0x08,0xf8,0xff,0xdf,0xa0,
 0x30,0x00,0xf8,0x07,0x00,0x60,0xe1,0x5f,0x00,0x08,0x00,0x00,0xc0,0xa0,0x2a,
 0x00,0x08,0x00,0x00,0x40,0x61,0x55,0x00,0x08,0x00,0x00,0xc0,0xa0,0x00,0x00,
 0x08,0x00,0x00,0x40,0x61,0x00,0x00,0x08,0x00,0x00,0xc0,0xa0,0x00,0x00,0x08,
 0x00,0x00,0x40,0x61,0x00,0x00,0x08,0x00,0x00,0xc0,0xa0,0x00,0x00,0x08,0x00,
 0x00,0x40,0x61,0x00,0x00,0x08,0x00,0x00,0xc0,0xbf,0x00,0x00,0x08,0x00,0x00,
 0x40,0x55,0x00,0x00,0x08,0x00,0x00,0xc0,0xaa,0x00,0x00,0x08,0x00,0x00,0x40,
 0x01,0x00,0x00,0x08,0x00,0x00,0xc0,0x00,0x00,0x00,0x08,0x00,0x00,0x40,0x01,
 0x00,0x00,0x08,0x00,0x00,0xc0,0x00,0x00,0x00,0x08,0x00,0x00,0x40,0x01,0x00,
 0x00,0x08,0x00,0x00,0xc0,0x00,0x00,0x00,0xf8,0xff,0xff,0x7f,0x01,0x00,0x00,
 0xa0,0xaa,0xaa,0xaa,0x00,0x00,0x00,0x40,0x55,0x55,0x55,0x01,0x00,0x00,0x00,
 0x00,0x00,0x00,0x00,0x00,0x00,0x00,0x00,0x00,0x00,0x00,0x00,0x00,0x00,0x00,
 0x00,0x00,0x00,0x00,0x00};
