#define /tmp/tf1_width 50
#define /tmp/tf1_height 50
static char /tmp/tf1_bits[] = {
 0x00,0x00,0x00,0x00,0x00,0x00,0x00,0x00,0x00,0x00,0x00,0x00,0x00,0x00,0x00,
 0x00,0x00,0x00,0x00,0x00,0x00,0x00,0x00,0x00,0x08,0xf0,0x03,0x00,0x00,0x00,
 0x00,0x0e,0x04,0x00,0x00,0x00,0x00,0x80,0x89,0x41,0x30,0x00,0x00,0x00,0x60,
 0xe8,0x10,0x0f,0x00,0x00,0x00,0x18,0xd8,0x0f,0x00,0x00,0x00,0x00,0x06,0x46,
 0x34,0x62,0x00,0x00,0x80,0x81,0x21,0xc4,0x18,0x00,0x00,0x60,0x60,0x20,0xa2,
 0x04,0x00,0x00,0x18,0x18,0x10,0xa0,0x00,0x00,0x00,0x06,0x06,0xdc,0x90,0x00,
 0x00,0x00,0x81,0x01,0x13,0x43,0x22,0x00,0x00,0x61,0xc0,0x10,0x61,0x0e,0x00,
 0x00,0x11,0x30,0x90,0x00,0x00,0x00,0x00,0x11,0x0c,0x1c,0x31,0x00,0x00,0x00,
 0x11,0x03,0x23,0x48,0x00,0x00,0x00,0x11,0x81,0x40,0x86,0x00,0x00,0x00,0x11,
 0x81,0x80,0x01,0x01,0x00,0x00,0x11,0x41,0x30,0x00,0x01,0x00,0x00,0x11,0x21,
 0xcc,0x00,0x02,0x00,0x00,0x11,0x11,0x02,0x03,0x02,0x00,0x00,0x11,0x11,0x70,
 0x02,0x04,0x00,0x00,0x11,0x09,0x8c,0x01,0x04,0x00,0x00,0x11,0x09,0x04,0x00,
 0x04,0x00,0x00,0x11,0x09,0x04,0x00,0x04,0x00,0x00,0x11,0x09,0x22,0x00,0x04,
 0x00,0x00,0x11,0x89,0x63,0x00,0x02,0x00,0x00,0x11,0x71,0x90,0x01,0x02,0x00,
 0x00,0x11,0x01,0x10,0x02,0x02,0x00,0x00,0x11,0x01,0x08,0x16,0x01,0x00,0x00,
 0x11,0x01,0xc8,0x09,0x01,0x00,0x00,0x11,0x01,0x34,0x86,0x00,0x00,0x00,0x11,
 0x01,0x8c,0x41,0x00,0x00,0x00,0x11,0x01,0x60,0x40,0x00,0x00,0x00,0x11,0x01,
 0x12,0x30,0x00,0x00,0x00,0x11,0x01,0x0e,0x0c,0x00,0x00,0x00,0x11,0x01,0x02,
 0x07,0x00,0x00,0x00,0x11,0x01,0xfc,0x01,0x00,0x00,0x00,0x11,0x01,0x60,0x00,
 0x00,0x00,0x00,0x19,0x01,0x18,0x00,0x00,0x00,0x00,0x17,0x01,0x06,0x00,0x00,
 0x00,0x00,0x91,0x81,0x01,0x00,0x00,0x00,0x00,0x70,0x61,0x00,0x00,0x00,0x00,
 0x00,0x10,0x19,0x00,0x00,0x00,0x00,0x00,0x00,0x07,0x00,0x00,0x00,0x00,0x00,
 0x00,0x01,0x00,0x00,0x00,0x00,0x00,0x00,0x00,0x00,0x00,0x00,0x00,0x00,0x00,
 0x00,0x00,0x00,0x00,0x00};
