#define iDraw_icon_width 50
#define iDraw_icon_height 50
static char iDraw_icon_bits[] = {
   0x00, 0x00, 0x00, 0x00, 0x00, 0x00, 0x00, 0xfc, 0xff, 0xff, 0xff, 0xff,
   0x03, 0x00, 0x04, 0x00, 0x00, 0x00, 0x00, 0x04, 0x00, 0xfa, 0xff, 0xff,
   0xff, 0xff, 0x07, 0x00, 0x56, 0x44, 0x22, 0x12, 0x89, 0x04, 0x00, 0x5a,
   0x11, 0x89, 0x44, 0x24, 0x06, 0x00, 0x56, 0x44, 0x20, 0x12, 0x89, 0x04,
   0x00, 0xfa, 0xaa, 0x56, 0xa9, 0x52, 0x05, 0x00, 0xd6, 0xff, 0xff, 0xff,
   0xff, 0x07, 0x00, 0x1a, 0x00, 0x00, 0x00, 0x00, 0x04, 0x00, 0x16, 0xaa,
   0xaa, 0xaa, 0x2a, 0x04, 0x00, 0x1a, 0x00, 0x00, 0x00, 0x00, 0x04, 0x00,
   0x16, 0x02, 0x00, 0x04, 0x20, 0x04, 0x00, 0x1a, 0x00, 0x00, 0xc4, 0x01,
   0x04, 0x00, 0x16, 0xc2, 0xc1, 0x20, 0x22, 0x04, 0x00, 0x1a, 0x20, 0xc2,
   0x10, 0x04, 0x04, 0x00, 0x16, 0x12, 0x04, 0x14, 0x24, 0x04, 0x00, 0x1a,
   0x10, 0x04, 0x14, 0x04, 0x04, 0x00, 0x16, 0x02, 0x06, 0x20, 0x22, 0x04,
   0x00, 0x1a, 0x00, 0x0f, 0xc0, 0x01, 0x04, 0x00, 0x16, 0x02, 0x06, 0x04,
   0x20, 0x04, 0x00, 0x1a, 0x00, 0x02, 0x04, 0x00, 0x04, 0x00, 0x16, 0x02,
   0xc2, 0x40, 0x24, 0x04, 0x00, 0x1a, 0x30, 0xc4, 0x01, 0x00, 0x04, 0x00,
   0x16, 0x32, 0xb8, 0x03, 0x20, 0x04, 0x00, 0x1a, 0x00, 0x00, 0x05, 0x04,
   0x04, 0x00, 0x16, 0x02, 0x00, 0x1a, 0x20, 0x04, 0x00, 0x1a, 0x00, 0x00,
   0x64, 0x00, 0x04, 0x00, 0x16, 0xda, 0xb6, 0xc4, 0x21, 0x04, 0x00, 0x1a,
   0x00, 0x00, 0x48, 0x02, 0x04, 0x00, 0x16, 0x02, 0x00, 0x38, 0x24, 0x04,
   0x00, 0x1a, 0x00, 0x00, 0x50, 0x08, 0x04, 0x00, 0x16, 0xf2, 0x9f, 0xb0,
   0x18, 0x04, 0x00, 0x1a, 0x10, 0x10, 0x60, 0x25, 0x04, 0x00, 0x16, 0x12,
   0x10, 0xc0, 0x4a, 0x04, 0x00, 0x1a, 0x10, 0x90, 0x84, 0x91, 0x04, 0x00,
   0x16, 0xf2, 0x1f, 0x00, 0x27, 0x05, 0x00, 0x1a, 0x00, 0x00, 0x00, 0x4a,
   0x06, 0x00, 0x16, 0x02, 0x00, 0x00, 0x96, 0x04, 0x00, 0x1a, 0x54, 0x55,
   0x55, 0x2c, 0x09, 0x00, 0x14, 0x00, 0x00, 0x00, 0x58, 0x12, 0x00, 0x14,
   0x00, 0x00, 0x00, 0xb0, 0x24, 0x00, 0xf8, 0xff, 0xff, 0xff, 0x7f, 0x49,
   0x00, 0x00, 0x00, 0x00, 0x00, 0x80, 0x92, 0x00, 0x00, 0x00, 0x00, 0x00,
   0x00, 0x25, 0x01, 0x00, 0x00, 0x00, 0x00, 0x00, 0x4a, 0x00, 0x00, 0x00,
   0x00, 0x00, 0x00, 0x94, 0x00, 0x00, 0x00, 0x00, 0x00, 0x00, 0x28, 0x01,
   0x00, 0x00, 0x00, 0x00, 0x00, 0x50, 0x00, 0x00, 0x00, 0x00, 0x00, 0x00,
   0x00, 0x00};
