#define islpnt_width 50
#define islpnt_height 50
static char islpnt_bits[] = {
 0x00,0x00,0x00,0x00,0x00,0x00,0x00,0xf8,0xfc,0xf1,0xc7,0xcf,0x0f,0x00,0x04,
 0x03,0x0e,0x38,0x30,0x10,0x00,0x82,0x60,0x80,0x01,0x03,0x13,0x00,0x12,0x00,
 0x00,0x00,0x00,0x20,0x00,0x82,0xff,0xff,0xff,0xff,0x2f,0x00,0x42,0x00,0x00,
 0x00,0x00,0x30,0x00,0x2a,0x20,0x01,0x00,0x00,0x20,0x00,0x2a,0x00,0x20,0x02,
 0x08,0x20,0x00,0x24,0x91,0x00,0x40,0x00,0x20,0x00,0x22,0x00,0x08,0x00,0x00,
 0x20,0x00,0x22,0x40,0x82,0x00,0x02,0x21,0x00,0x2a,0x11,0x20,0x10,0x10,0x20,
 0x00,0x2a,0x40,0x54,0x04,0x00,0x20,0x00,0x22,0x10,0xa1,0x00,0x00,0x24,0x00,
 0x22,0x04,0x74,0x21,0x89,0x20,0x00,0xa4,0x20,0xd9,0x03,0x00,0x20,0x00,0x24,
 0x00,0xa4,0x46,0x00,0x24,0x00,0x24,0x44,0xba,0x0b,0x44,0x20,0x00,0x22,0x10,
 0xec,0x1e,0x01,0x20,0x00,0x22,0x00,0xd2,0x27,0x00,0x20,0x00,0x2a,0xa4,0xfc,
 0x46,0x90,0x20,0x00,0x2a,0x00,0xb5,0xa3,0x00,0x28,0x00,0xa2,0x00,0x6a,0x53,
 0x09,0x21,0x00,0x22,0x20,0xfd,0xa9,0x02,0x20,0x00,0x24,0x02,0xaa,0x51,0x05,
 0x20,0x00,0x24,0x80,0xfc,0xa9,0x8a,0x20,0x00,0x24,0x21,0xb8,0x54,0x15,0x20,
 0x00,0x22,0x00,0xf0,0xa8,0x2a,0x24,0x00,0x22,0x88,0xe0,0x54,0x75,0x20,0x00,
 0x2a,0x00,0x48,0xaa,0x9a,0x28,0x00,0x2a,0x00,0x81,0x54,0x0d,0x21,0x00,0x2a,
 0x21,0x20,0xab,0x26,0x22,0x00,0x22,0x00,0x04,0x56,0x53,0x24,0x00,0x22,0x48,
 0x40,0xac,0xa9,0x24,0x00,0x24,0x00,0x02,0xd8,0x50,0x24,0x00,0x24,0x00,0x10,
 0x70,0xa0,0x24,0x00,0x24,0x81,0x80,0x60,0x41,0x24,0x00,0x22,0x10,0x08,0xc8,
 0x82,0x24,0x00,0x2a,0x00,0x00,0x80,0x05,0x24,0x00,0x2a,0x00,0x82,0x20,0x03,
 0x28,0x00,0x24,0x08,0x00,0x04,0xfe,0x30,0x00,0x28,0x40,0x20,0x00,0x80,0x21,
 0x00,0x30,0x00,0x02,0x12,0x02,0x43,0x00,0x40,0x00,0x00,0x00,0x00,0x86,0x00,
 0x80,0xff,0xff,0xff,0xff,0x0f,0x01,0x00,0x00,0x00,0x00,0x00,0x18,0x00,0x00,
 0x00,0x00,0x00,0x00,0x30,0x00,0x00,0x00,0x00,0x00,0x00,0x60,0x00,0x00,0x00,
 0x00,0x00,0x00,0x00,0x00};
